/* XPM */
static char *result[] = {
/* columns rows colors chars-per-pixel */
"64 64 211 2 ",
"   c black",
".  c #0A1106",
"X  c #111B09",
"o  c #102005",
"O  c #1B2C0F",
"+  c #1A3508",
"@  c #1C350A",
"#  c #1E2917",
"$  c #213B0E",
"%  c #21271D",
"&  c #3B2210",
"*  c #252525",
"=  c #272727",
"-  c #29292A",
";  c #2B2A2C",
":  c #2E2D2F",
">  c #2F2E31",
",  c #322F33",
"<  c #343539",
"1  c #373A3F",
"2  c #560C0C",
"3  c #501C12",
"4  c #701313",
"5  c #701D1D",
"6  c #563E11",
"7  c #6C2015",
"8  c #672816",
"9  c #722F14",
"0  c #522020",
"q  c #5F2222",
"w  c #6D2424",
"e  c #753939",
"r  c #25450E",
"t  c #2B550D",
"y  c #2C5011",
"u  c #2F5712",
"i  c #3C651F",
"p  c #3D6C19",
"a  c #334B22",
"s  c #645A2D",
"d  c #436827",
"f  c #6B633B",
"g  c #3A4045",
"h  c gray26",
"j  c #434344",
"k  c #4A484B",
"l  c #504D53",
"z  c #534F54",
"x  c #55555A",
"c  c #57585D",
"v  c #585B60",
"b  c #5B6166",
"n  c #606A6F",
"m  c #696A6A",
"M  c #6A6B6C",
"N  c #6B6B6C",
"B  c #6A6C6C",
"V  c #6C6C6E",
"C  c #6D6C6E",
"Z  c #6E6E6F",
"A  c #616C72",
"S  c #6D6F71",
"D  c #6E6E70",
"F  c #6F6F71",
"G  c #706F71",
"H  c #706F72",
"J  c #6F7274",
"K  c #717073",
"L  c #717173",
"P  c #727073",
"I  c #737175",
"U  c #737274",
"Y  c #737275",
"T  c #737376",
"R  c #747376",
"E  c #757277",
"W  c #757377",
"Q  c #767478",
"!  c #777479",
"~  c #76767A",
"^  c #76777B",
"/  c #78757A",
"(  c #78767A",
")  c #7A767C",
"_  c #7A777C",
"`  c #7A767D",
"'  c #74787A",
"]  c #75787A",
"[  c #74787B",
"{  c #76787A",
"}  c #767B7D",
"|  c #79787D",
" . c #7A787D",
".. c #787B7D",
"X. c #7B787E",
"o. c #797A7E",
"O. c #797B7E",
"+. c #7C787E",
"@. c #8F1515",
"#. c #9D1818",
"$. c #B81B1B",
"%. c #9A251A",
"&. c #9D2323",
"*. c #9E3838",
"=. c #CA1E1E",
"-. c #C03131",
";. c #E62222",
":. c #EE3737",
">. c #85651E",
",. c #AC4A20",
"<. c #AB4747",
"1. c #D84141",
"2. c #F44646",
"3. c #FC5B5B",
"4. c #49861B",
"5. c #4B8C1C",
"6. c #539721",
"7. c #75D72C",
"8. c #A8A93D",
"9. c #9C8942",
"0. c #A79858",
"q. c #E0A861",
"w. c #E6B16F",
"e. c #7D7980",
"r. c #797E80",
"t. c #797E81",
"y. c #7C7C82",
"u. c #7D7D82",
"i. c #7E7F85",
"p. c #807C83",
"a. c #817C83",
"s. c #807D84",
"d. c #807E86",
"f. c #807F86",
"g. c #847E87",
"h. c #7A8083",
"j. c #7C8084",
"k. c #7F8087",
"l. c #7C8386",
"z. c #7C8387",
"x. c #808187",
"c. c #838189",
"v. c #828288",
"b. c #838289",
"n. c #83838A",
"m. c #85818A",
"M. c #83858B",
"N. c #86838D",
"B. c #83848C",
"V. c #83858C",
"C. c #85848C",
"Z. c #87848D",
"A. c #86868F",
"S. c #86878F",
"D. c #81888D",
"F. c #81898D",
"G. c #888790",
"H. c #828B90",
"J. c #838B91",
"K. c #868990",
"L. c #868991",
"P. c #868A92",
"I. c #858E94",
"U. c #878E94",
"Y. c #898993",
"T. c #8A8A93",
"R. c #898B94",
"E. c #8A8B94",
"W. c #898D95",
"Q. c #8A8C94",
"!. c #8B8C96",
"~. c #8B8D96",
"^. c #8C8F99",
"/. c #879197",
"(. c #8A9299",
"). c #88939A",
"_. c #8D9099",
"`. c #8C919A",
"'. c #8C919B",
"]. c #8C939B",
"[. c #88949A",
"{. c #8E929C",
"}. c #8E939C",
"|. c #8C969D",
" X c #8F959F",
".X c #8E969E",
"XX c #90969F",
"oX c #8F97A0",
"OX c #8E9CA3",
"+X c #8E9CA4",
"@X c #9098A2",
"#X c #9198A2",
"$X c #929BA5",
"%X c #909CA4",
"&X c #929DA6",
"*X c #929FA7",
"=X c #939EA8",
"-X c #949EA8",
";X c #95A1AB",
":X c #94A5AD",
">X c #95A5AD",
",X c #97A4AE",
"<X c #97A6AF",
"1X c #98A7B1",
"2X c #98A9B2",
"3X c #99AAB4",
"4X c #9AAAB4",
"5X c #9BADB7",
"6X c #F1C085",
"7X c #CBDBFC",
"8X c white",
/* pixels */
"8X8X8X8X8X8X8X8X8X8X8X8X8X8X8X8X8X8X8X8X8X8X8X8X8X8X8X8X8X8X8X8X8X8X8X8X8X8X8X8X8X8X8X8X8X8X8X8X8X8X8X8X8X8X8X8X8X8X8X8X8X8X8X8X",
"8X8X8X8X8X8X8X8X8X8X8X8X8X8X8X8X8X8X8X8X8X8X8X8X8X8X8X8X8X8X8X8X8X8X8X8X8X8X8X8X8X8X8X8X8X8X8X8X8X8X8X8X8X8X8X8X8X8X8X8X8X8X8X8X",
"8X8X5X1Xg.e.m U g. X5X^.g.H m a.g.5X5X5X5X5X).m H.5X5X5X} m a.g.5X5X5X5X5X5X5X5X5X5X5X} m a.g.5X1Xg.g.g.) m Q g.$X5X5X5X5X5X8X8X",
"8X8X1X;Xp.X.m P p.`.1XR.p.Y C c.N.5X5X5X5X5X).m F.1X3X5X} m c.N.5X5X5X5X5X5X5X5X5X3X1X} m a.g.5X1XN.m.g.) m E p.oX1X5X5X5X5X8X8X",
"8X8Xg.a.m m m m m Q g.Y m e.g.1X5X5X5X5X5X5X).m Q g.$X5X} m >X5X5X5X5X5X5X5X5X5X5X^.g.H m a.g.5X5X5X;Xg.) m m m _ g.;X5X5X5X8X8X",
"8X8Xg.a.m N H H H Q e.H m v.Y.3X5X5X5X5X3X;XJ.m Q g.$X5X} m %X;X5X5X5X3X;X;X;X;X;XT.g.H m a.g.5X5X5X;Xg.) m m m _ g.@X;X;X;X8X8X",
"8X8Xg.a.m G g.g.g.Q m m m OX5X5X5X5X5X5X;Xg.) m Q g.$X5X} m a.g.5X5X5X;Xg.g.g.g.g.g.g.H m a.g.5X5X5X;Xg.) m m m _ g.g.g.g.g.8X8X",
"8X8X` ` Y o.^.^.^.x.Y C m U.$X3X5X5X4X$X].` I m K ` W.$X[ m ( ` $X$X$X].` ` ` ` ` ` ` Z m ( ` $X$X$X Xg.) m m m I ` ` ` ` ` 8X8X",
"8X8Xm V g.Y.5X5X5X Xg.Y m e.g.1X5X5X1Xg.e.m m m m m _ g.H m m m g.g.g.e.m m m m m m m m m m m g.g.g.g.g.) m m m m m m m m m 8X8X",
"8X8Xm V g.Y.5X5X5X Xg.Y m Y Q '. X X{.g.e.m m m m m P Q Q Q Q Q Q Q Q I m D Q Q Q Q Q Q Q Q Q Q Q Q Q Q Q Q Q Q Z m m m m m 8X8X",
"8X8Xm V g.Y.5X5X5X Xg.Y m m m a.g.g.g.g.e.m m m m m m m e.g.g.g.m m m m m U g.g.g.g.g.g.g.g.g.m m m m m U g.g.g.Y m m m m m 8X8X",
"8X8Xm N Y | _._._.k.Y V m m m P Y Y Y Y Q ` ` ` L m Y ` ].$X$X$X` ` ` R m U g.!.$X$X$X$X$Xm.g.m N ` i.[.|.$X$X$XB.` V m m m 8X8X",
"8X8Xm m m G g.g.g.Q m m m m m m m m m m G g.g.g.Q m _ g.;X5X5X5Xg.g.g.e.m U g. X5X5X5X5X5XZ.g.m V g.Y.5X5X5X5X5X^.g.H m m m 8X8X",
"8X8Xe.X.m N G G G Q e.e.e.e.e.e.e.m N e.n.;X Xg.Q m _ g.;X5X5X5X;X;X;XoXe.) G I.5X5X5X5X5X;X;Xm V g.m.T.T.T.T.T.m.g.H m ` e.8X8X",
"8X8Xg.a.m m m m m Q g.g.g.g.g.g.g.m V g.Y.5X$Xg.Q m _ g.;X5X5X5X5X5X5X;Xg.) m H.5X5X5X5X5X5X5Xm V g.g.g.g.g.g.g.g.g.H m a.g.8X8X",
"8X8Xg.a.m G p.p.p.`.1X1X1X1X1XZ.g.m J 1X1X5X3X1X`.p.Y C s.Z.1X5X5X5X5X;Xg.) m H.5X5X5X5X5XT.Z.m m C C C C C C C C C M m *X1X8X8X",
"8X8Xg.a.m G g.g.g. X5X5X5X5X5XZ.g.m J 5X5X5XA           , g.1X5X5X5XA           g 5X5X5X5XZ.g.m m m m m m m m m m m m m >X5X8X8X",
"8X8Xg.a.m G g.^.5X5X5X5X5X5X5X5X5Xm V g.Y.5XA           = m a.g.5X5XA           , g.g.g.g.g.g.m m m m m U g.g.g.g.g.H m a.g.8X8X",
"8X8Xp.e.m G g.^.5X5X5X5X5X5X5X5X5XC G p.l   q 3.3.3.3.3.*.  > p.n   q 3.3.3.3.3.*.  > p.p.p.p.C C m m m U g.m.N.N.N.Y C e.p.8X8X",
"8X8Xm m m G g.^.5X5X5X5X5X5X5X5X5Xg.a.m h   q 3.3.3.3.3.*.  = m z   q 3.3.3.3.3.*.  = m m m m g.a.m m m U g. X5X5X5XT.g.C m 8X8X",
"8X8X} } m G g.^.5X5X5X5X5X5X5X5XA           2 ;.&.* e 3.2.;.@.  2 ;.:.3.<.* w ;.@.          - Y.S.H Z m U g. X5X5X5X{.Y.S m 8X8X",
"8X8X5X>Xm G g.^.5X5X5X5X5X5X5X5XA           2 ;.&.* e 3.2.;.@.  2 ;.:.3.<.* w ;.@.          , 5X1Xg.e.m U g. X5X5X5X5X5XJ m 8X8X",
"8X8X5X2Xl.r.` M.$X$X$X$X$X$X$X$Xb   y 7.7.7.6.O 8 ;.;.;.;.;.=.#.$.;.;.;.;.;.%.O p 7.7.7.4.  < 5X4X^.S.Y Q ` (.5X5X5X-X$XS m 8X8X",
"8X8X5X5X5X+Xm U g.g.g.g.g.g.g.g.z   y 7.7.7.6.O 8 ;.;.;.;.;.=.#.$.;.;.;.;.;.%.O p 7.7.7.4.  g 5X5X5X;Xg.) m H.5X5X5XT.g.C m 8X8X",
"8X8X X X XP.m D Q Q Q Q Q Q Q Q k   q 3.3.3.1.#.#.#.#.#.$.;.&.* w ;.=.#.#.#.#.#.-.3.3.3.*.  g  X X X_.g.) m j. X X Xy.Q B m 8X8X",
"8X8Xg.g.g.e.m m m m m m m m m m h   q 3.3.3.1.#.#.#.#.#.$.;.&.* w ;.=.#.#.#.#.#.-.3.3.3.*.  g g.g.g.g.g.) m Q g.g.g.H m m m 8X8X",
"8X8XY Y Y L m m m L ` ` ` ` ` B h   q 3.3.3.3.3.3.3.3.3.<.* 0 #.5 * e 3.3.3.3.3.3.3.3.3.*.  < Y Y Y Y Y G m D Y Y Y ` ` ` ` 8X8X",
"8X8Xm m m m m m m Q g.g.g.g.g.C h   q 3.3.3.3.3.3.3.3.3.<.* 0 #.5 * e 3.3.3.3.3.3.3.3.3.*.  , m m m m m m m m m m m e.g.g.g.8X8X",
"8X8Xe.e.e./ m m m Q g.{.;XG.g.C h   y 7.7.7.7.7.7.7.7.7.8.3.3.3.1.#.5 * d 7.7.7.7.7.7.7.4.  ; e.e.e.e.e.e.e.Y m W e.oX;X;X;X8X8X",
"8X8Xg.g.g.e.m m m Q g.$X5XT.g.C h   y 7.7.7.7.7.7.7.7.7.8.3.3.3.1.#.5 * d 7.7.7.7.7.7.7.4.  = g.g.g.g.g.g.g.Q m _ g.;X5X5X5X8X8X",
"7X7X1X1X1X$Xp.( m Q g.$X5XT.g.C h   @ 5.5.5.5.5.5.5.5.5.>.;.;.;.;.;.%.O # * a 5.5.5.5.5.u   = g.Z.1X$Xg.X.C Q p.oX1X3X5X5X5X8X8X",
"7X7X5X5X5X;Xg.) m Q g.$X5XT.g.C h   @ 5.5.5.5.5.5.5.5.5.>.;.;.;.;.;.%.O # * a 5.5.5.5.5.u   = g.Z.5X;Xg.) m Q g.$X5X5X5X5X5X8X8X",
"8X8X5X5X5X;Xg.) m Q g.g.g.g.g.C h   @ 5.5.5.5.5.5.5.5.5.>.;.;.;.;.;.,.5.i * a 5.5.5.5.5.u   = g.g.g.g.g.) m Q g.$X5X5X5X5X5X7X7X",
"8X8X5X5X1X&Xp./ m E p.p.p.p.p.H j   @ 5.5.5.5.5.5.5.5.5.>.;.;.;.;.;.,.5.i * a 5.5.5.5.5.u   = p.p.p.p.p./ m Q g.$X5X5X5X5X5X7X7X",
"7X7X5X1Xg.e.m m m m m m m m m a.z       . O O O O O O O & 4 4 4 4 4 3 O # * % O O O X       = m m m m m m m Q g.$X5X5X5X5X5X8X8X",
"7X7X;X$Xe.` H H H C m C H H H A.c       . O O O O O O O & 4 4 4 4 4 3 O # * % O O O X       - } } } } } ' H Q e.].;X;X;X;X;X8X8X",
"8X8Xg.a.m G g.g.g.Q m _ g.g.g.1X5Xg.z   o t t t t t t t 6 #.#.#.#.#.7 O # * % O $ t +   = a.g.5X5X5X5X5X$Xg.Q m _ g.g.g.g.g.8X8X",
"8X8X` ` Y o.^.T.g.Q m _ g.!.^.3X5X^.v   o t t t t t t t 6 #.#.#.#.#.7 O # * % O $ t +   = a.g.$X$X$X$X$X_.g.Q m I ` ` ` ` ` 8X8X",
"8X8Xm V g.Y.5X$Xg.Q m _ g.;X5X5X5X5XA   o t t t t t t t 6 #.#.#.#.#.7 O s q.w.6X0.t +   = a.g.g.g.g.g.g.g.g.Q m m m m m m m 8X8X",
"8X8Xm V g.Z. XK.Q Q Q L. X1X5X5X5X5XA   o t t t t t t t 6 #.#.#.#.#.7 O s q.w.6X0.t +   = E Q Q Q Q Q Q Q Q G m P Q Q Q Q Q 8X8X",
"8X8Xm V g.g.g.) m Q g.$X5X5X5X5X5X5XA   o t t t t t t t 6 #.#.#.#.#.7 O f 6X6X6X0.t +   = m m m m m m m m m m m _ g.g.g.g.g.8X8X",
"8X8Xm N Y Y Y G m Q g.$X5X5X5X5X5X5XA   o t t t t t t t 6 #.#.#.#.#.7 O f 6X6X6X0.t +   : ` ` ` ` ` R m G ` ` ` W.$X$X$Xm.g.8X8X",
"8X8Xm m m m m m m Q g.$X5X5X5X5X5X5XA   o t t t t t t t 6 #.#.#.#.#.7 O s q.q.q.9.t +   , g.g.g.g.g.e.m U g.g.g.$X5X5X5XZ.g.8X8X",
"8X8Xe.e.e.e.e.e.e.Q G k.T.,X5X_.T.T.x   o t t t t t t t 6 #.#.#.#.#.7 O s q.q.q.9.t +   1 ;X;X;X-Xg.e.m U g.^.;X3X5X5X5X^ G 8X8X",
"8X8Xg.g.g.g.g.g.g.Q m _ g.;X5XZ.g.g.z   o t t t t t t t 6 #.#.#.#.#.9 t r O O O $ t +   g 5X5X5X1Xg.e.m U g. X5X5X5X5X5XJ m 8X8X",
"8X8Xg.Z.1X1X1X1X1X`.p.Y C s.Z.H C C j   o t t t t t t t 6 #.#.#.#.#.9 t r O O O $ t +   g 5X5X5X5X1X$Xp.) C | Z.=X5X5X5XJ m 8X8X",
"8X8Xg.Z.5X5X5X5X5X Xg.Y m e.g.C m m h                                                   g 5X5X5X5X5X;Xg.) m Q g.$X5X5X5XJ m 8X8X",
"8X8X5X5X5X5X5X5X5X5X5X^.g.H m a.g.g.z                                                   , 1X5X5X1Xg.e.m U g.Q m _ g.g.g.C m 8X8X",
"8X8X1X1X5X5X5X5X5X5X5X{.N.H m a.g.N.Y.5X5X5X5X5X#XN.~ C _ p.;X1X1X1X1X1X1XoXp.Q C C C _ p.;X1X1X;Xp.e.C ~ N. .C _ p.p.p.C m 8X8X",
"8X8Xg.Z.5X5X5X5X5X5X5X5X5X} m a.g.5X5X5X5X5X5X5X5X5X^.g.H m a.g.g.g.g.g.g.) m Q g.g.g.H m a.g.g.a.m G g.^.5X Xg.Y m m m m m 8X8X",
"8X8Xe.f.;X,X5X3X;X;X;X;X;X[ m C.Y.5X5X5X5X5X5X5X5X5XW.e.Z m +.e.e.e.e.e.e.Q H u.Y.Y.Y.~ H e.e.e.` H ~ Y.#X5X$XY.O.H B m m m 8X8X",
"8X8Xm V g.Y.5X$Xg.g.g.g.g.H m >X5X5X5X5X5X5X5X5X5X5Xz.m m m m m m m m m m U g. X5X5X5XT.g.C m m V g.Y.5X5X5X5X5X^.g.H m m m 8X8X",
"8X8Xm V g.Z.$XW.` ` ` ` ` Z m .X$X5X5X5X5X5X5X5X,X$Xt.m P Y Y Y Y Y Y G m U g. X5X5X5X#X^.S m Y ~ ^. X5X5X5X5X5X^.g.H m m m 8X8X",
"8X8Xm V g.g.g.) m m m m m m m a.g.5X5X5X5X5X5X5X Xg.Y m e.g.g.g.g.g.g.e.m U g. X5X5X5X5X5XJ m g.Z.5X5X5X5X5X5X5X^.g.H m m m 8X8X",
"8X8Xm V g.p.Q Q Q Q Q Q Q Q Q Q Q  X X X X X X XV.Q Z m e.g.{. X X{.g.e.m .. X;X5X5X5X5X5XJ m  X#X5X5X5X5X5X5X5X^.g.H m m m 8X8X",
"8X8Xm V g.e.m U g.g.g.g.g.g.g.C m g.g.g.g.g.g.g.Q m m m e.g.1X5X5X1Xg.e.m l.5X5X5X5X5X5X5XJ m 5X5X5X5X5X5X5X5X5X^.g.H m m m 8X8X",
"8X8X[./.Y Q ` M.$X$X$X$X$XZ.g.C m Y Y Y Y Y Y Y D m m m F Y E._._.Q.Y L m { _._._.;X5XXX_.S m _.}.5X5X5X5X5X5X5X^.g.H m ( ` 8X8X",
"8X8X5X>Xm G g.^.5X5X5X5X5XT.g.C m m m m m m m m m m m m m m a.g.g.a.m m m U g.g.g.$X5XT.g.C m g.Z.5X5X5X5X5X5X5X^.g.H m a.g.8X8X",
"8X8X5X>Xm ] ;X1X5X5X5X5X5X,X;Xd.e.m N e.e.e.! m Y e.e.e.e.e.Y G G G e.e.e.) G G G k.T.~ G m m G T T.T.T.T.T.T.T.| G ` e.$X;X8X8X",
"8X8X5X>Xm } 5X5X5X5X5X5X5X5X5XZ.g.m V g.g.g.) m Q g.g.g.g.g.C m m V g.g.g.) m m m _ g.H m m m m V g.g.g.g.g.g.g.Y m e.g.1X5X8X8X",
"8X8X5X>Xm G Z.{.5X5X5X5X5X~.Z.H C p.b.1X$Xg.) m D.1X1X1X1X1XJ m p.b.1X1X1X<X:X:X:Xh.C M m m m p.e.C C C C C C C _ p.&X1X5X5X8X8X",
"8X8X5X>Xm G g.^.5X5X5X5X5XT.g.C m g.Z.5X;Xg.) m H.5X5X5X5X5XJ m g.Z.5X5X5X5X5X5X5Xz.m m m m m g.a.m m m m m m m _ g.;X5X5X5X8X8X",
"8X8X8X8X8X8X8X8X8X8X8X8X8X8X8X8X8X8X8X8X8X8X8X8X8X8X7X7X8X8X8X8X8X8X8X8X8X8X8X8X8X8X8X8X8X8X8X8X8X8X8X8X8X8X8X8X8X8X8X8X8X8X8X8X",
"8X8X8X8X8X8X8X8X8X8X8X8X8X8X8X8X8X8X8X8X8X8X8X8X8X8X7X7X8X8X8X8X8X8X8X8X8X8X8X8X8X8X8X8X8X8X8X8X8X8X8X8X8X8X8X8X8X8X8X8X8X8X8X8X"
};
