/* XPM */
static char *result[] = {
/* columns rows colors chars-per-pixel */
"64 64 155 2 ",
"   c #2E1E22",
".  c #3B2C30",
"X  c #7A0000",
"o  c #662310",
"O  c #6C3519",
"+  c #483A3E",
"@  c #713535",
"#  c #534721",
"$  c #5A4B2E",
"%  c #585033",
"&  c #694A2E",
"*  c #714621",
"=  c #784A23",
"-  c #674F33",
";  c #614E3A",
":  c #785737",
">  c #7F3F43",
",  c #5E5845",
"<  c #665843",
"1  c #655D4D",
"2  c #715F49",
"3  c #705654",
"4  c #64614F",
"5  c #746047",
"6  c #6B6254",
"7  c #6A6458",
"8  c #726C5C",
"9  c #6E6664",
"0  c #6A6A6B",
"q  c #716E60",
"w  c #747365",
"e  c #78706D",
"r  c #777A6C",
"t  c #6E6F71",
"y  c #706F72",
"u  c #6F7274",
"i  c #737275",
"p  c #767478",
"a  c #7A767C",
"s  c #767A7C",
"d  c #7A797E",
"f  c #920000",
"g  c #AB0000",
"h  c #B90000",
"j  c #962B14",
"k  c #82391B",
"l  c #AB2B14",
"z  c #C70000",
"x  c #E30000",
"c  c #AE5B00",
"v  c #AB521B",
"b  c #806410",
"n  c #804622",
"m  c #8F4622",
"M  c #814E24",
"N  c #8E4E25",
"B  c #964A23",
"V  c #9D4E25",
"C  c #895327",
"Z  c #93572A",
"A  c #8E563E",
"S  c #A75228",
"D  c #AC5628",
"F  c #AA5B2C",
"G  c #B1572A",
"H  c #B85B2C",
"J  c #A84837",
"K  c #BA5F3B",
"L  c #C05F2D",
"P  c #CA6330",
"I  c #D46833",
"U  c #83474B",
"Y  c #B45F49",
"T  c #956B47",
"R  c #9D664D",
"E  c #956852",
"W  c #907557",
"Q  c #AE6840",
"!  c #AD704E",
"~  c #B16F52",
"^  c #B77A5E",
"/  c #806663",
"(  c #826B62",
")  c #9B7C68",
"_  c #8F7772",
"`  c #937B76",
"'  c #A77A64",
"]  c #CC5F49",
"[  c #C3774C",
"{  c #D16850",
"}  c #D57057",
"|  c #D57C50",
" . c #AD8100",
".. c #988335",
"X. c #A69535",
"o. c #B9A632",
"O. c #C79D00",
"+. c #D5AA00",
"@. c #D6B300",
"#. c #E3B700",
"$. c #E3BC00",
"%. c #DDA337",
"&. c #E3C100",
"*. c #F1CE00",
"=. c #FFE500",
"-. c #9B8649",
";. c #AB8E52",
":. c #BE825A",
">. c #948071",
",. c #CD9F49",
"<. c #CD8A5D",
"1. c #E8BA49",
"2. c #C58466",
"3. c #D7906E",
"4. c #D59B6B",
"5. c #E19363",
"6. c #7D7980",
"7. c #787988",
"8. c #837E86",
"9. c #7D8186",
"0. c #86848C",
"q. c #838889",
"w. c #928A8C",
"e. c #888790",
"r. c #848B91",
"t. c #8A8A93",
"y. c #8C8F99",
"u. c #879197",
"i. c #899391",
"p. c #8E939D",
"a. c #94959B",
"s. c #A38B85",
"d. c #AD968F",
"f. c #A39C9E",
"g. c #B7A099",
"h. c #8F97A0",
"j. c #8E9CA4",
"k. c #929BA5",
"l. c #949EA8",
"z. c #95A2AC",
"x. c #98A7B1",
"c. c #9BADB7",
"v. c #C29782",
"b. c #E2A780",
"n. c #EBBA8E",
"m. c #EEBE93",
"M. c #F6CFA1",
"N. c #FBD8A8",
"B. c #FFE1AF",
"V. c #D9D9DD",
"C. c #C3D5EF",
"Z. c #CBDBFC",
"A. c #E6F7FF",
"S. c #F2FBFF",
"D. c white",
/* pixels */
"D.D.D.D.D.D.D.D.D.D.D.D.D.D.D.D.D.D.D.D.D.D.D.D.D.D.D.D.D.D.D.D.D.D.D.D.D.D.D.D.D.D.D.D.D.D.D.D.D.D.D.D.D.D.D.D.D.D.D.D.D.D.D.D.",
"D.D.D.D.D.D.D.D.D.D.D.D.D.D.D.D.D.D.D.D.D.D.D.D.D.D.D.D.D.D.D.D.D.D.D.D.D.D.D.D.D.D.D.D.D.D.D.D.D.D.D.D.D.D.D.D.D.D.D.D.D.D.D.D.",
"D.D.c.x.8.6.0 i 8.p.c.p.8.y 0 8.8.c.c.c.c.c.u.0 r.c.c.c.d 0 8.8.c.c.c.c.c.c.c.c.c.c.c.6.0 8.8.c.x.8.8.8.a 0 i 8.k.c.c.c.c.c.D.D.",
"D.D.x.z.6.a 0 i 8.u.x.t.8.i 0 8.0.c.r # c.r # 0 q.x.x.c.d # 6 0.# r c.c.c.c.c.c.c.x.x.s 0 6.8.c.x.0.0.8.a 0 p 6.p.x.c.c.c.c.D.D.",
"D.D.8.6.0 0 0 0 0 p 8.i 0 a 8.x.c.r 6 ; r 8 2 , 1 7 k.i.1 ; 6 r ; 6 r r i.c.c.c.c.y.8.y 0 8.8.c.c.c.z.8.a 0 0 0 a 8.z.c.c.c.D.D.",
"D.D.8.8.0 0 y y t p 6.t 0 q.t.x.c.# ; 3 # 2 _ # # # k.r # 3 ; # 3 ; # # w z.z.z.z.t.8.i 0 6.8.c.c.c.z.8.a 0 0 0 a 8.k.z.z.z.D.D.",
"D.D.8.8.0 y 8.8.8.p 0 0 0 j.c.c.c.# 2 ` # ( g.# 5 _ # # # 3 ; # 3 ; # 3 ; # 8.8.8.8.8.i 0 6.8.c.c.c.z.8.a 0 0 0 a 8.8.8.8.8.D.D.",
"D.D.a a i d y.y.y.0.i 0 0 y.k.x.c.# < / 5 >.g.; w s.# # # ; $ # ; $ # ; $ # a a a a a 0 0 d a k.k.k.p.8.a 0 0 0 i a a a a a D.D.",
"D.D.0 0 8.e.c.c.c.p.8.p 0 6.8.x.c.# ; 3 ` s.g.3 ` g.# # # # # # # # # # # # 0 0 0 0 0 0 0 0 0 8.8.8.8.8.a 0 0 0 0 0 0 0 0 0 D.D.",
"D.D.0 t 8.e.c.c.x.h.8.i 0 y p p.p.h.q # 3 / _ g.g.g.# * m m m m m m m m m m # # # p p p p p p p p p p p p p p p 0 0 0 0 0 0 D.D.",
"D.D.0 0 0.e.c.c.c.h.8.y 0 0 0 8.8.8.e 6 ; 2 / s.d.g.; & * * N V V S G G G G M = * 6 6 6 8.8.8.0 0 0 0 0 y 8.8.8.i 0 0 0 0 0 D.D.",
"D.D.0 0 i d y.p.p.9.i t 0 0 0 y i i i i # ; 3 _ s.g.3 ; # # M D D L I I I I D V m # # # k.8.8.0 0 a 8.p.p.k.k.k.0.a t 0 0 0 D.D.",
"D.D.0 0 0 y 8.8.8.p 0 0 0 0 0 0 0 0 0 0 i 7 # # ; 3 _ _ ` 3 U F I I I I I I I L D I G m # 6 0.0 0 8.t.c.c.c.c.c.y.8.t 0 0 0 D.D.",
"D.D.6.a 0 0 y y y p a 8.a 6.6.a d 0 0 d 4 ; # # $ ; 2 2 5 ; C V L P I I I I G H H I L G * : q 0 t 8.0.t.t.t.t.t.0.8.y 0 p a D.D.",
"D.D.8.8.0 0 0 0 0 p 8.8.8.8.8.8.8.0 0 0.# # # # # # # # # # * m D L I I I I m G I I I I m * # 0 y 8.8.8.8.8.8.8.8.8.t 0 8.8.D.D.",
"D.D.8.8.0 0 8.6.8.y.x.x.x.x.x.0.8.0 u x.# # # m V D I I I I H D I I I I I I m V G I L D I Z # 0 0 0 t 0 y 0 y 0 y 0 0 0 j.x.D.D.",
"D.D.8.8.0 y 8.8.8.h.c.c.c.c.c.e.8.0 t c.# # # m Q <.5.5.| G G D I I I I I I D D V L G V L C # 0 0 0 0 0 0 0 0 0 0 0 0 0 z.x.D.D.",
"D.D.8.8.0 0 8.y.c.c.c.c.c.c.c.c.c.0 0 8.# # # m <.n.n.4.3.m V D I I I I I I I G m D V m D = # 0 0 0 0 0 y 8.8.8.8.8.y 0 8.8.D.D.",
"D.D.6.d 0 y 8.p.c.c.c.c.c.c.c.c.c.y y 8.# * m # * B M.4.3.# M D I I I I I I I L D m V D m * # t 0 0 0 0 p 8.0.8.0.0.p t 6.6.D.D.",
"D.D.0 0 0 y 8.y.c.c.c.c.c.c.c.c.c.8.8.9 # * m * * * ' W T * N D L P I I I I I P L V V V * - < 8.8.0 0 0 y 8.h.c.c.c.t.8.0 0 D.D.",
"D.D.s s 0 y 8.y.c.c.c.c.c.c.c.c.x.8.6.0 # * m m * # # # # m V D D L I I I I I I I D V m # 1 y e.0.0 t 0 i 8.h.c.c.c.p.t.i 0 D.D.",
"D.D.c.x.0 y 8.y.c.c.c.c.c.c.c.c.c.8.8.0 # * m m m m m m m D D D D = # # # # # * m m m m # 6 8.c.x.8.6.0 i 8.h.c.c.c.c.c.u 0 D.D.",
"D.D.c.c.9.s a 0.k.l.k.k.k.k.k.k.k.8.8.0 # * m m m m m B V D D D v N = i.4 . s.E V V B m # 8 y.c.x.y.e.i a a i.c.c.c.l.k.t 0 D.D.",
"D.D.c.c.c.p.0 i 8.8.8.8.8.8.8.8.8.8.8.0 # * m m m m m V D D D D D V m C.7.  V.v.D D V m # r c.c.c.c.z.8.a 0 r.c.c.c.t.8.0 0 D.D.",
"D.D.p.p.p.r.0 t p i p p p p p p p p p p # * m m m m D D D D L I I L D A.e.  w.^ I I L D # r c.h.p.p.p.8.d 0 6.h.h.h.6.p 0 0 D.D.",
"D.D.8.q.8.a 0 0 0 0 0 0 0 0 0 0 0 0 t 8.8 2 * m m m D D D L P I I P L S.a.. 8 ' 5.5.K j o e c.8.8.8.8.8.a 0 p 8.8.8.y 0 0 0 D.D.",
"D.D.y i t i 0 0 0 i a a a a a 0 0 a 6.k.l.r # m m m D D D I I I I I I D.f.+ + ) m.m.Y X X U y.i i i i i y 0 0 i y i a 6.a a D.D.",
"D.D.0 0 0 0 0 0 0 p 8.8.8.8.8.t 0 8.0.c.c.r # m m m m V D I I I I I I I H D m.M.B.g z x g f X 0 0 0 0 0 0 0 0 0 0 0 6.8.8.8.D.D.",
"D.D.6.6.6.a 0 0 0 i 8.p.z.e.8.t 0 8.0.t.y.i.r * n m m B V L P I I I I L [ <.M.N.B.g h z g f X 6.6.6.6.6.8.a i 0 p a k.z.l.z.D.D.",
"D.D.8.8.8.6.0 0 0 p 8.k.c.t.8.y 0 8.8.8.t.c.c.# * m m m m D L I I I I D <.n.B.B.B.g g g g f X 8.8.8.8.8.8.8.a 0 a 8.z.c.c.c.D.D.",
"Z.Z.x.x.x.k.8.a 0 p 8.k.c.t.8.0 0 8.0.x.x.c.c.c.r # # * m m m m D D D D <.M.B.B.N.3.J X X @ 0 8.e.x.k.8.d 0 i 8.h.x.x.c.c.c.D.D.",
"Z.Z.x.c.c.z.8.a 0 i 8.k.c.t.8.y 0 8.0.c.c.c.c.c.i.r o O * * n m V V V V [ 4.n.n.n.T E U > 3 0 8.0.c.z.8.a 0 p 8.k.c.c.c.c.c.D.D.",
"D.D.c.c.c.z.8.a 0 p 8.8.8.8.8.0 0 8.8.8.t.c.c.c.c.c.X o # # * B m m m m ~ 3.3.3.3.# r t.0.0 0 8.8.0.8.8.a 0 i 8.k.c.c.c.c.c.Z.Z.",
"D.D.c.c.x.k.8.p 0 p 6.7._ 8.8.y 0 8.8.8.e.x.x.c.x.x.# o X X f g g g g g g g X X X  .;.u.8.t 0 6.8.6.8.6.p 0 p 8.k.c.c.c.c.c.Z.Z.",
"Z.Z.c.x.8.6.0 0 0 0 0 0 0 0 0 8.8.0 t 7.8.8.y.c.q.6 * k j j j l ] { } } { ] J v c @.o.-.8.0 0 0 0 0 0 0 0 0 a 8.k.c.c.c.c.x.D.D.",
"Z.Z.l.k.6.a y y y 0 0 t t t y e.t.y u _ 8.8.y.z.w # m V D D D D m.M.B.B.M.m.3.%.#.=.@. .6.y y 6.s s s s s y i d p.z.z.z.z.z.D.D.",
"D.D.8.8.0 y 8.8.8.p 0 a 8.8.8.x.c.8.8.0 i 8.8.8.7 # D D G I L D B.B.B.B.B.B.m.1.#.=.*.#. .-.8.c.c.c.c.c.k.0.p 0 a 8.8.8.8.8.D.D.",
"D.D.a a i d y.t.8.a 0 a 8.y.y.c.c.y.t.i i a d 8.6 # D G H I F M B.B.B.B.B.B.m.1.#.*.$.+. .T 8.k.k.k.k.k.y.8.i 0 i a a a a 6.D.D.",
"D.D.0 0 8.t.c.k.8.p 0 a 8.z.c.c.c.c.x.8.d 0 i 0.6 # D L I I Z # B.B.B.B.B.B.m.1.#.#.+.O. .-.8.8.8.8.8.8.8.8.p 0 0 0 0 0 0 0 D.D.",
"D.D.0 0 8.0.h.r.p p i r.p.x.c.c.c.c.x.h.t.p i p 1 # D L I D M # B.B.B.B.B.B.m.,. .O.&.=.0 p p p p p p p p p y 0 i p p p i p D.D.",
"D.D.0 0 8.8.8.a 0 i 8.k.c.c.c.c.c.c.c.c.z.e 1 , % # U ~ 2.R : # 4.n.B.B.N.M.b.;.b ..X.o.0 0 0 0 0 0 0 0 0 0 0 0 a 8.8.8.8.8.D.D.",
"D.D.0 0 i i i i 0 p 8.k.c.c.c.c.c.c.x.p.y.6 # # # # 3 >.g.` 2 # D 4.B.B.M.m.3.T # y a a a 6.a a a a i 0 y a a a t.k.k.l.0.8.D.D.",
"D.D.0 0 0 0 0 0 0 p 0.k.c.c.c.c.c.c.x.8.# * m m * # 3 / _ _ 2 # I L F m.b.3.# , 0 a 8.8.8.8.8.8.8.8.6.0 i 8.8.8.k.c.c.c.0.8.D.D.",
"D.D.6.6.6.6.6.d 6.i y 6.t.x.c.y.t.t.e.t , - * m n * ; < 2 2 : M I P L :.! T , 8 6.y.z.z.l.z.z.z.l.8.6.0 i 8.y.l.x.c.c.c.p y D.D.",
"D.D.8.8.8.8.8.8.8.a 0 a 8.l.c.0.8.0.8.0 0 , # m m m # # # # n G I I I m * # 0 i 8.k.c.c.c.c.c.c.x.8.6.0 i 8.h.c.c.c.c.c.i 0 D.D.",
"D.D.8.e.x.x.x.x.x.y.8.i y 8.0.y t 0 0 8.8.6.8.# # # # # # m V S I I I m * # 8.p 0 6.0.x.c.c.c.c.c.x.k.8.a 0 d e.l.c.c.c.u 0 D.D.",
"D.D.8.0.c.c.c.c.c.h.8.i 0 a 8.0 0 0 0 8.8.8.8.6 1 < 1 6 w * : A 2.^ ~ * 5 w 8.p 0 a 8.z.c.c.c.c.c.c.l.8.a 0 p 8.k.c.c.c.u 0 D.D.",
"D.D.c.c.c.c.c.c.c.c.c.y.8.y 0 8.8.8.0.c.c.c.c.c.h.8.i 0 6.# ; 3 g.s._ # r k.8.p 0 0 0 6.8.x.c.c.x.8.6.0 i 8.p 0 d 8.8.8.0 0 D.D.",
"D.D.x.x.c.c.c.c.c.c.c.p.0.y 0 8.8.8.t.c.c.c.c.c.k.e.a t a # ; 3 _ _ _ # r p.8.p t y 0 a 8.l.x.x.z.6.6.0 p 0.6.0 a 8.6.8.0 0 D.D.",
"D.D.8.0.c.c.c.c.c.c.c.c.c.d 0 6.8.c.c.c.c.c.c.c.c.c.t.8.t , < ; 2 2 2 6 e a 0 p 8.8.8.y 0 8.8.8.8.0 y 8.y.c.h.8.i 0 0 0 0 0 D.D.",
"D.D.6.8.z.x.c.x.z.z.z.z.z.p 0 0.t.c.c.c.c.c.c.c.c.c.y.6.t 0 1 # # # # d d p y 6.t.e.t.a y d d d a i a t.k.c.l.t.s y 0 0 0 0 D.D.",
"D.D.0 0 8.t.c.k.8.8.8.8.8.u 0 z.c.c.c.c.c.c.c.c.c.c.7.0 0 0 0 0 0 0 0 0 0 i 8.h.c.c.c.t.8.0 0 0 0 8.e.c.c.c.c.c.y.8.y 0 0 0 D.D.",
"D.D.0 0 8.e.k.t.a a a a a 0 0 h.l.c.c.c.c.c.c.c.x.k.7.0 y p i i i i i y 0 y 8.h.c.c.c.k.y.0 0 i a y.h.x.c.c.c.c.y.8.t 0 0 0 D.D.",
"D.D.0 t 8.8.8.a 0 0 0 0 0 0 0 8.8.c.c.c.c.c.c.x.p.8.p 0 a q.8.8.8.8.8.6.0 i 8.p.c.c.c.c.c.u 0 0.0.c.c.c.c.c.c.c.y.8.y 0 0 0 D.D.",
"D.D.0 0 8.6.p p i p i a p p p p p h.h.h.h.h.p.h.0.p 0 0 a 8.h.h.p.p.8.6.0 a h.l.c.c.c.c.c.u 0 p.k.c.c.c.c.c.c.c.y.8.t 0 0 0 D.D.",
"D.D.0 0 8.8.0 i 8.8.0.8.8.8.8.0 0 8.8.8.8.8.8.8.p 0 0 0 _ 9.x.c.c.x.8.6.0 q.c.c.c.c.c.c.c.u 0 c.c.c.c.c.c.c.c.c.y.8.0 0 0 0 D.D.",
"D.D.u.u.i p a 0.k.k.k.k.k.e.8.0 0 i i i i i i i 0 0 0 0 t i e.p.y.y.y i 0 p u.y.y.k.c.a.p.u 0 p.p.c.c.c.c.c.c.c.y.8.y 0 a a D.D.",
"D.D.c.z.0 y 8.y.c.c.c.c.c.t.8.y 0 0 0 0 0 0 0 0 0 0 0 0 0 0 8.8.8.8.0 0 0 i 8.8.8.k.c.e.8.0 0 8.e.c.c.c.c.c.c.c.y.8.y 0 8.8.D.D.",
"D.D.c.x.0 p z.x.c.c.c.c.c.x.l.8.6.0 0 6.d 6.p 0 i 6.6.6.d 6.i y y y a 8._ a y y t q.t.s i 0 0 0 i t.t.t.t.t.t.t.d y a 6.k.z.D.D.",
"D.D.c.z.0 s c.c.c.c.c.c.c.c.c.0.8.0 t 8.8.8.a 0 a 8.8.8.8.8.0 0 0 0 8.8.7.a 0 0 0 a 8.t 0 0 0 0 y 8.8.8.8.8.8.8.i 0 6.8.x.x.D.D.",
"D.D.c.z.0 t 0.p.c.c.c.c.c.t.e.y 0 8.0.z.k.8.a 0 q.x.x.x.x.x.u 0 6.0.x.x.x.x.x.z.z.9.0 0 0 0 0 8.d 0 t t 0 0 0 y a 8.k.x.c.c.D.D.",
"D.D.c.z.0 y 8.y.c.c.c.c.c.t.8.0 0 8.0.c.z.8.a 0 r.c.c.c.c.c.u 0 8.0.c.c.c.c.c.c.c.7.0 0 0 0 0 8.8.0 0 9 0 0 0 0 a 8.z.c.c.c.D.D.",
"D.D.D.D.D.D.D.D.D.D.D.D.D.D.D.D.D.D.D.D.D.D.D.D.D.D.Z.Z.D.D.D.D.D.D.D.D.D.D.D.D.D.D.D.D.D.D.D.D.D.D.D.D.D.D.D.D.D.D.D.D.D.D.D.D.",
"D.D.D.D.D.D.D.D.D.D.D.D.D.D.D.D.D.D.D.D.D.D.D.D.D.D.Z.Z.D.D.D.D.D.D.D.D.D.D.D.D.D.D.D.D.D.D.D.D.D.D.D.D.D.D.D.D.D.D.D.D.D.D.D.D."
};
