/* XPM */
static char *result[] = {
/* columns rows colors chars-per-pixel */
"64 64 164 2 ",
"   c #2E1E22",
".  c #3B2C30",
"X  c #7A0000",
"o  c #662310",
"O  c #6C3519",
"+  c #403221",
"@  c #483A3E",
"#  c #7A3B3E",
"$  c #534721",
"%  c #5A4B2E",
"&  c #694A2E",
"*  c #714621",
"=  c #784A23",
"-  c #674F33",
";  c #68473D",
":  c #614E3A",
">  c #6E543B",
",  c #785737",
"<  c #7F3F43",
"1  c #5E5845",
"2  c #695742",
"3  c #645947",
"4  c #655D4D",
"5  c #715F49",
"6  c #705654",
"7  c #65614B",
"8  c #6C614F",
"9  c #746047",
"0  c #6B6253",
"q  c #666259",
"w  c #6D6265",
"e  c #6A6A6B",
"r  c #747365",
"t  c #767769",
"y  c #78706D",
"u  c #777A6C",
"i  c #6E6F71",
"p  c #706F72",
"a  c #6F7274",
"s  c #737275",
"d  c #767478",
"f  c #7A767C",
"g  c #767A7C",
"h  c #7A797E",
"j  c #920000",
"k  c #AB0000",
"l  c #B90000",
"z  c #962B14",
"x  c #82391B",
"c  c #AB2B14",
"v  c #C70000",
"b  c #E30000",
"n  c #AE5B00",
"m  c #AB521B",
"M  c #806410",
"N  c #804622",
"B  c #8F4622",
"V  c #814E24",
"C  c #8E4E25",
"Z  c #964A23",
"A  c #9D4E25",
"S  c #895327",
"D  c #93572A",
"F  c #8E563E",
"G  c #A75228",
"H  c #AC5628",
"J  c #AA5B2C",
"K  c #B1572A",
"L  c #B85B2C",
"P  c #A84837",
"I  c #BA5F3B",
"U  c #C05F2D",
"Y  c #CA6330",
"T  c #D46833",
"R  c #8A565B",
"E  c #B45F49",
"W  c #956B47",
"Q  c #9D664D",
"!  c #956852",
"~  c #AE6840",
"^  c #AD704E",
"/  c #B16F52",
"(  c #B77A5E",
")  c #806663",
"_  c #836764",
"`  c #9B7C68",
"'  c #8F7772",
"]  c #937B76",
"[  c #A77A64",
"{  c #CC5F49",
"}  c #C3774C",
"|  c #D16850",
" . c #D57057",
".. c #D57C50",
"X. c #AD8100",
"o. c #B79922",
"O. c #A08A3E",
"+. c #C79D00",
"@. c #D5AA00",
"#. c #D6B300",
"$. c #E3B700",
"%. c #E3BC00",
"&. c #DDA337",
"*. c #E3C100",
"=. c #F1CE00",
"-. c #FFE500",
";. c #988043",
":. c #9D884C",
">. c #B18548",
",. c #B39F43",
"<. c #A0825A",
"1. c #BE825A",
"2. c #A3965A",
"3. c #948071",
"4. c #96907F",
"5. c #CD9F49",
"6. c #CD8A5D",
"7. c #DB875A",
"8. c #E8BA49",
"9. c #C58466",
"0. c #D7906E",
"q. c #D59B6B",
"w. c #E19363",
"e. c #CAC355",
"r. c #7D7980",
"t. c #787988",
"y. c #837E86",
"u. c #7D8186",
"i. c #86848C",
"p. c #868888",
"a. c #838A8C",
"s. c #928A8C",
"d. c #888790",
"f. c #848B91",
"g. c #8A8A93",
"h. c #8C8F99",
"j. c #879197",
"k. c #899391",
"l. c #8E939D",
"z. c #94959B",
"x. c #A38B85",
"c. c #AD968F",
"v. c #A39C9E",
"b. c #B7A099",
"n. c #8F97A0",
"m. c #8E9CA4",
"M. c #929BA5",
"N. c #949EA8",
"B. c #95A2AC",
"V. c #98A7B1",
"C. c #9BADB7",
"Z. c #C29782",
"A. c #E2A780",
"S. c #EBBA8E",
"D. c #EEBE93",
"F. c #F6CFA1",
"G. c #FBD8A8",
"H. c #FFE1AF",
"J. c #D9D9DD",
"K. c #C3D5EF",
"L. c #CBDBFC",
"P. c #E6F7FF",
"I. c #F2FBFF",
"U. c white",
/* pixels */
"U.U.U.U.U.U.U.U.U.U.U.U.U.U.U.U.U.U.U.U.U.U.U.U.U.U.U.U.U.U.U.U.U.U.U.U.U.U.U.U.U.U.U.U.U.U.U.U.U.U.U.U.U.U.U.U.U.U.U.U.U.U.U.U.",
"U.U.U.U.U.U.U.U.U.U.U.U.U.U.U.U.U.U.U.U.U.U.U.U.U.U.U.U.U.U.U.U.U.U.U.U.U.U.U.U.U.U.U.U.U.U.U.U.U.U.U.U.U.U.U.U.U.U.U.U.U.U.U.U.",
"U.U.C.V.y.r.e s y.l.C.l.y.p e y.y.C.C.C.C.C.j.e u.C.C.C.g e y.y.C.C.C.C.C.C.C.C.C.C.C.g e y.y.C.V.y.y.y.f e d y.M.C.C.C.C.C.U.U.",
"U.U.V.B.r.f e s y.j.V.g.y.s e y.i.C.C.C.C.C.l.e f.V.V.C.g e 0 $ C.u $ C.C.C.C.C.C.$ u g $ 0 y.C.V.i.p.y.d e d r.n.V.C.C.C.C.U.U.",
"U.U.y.r.e e e e e d y.s e f y.V.C.C.C.C.C.C.j.e g y.M.k.0 1 4 : u 0 : u k.C.u u u 5 0 4 : 3 0 C.C.C.B.y.f e e e r.y.B.C.C.C.U.U.",
"U.U.y.y.e e p p p d r.a e i.g.V.C.C.C.C.V.B.a.e d i.M.u $ $ : 6 $ : 6 $ r B.$ $ $ ' 9 $ 6 : $ C.C.C.N.y.f e e e f y.n.B.N.B.U.U.",
"U.U.y.y.e p y.y.y.d e e e m.C.C.C.C.C.C.B.y.f e d y.$ : 6 $ : 6 $ : 6 $ $ $ ' 5 $ b._ $ ' 5 $ C.C.C.N.y.f e e e f y.y.y.y.y.U.U.",
"U.U.f f s h h.h.g.i.s e e j.M.V.C.C.C.m.l.f s e i f $ % : $ % : $ % : $ $ $ x.) - b.3.5 _ 2 $ M.M.M.n.y.f e e e d f f f f f U.U.",
"U.U.e e y.d.C.C.C.l.y.s e r.y.V.C.C.V.y.y.e e e e e $ $ $ $ $ $ $ $ $ $ $ $ b.] 6 b.x.' 6 : $ y.y.y.y.y.f e e e e e e e e e U.U.",
"U.U.e i y.d.C.C.C.n.y.s e s d l.l.l.l.y.f e e $ $ $ B B B B B B B B B B * $ b.b.b.' ) 6 $ 4 d d d d d d d d d d e e e e e e U.U.",
"U.U.e e y.g.C.C.C.n.y.s e e e r.y.y.y.y.4 3 1 * = = K K K K G A G V * * & : b.c.x.) 5 : 0 y y.e e e e e p y.y.y.d e e e e e U.U.",
"U.U.e e d h h.l.l.r.s i e e e s s s d s $ $ $ B A K T T T T U H H V $ $ : 6 b.x.' 6 : $ n.p.y.e e f y.l.l.M.M.M.i.f e e e e U.U.",
"U.U.e e e e y.y.y.d e e e e e e e e 1 $ B H T H U T T T T T T T H F 6 ' ' ' 6 : $ $ u C.C.i.y.e e y.g.C.C.C.C.C.h.y.i e e e U.U.",
"U.U.r.f e e s p p d f y.f r.r.h h 1 - * K Y T U L K T T T T Y U A = : 8 5 5 : % $ $ 4 u C.B.B.e e y.i.g.g.g.g.g.i.y.p e d f U.U.",
"U.U.y.y.e e e e e d y.y.y.y.y.y.y.$ * B T T T T K B T T T T U H Z * $ $ $ $ $ $ $ $ $ $ C.C.C.e p y.y.y.y.y.y.y.y.y.i e r.y.U.U.",
"U.U.y.y.e s r.r.y.h.V.V.V.V.V.i.p.$ D T H U T H A B T T T T T T H U T T T T H A B $ $ $ C.d.d.e e e i i i p e i e i e e N.V.U.U.",
"U.U.y.y.e p y.y.y.M.C.C.C.C.C.d.y.$ S U A K U A G K T T T T T T H H J ..7.w.6.~ B $ $ $ C.d.y.e e e e e e e e e e e e e B.C.U.U.",
"U.U.y.y.e e y.h.C.C.C.C.C.C.C.C.C.$ V H B A H B K T T T T T T T H A B 0.q.D.S.1.B $ $ $ y.y.y.e e e e e p y.y.y.y.y.i e y.y.U.U.",
"U.U.r.h e p y.l.C.C.C.C.C.C.C.C.C.$ * B H A B H U T T T T T T T H V $ 0.S.D.B * $ B * $ y.y.r.e e e e e d y.p.i.i.i.d i r.r.U.U.",
"U.U.e e e p y.h.C.C.C.C.C.C.C.C.C.6 > * A A A U Y T T T T T Y U H C * W ^ <.* * * B * $ e e e i.y.e e e p y.n.C.C.C.g.y.e e U.U.",
"U.U.g g e p y.h.C.C.C.C.C.C.C.C.C.y.0 $ B A H T T T T T T T U H H A B $ $ $ $ * B B * $ e e s d.i.e i e s y.l.C.C.C.l.g.i e U.U.",
"U.U.C.V.e p y.h.C.C.C.C.C.C.C.C.C.y.0 $ B B B B * $ $ $ $ $ V H H H H B B B B B B B * $ e y.y.C.V.y.r.e s y.l.C.C.C.C.C.s e U.U.",
"U.U.C.V.u.r.f p.N.M.M.M.M.M.M.M.N.y.0 $ B Z A A ! 4.+ 0 p.= C H H H H A Z B B B B B * $ e d.h.C.C.h.i.d d f j.C.C.C.N.M.i e U.U.",
"U.U.C.C.C.m.e p y.y.y.y.y.y.y.y.y.y.0 $ B A H H Z.J.  t.K.B A H H H H H Z B B B B B * $ e B.C.C.C.C.N.y.f e g.C.C.C.g.y.e e U.U.",
"U.U.l.l.n.g.e e d d d d d d d p f d 4 $ G U T T ( s.  g.P.H U T T Y H H H H B B B B * $ d V.C.l.l.l.l.y.h e r.n.n.n.r.d e e U.U.",
"U.U.y.i.y.r.e e e e e e e e e e e e ; o z I 0.w.[ w . z.I.U Y T Y Y U H H H B B B * - 8 y.V.C.y.y.y.y.y.f e d y.y.y.p e e e U.U.",
"U.U.s s i i e e e p f f f r.r.e e f # X X E D.D.` @ @ v.U.T T T T T T H H H B B B $ 7 s s d.l.s d s s s i e e d p p r.r.f f U.U.",
"U.U.e e e e e e e d y.y.y.y.y.e e X j k b v k H.F.D.H U T T T T T T T J A B B B B $ 0 p e y.y.e e e e e e e e e e e r.y.y.y.U.U.",
"U.U.r.r.r.d e e e d y.l.N.d.y.i e X j k v l k H.G.F.6.} U T T T T Y U A Z B B N * t d.i.f d p y.h r.r.r.r.r.d e d r.n.N.N.B.U.U.",
"U.U.p.y.y.r.e e e d y.M.C.g.y.p e X j k k k k H.H.H.D.6.H T T T T U H B B B B * $ C.C.g.y.e e y.y.y.y.y.y.y.d e f y.N.C.C.C.U.U.",
"L.L.B.V.V.M.y.f e d y.M.C.g.y.e e y.< X X P 0.H.H.H.S.6.H H H H B B B B * $ $ u C.C.C.g.y.i e y.i.V.M.y.f e d y.n.V.C.C.C.C.U.U.",
"L.L.C.C.C.N.y.f e d y.M.C.g.y.i e y.) R R ! W S.S.S.q.6.A A A A B N * * O o u k.C.C.C.g.y.i e y.i.C.B.y.f e d y.M.C.C.C.C.C.U.U.",
"U.U.C.C.C.B.y.f e d y.y.y.y.y.e e y.y.y.d.u $ 0.0.0.0.^ B B B B B * $ $ o X C.C.C.C.C.g.y.i e y.y.t.i.y.f e d y.M.C.C.C.C.C.L.L.",
"U.U.C.C.V.M.y.d e p y.y.y.y.y.p i t.y.y.d.2.X.X X X k k k k k k k j X X o $ C.C.C.C.C.g.y.i e t.y.' y.r.d e d y.M.C.C.C.C.C.L.L.",
"L.L.C.V.y.h e e e e e e e e e y.y.e e p.;.o.#.n m P { |  . .| { c z z z x * u k.C.C.C.g.y.i e e e e e e e e f y.M.C.C.C.C.C.U.U.",
"L.L.B.M.r.f i s p e e e p e p i.g.p s r.X.#.-.$.&.0.D.F.H.H.F.D.H H H H A B $ r B.N.N.p.r.p p f g g g g d p d f l.B.B.B.B.B.U.U.",
"U.U.y.y.e a y.y.y.d e f y.y.y.V.C.y.W X.$.=.-.$.8.D.H.H.H.H.H.H.H U T H H H $ 0 t.y.y.p e y.y.C.C.C.C.C.M.y.d e f y.y.y.y.y.U.U.",
"U.U.f f s r.h.d.y.d e f y.h.h.C.C.h.:.X.@.%.=.$.8.D.H.H.H.H.H.H.= J T U L H $ 4 d t.f p e y.y.M.M.M.M.M.l.y.d e d f f d f f U.U.",
"U.U.e e y.g.C.M.y.d e f y.N.C.C.C.C.2.X.+.@.$.$.8.D.H.H.H.H.H.H.$ D T T U H $ 3 e e e e e ' y.y.i.y.y.y.y.y.d e e e e e e e U.U.",
"U.U.e e y.i.n.i.f d d d.n.V.C.C.C.C.C.z.-.*.+.X.5.D.H.H.H.H.H.H.$ V H T U H $ 1 e e e e e a d d s d d d d d p e p d d d d d U.U.",
"U.U.e e y.y.y.f e d y.M.C.C.C.C.C.C.C.C.e.,.O.M >.q.G.G.H.H.S.q.$ , Q 9./ W + % 3 1 q e e e e e e e e e e e e e f y.y.y.y.y.U.U.",
"U.U.e e d s s p e d y.n.C.C.C.C.C.C.V.l.g.p.f $ W 0.D.G.H.H.q.H $ 5 ] b.] 6 $ $ $ $ 4 d f f f f f f s e p f f f g.M.M.M.p.y.U.U.",
"U.U.e e e e e e e d p.M.C.C.C.C.C.C.V.y.y.y.f e 1 $ 0.A.D.G U T $ 5 ' ' _ 6 $ * B B * $ y.y.y.y.y.y.r.e s y.y.y.M.C.C.C.i.y.U.U.",
"U.U.r.r.r.r.r.h r.d p r.g.V.C.h.l.g.p.s p p e e w 0 W ^ 1.Y Y T V , 5 5 2 : * = B * 5 u B.B.B.B.N.y.f e d y.h.B.C.C.C.C.d p U.U.",
"U.U.y.y.y.y.y.y.y.d e f y.N.C.d.y.y.y.e e e e e d y.$ * B T T T H V $ $ $ $ B B B $ u C.C.C.C.C.V.y.r.e d y.n.C.C.C.C.C.s e U.U.",
"U.U.y.d.V.V.V.V.V.l.y.s p y.i.p e e p y.y.y.y.h f e $ * B T T T H A B $ $ $ $ $ $ r.d.B.C.C.C.C.C.V.M.y.f e f i.N.C.C.C.a e U.U.",
"U.U.y.i.C.C.C.C.C.l.y.d e f y.e e e e y.y.y.y.y.d e 4 > * / ( 9.F = = u u r 0 4 3 f y.B.C.C.C.C.C.C.N.y.f e d y.M.C.C.C.a e U.U.",
"U.U.C.C.C.C.C.C.C.C.C.h.y.p e y.y.y.d.C.C.C.C.V.l.y.d 1 $ ' x.b.6 : $ C.C.N.y.d e e e h y.V.C.C.V.y.r.e s y.d e f y.y.y.e e U.U.",
"U.U.V.V.C.C.C.C.C.C.C.l.i.i e y.y.y.g.C.C.C.C.C.M.y.r.3 $ ] ' ' 6 : $ V.V.n.y.d e p e f y.N.V.V.B.r.r.e f i.f e f y.r.y.e e U.U.",
"U.U.y.i.C.C.C.C.C.C.C.C.C.r.e y.y.C.C.C.C.C.C.C.C.C.h.y 3 5 5 5 : 3 0 y.y.f e d y.y.y.p e y.y.y.y.e p y.h.C.n.y.s e e e e e U.U.",
"U.U.r.y.B.B.C.C.B.B.B.B.B.d e i.g.C.C.C.C.C.C.C.C.C.h.r.e $ $ $ $ 0 h r.r.d p r.g.g.g.f i r.h h f s f d.n.C.M.g.g p e e e e U.U.",
"U.U.e e y.d.C.M.y.y.y.y.y.i e B.C.C.C.C.C.C.C.C.C.C.t.e e e e e e e e e e s y.n.C.C.C.g.y.e e e e y.g.C.C.C.C.C.h.y.p e e e U.U.",
"U.U.e e y.d.M.g.f f f f f e e l.M.C.C.C.C.C.C.C.V.M.r.e p s d p s d s e e s y.l.C.C.C.M.h.i e s f h.n.C.C.C.C.C.h.y.i e e e U.U.",
"U.U.e i y.y.y.f e e e e e e e u.y.C.C.C.C.C.C.C.n.y.p e r.y.y.y.y.y.y.y.e d y.l.C.C.C.C.C.a e y.i.C.C.C.C.C.C.C.h.y.p e e e U.U.",
"U.U.e e y.r.d d d d d d d f d d d n.l.n.n.n.n.n.a.d i e r.y.l.n.l.l.y.f e h n.N.C.C.C.C.C.a e l.M.C.C.C.C.C.C.C.h.y.i e e e U.U.",
"U.U.e e y.y.e s y.y.y.y.y.y.y.e e y.y.y.y.y.y.y.d e e e r.y.V.C.C.V.y.r.e u.C.C.C.C.C.C.C.s e C.C.C.C.C.C.C.C.C.h.y.e e e e U.U.",
"U.U.j.j.s d f i.M.M.M.M.M.d.y.e e p p d p d p s e e e e e s g.h.h.h.p p e d l.h.h.N.C.n.h.i e h.n.C.C.C.C.C.C.C.h.y.p e f f U.U.",
"U.U.C.B.e p y.h.C.C.C.C.C.g.y.p e e e e e e e e e e e e e e y.y.y.y.e e e s y.y.p.M.C.g.y.i e y.d.C.C.C.C.C.C.C.l.y.p e y.y.U.U.",
"U.U.C.V.e d N.V.C.C.C.C.C.B.B.y.r.e e r.r.r.d e d f y.h r.r.d i p p h y.f f p p a r.g.d p e e i d g.g.g.g.g.g.g.f p f r.M.N.U.U.",
"U.U.C.B.e g C.C.C.C.C.C.C.C.C.i.y.e i y.y.y.f e f y.y.y.y.y.e e e e y.y.y.f e e e d i.a e e e e e y.y.y.y.y.y.y.s e r.y.V.C.U.U.",
"U.U.C.B.e i d.l.C.C.C.C.C.h.i.p e y.i.V.M.y.f e a.V.V.V.V.V.a e r.p.V.V.V.V.B.B.B.u.e e e e e y.y.e e i e e p e h r.M.V.C.C.U.U.",
"U.U.C.B.e p y.h.C.C.C.C.C.g.y.e e y.p.C.N.y.f e a.C.C.C.C.C.a e y.i.C.C.C.C.C.C.V.u.e e e e e y.y.e e w e e e e h y.B.C.C.C.U.U.",
"U.U.U.U.U.U.U.U.U.U.U.U.U.U.U.U.U.U.U.U.U.U.U.U.U.U.L.L.U.U.U.U.U.U.U.U.U.U.U.U.U.U.U.U.U.U.U.U.U.U.U.U.U.U.U.U.U.U.U.U.U.U.U.U.",
"U.U.U.U.U.U.U.U.U.U.U.U.U.U.U.U.U.U.U.U.U.U.U.U.U.U.L.L.U.U.U.U.U.U.U.U.U.U.U.U.U.U.U.U.U.U.U.U.U.U.U.U.U.U.U.U.U.U.U.U.U.U.U.U."
};
