/* XPM */
static char *result[] = {
/* columns rows colors chars-per-pixel */
"64 64 228 2 ",
"   c #7A0000",
".  c #662310",
"X  c #752311",
"o  c #7D2712",
"O  c #534721",
"+  c #5A4B2E",
"@  c #5A5135",
"#  c #5F553A",
"$  c #624721",
"%  c #694A2E",
"&  c #714621",
"*  c #784A23",
"=  c #704E2F",
"-  c #674F33",
";  c #614E3A",
":  c #6C5339",
">  c #6E543B",
",  c #715335",
"<  c #5E5845",
"1  c #605340",
"2  c #695742",
"3  c #605A47",
"4  c #665847",
"5  c #615B49",
"6  c #625B49",
"7  c #635C4B",
"8  c #655D4D",
"9  c #665F4E",
"0  c #715F49",
"q  c #705654",
"w  c #64614F",
"e  c #73614C",
"r  c #686050",
"t  c #6A6152",
"y  c #6B6254",
"u  c #6B6455",
"i  c #6B6656",
"p  c #6D6557",
"a  c #636158",
"s  c #656359",
"d  c #6A665F",
"f  c #6E685A",
"g  c #716651",
"h  c #736958",
"j  c #746C5B",
"k  c #706B5D",
"l  c #6E6863",
"z  c #696A6A",
"x  c #6A6B6C",
"c  c #6B6B6C",
"v  c #6A6C6C",
"b  c #6C6C6E",
"n  c #6D6C6E",
"m  c #6E6E6F",
"M  c #716B66",
"N  c #726D68",
"B  c #766F6C",
"V  c #737163",
"C  c #747466",
"Z  c #767769",
"A  c #78706D",
"S  c #777A6C",
"D  c #6D6F71",
"F  c #6E6E70",
"G  c #6F6F71",
"H  c #706F71",
"J  c #706F72",
"K  c #6F7274",
"L  c #717073",
"P  c #717173",
"I  c #727073",
"U  c #737175",
"Y  c #737274",
"T  c #737275",
"R  c #737376",
"E  c #747376",
"W  c #757277",
"Q  c #757377",
"!  c #767478",
"~  c #777479",
"^  c #76767A",
"/  c #76777B",
"(  c #78757A",
")  c #78767A",
"_  c #7A767C",
"`  c #7A777C",
"'  c #7A767D",
"]  c #74787A",
"[  c #75787A",
"{  c #74787B",
"}  c #76787A",
"|  c #767B7D",
" . c #79787D",
".. c #7A787D",
"X. c #787B7D",
"o. c #7B787E",
"O. c #797A7E",
"+. c #797B7E",
"@. c #7C787E",
"#. c #920000",
"$. c #AB0000",
"%. c #842311",
"&. c #912311",
"*. c #9D2311",
"=. c #932B14",
"-. c #983C1C",
";. c #804622",
":. c #8F4622",
">. c #874A23",
",. c #804E24",
"<. c #824F26",
"1. c #964A23",
"2. c #9D4E25",
"3. c #93572A",
"4. c #804E3B",
"5. c #875637",
"6. c #8E563E",
"7. c #A55226",
"8. c #A75228",
"9. c #AC5628",
"0. c #AF5629",
"q. c #B1572A",
"w. c #B65A2B",
"e. c #B95B2C",
"r. c #C05F2D",
"t. c #CA6330",
"y. c #D46833",
"u. c #8F5E4A",
"i. c #985F47",
"p. c #9D664D",
"a. c #85735D",
"s. c #A76B50",
"d. c #AA6D52",
"f. c #B16F52",
"g. c #AA7158",
"h. c #806663",
"j. c #826D60",
"k. c #8C776A",
"l. c #8F7772",
"z. c #917974",
"x. c #937B76",
"c. c #948071",
"v. c #C58466",
"b. c #7D7980",
"n. c #7C7A81",
"m. c #797E80",
"M. c #797E81",
"N. c #7C7C82",
"B. c #7D7D82",
"V. c #7E7F85",
"C. c #807C83",
"Z. c #817C83",
"A. c #807D84",
"S. c #807E86",
"D. c #807F86",
"F. c #847E87",
"G. c #7A8083",
"H. c #7C8084",
"J. c #7F8087",
"K. c #7C8386",
"L. c #7C8387",
"P. c #838189",
"I. c #838289",
"U. c #83838A",
"Y. c #85818A",
"T. c #83858B",
"R. c #86838D",
"E. c #83848C",
"W. c #83858C",
"Q. c #85848C",
"!. c #87848D",
"~. c #87868E",
"^. c #86878F",
"/. c #81888D",
"(. c #81898D",
"). c #888790",
"_. c #828B90",
"`. c #838B91",
"'. c #868990",
"]. c #868991",
"[. c #868A92",
"{. c #898993",
"}. c #8A8A93",
"|. c #8A8B94",
" X c #898D95",
".X c #8A8C94",
"XX c #8B8C96",
"oX c #8B8D96",
"OX c #8C8F99",
"+X c #879197",
"@X c #899391",
"#X c #8A9299",
"$X c #88939A",
"%X c #8D9099",
"&X c #8C919A",
"*X c #8C939B",
"=X c #88949A",
"-X c #8E929C",
";X c #8E939C",
":X c #8C969D",
">X c #8F959F",
",X c #8E969E",
"<X c #90969F",
"1X c #A38B85",
"2X c #B7A099",
"3X c #8F97A0",
"4X c #8E9CA4",
"5X c #9098A2",
"6X c #9198A2",
"7X c #929BA5",
"8X c #909CA4",
"9X c #929DA6",
"0X c #929FA7",
"qX c #939EA8",
"wX c #949EA8",
"eX c #95A1AB",
"rX c #94A5AD",
"tX c #95A5AD",
"yX c #97A4AE",
"uX c #97A5AF",
"iX c #97A6AF",
"pX c #98A7B1",
"aX c #98A9B2",
"sX c #99AAB4",
"dX c #9AAAB4",
"fX c #9BADB7",
"gX c #CBDBFC",
"hX c white",
/* pixels */
"hXhXhXhXhXhXhXhXhXhXhXhXhXhXhXhXhXhXhXhXhXhXhXhXhXhXhXhXhXhXhXhXhXhXhXhXhXhXhXhXhXhXhXhXhXhXhXhXhXhXhXhXhXhXhXhXhXhXhXhXhXhXhXhX",
"hXhXhXhXhXhXhXhXhXhXhXhXhXhXhXhXhXhXhXhXhXhXhXhXhXhXhXhXhXhXhXhXhXhXhXhXhXhXhXhXhXhXhXhXhXhXhXhXhXhXhXhXhXhXhXhXhXhXhXhXhXhXhXhX",
"hXhXfXpXF.b.z Y F.>XfXOXF.J z Z.F.fXfXfXfXfX$Xz _.fXfXfX| z Z.F.fXfXfXfXfXfXfXfXfXfXfX| z Z.F.fXpXF.F.F._ z ! F.7XfXfXfXfXfXhXhX",
"hXhXpXeXC.o.z I C.&XpXO t T O p R.fXfXfXfXfX$Xz (.pXsXfX| z P.R.fXfXfXfXfXfXfXfXfXsXpX| z Z.F.O C R.O y _ z W C.3XpXfXfXfXfXhXhX",
"hXhXF.Z.z z z z z d y ; 1 r 0 j S S @XfXfXfX$Xz ! F.7XfX| z tXfXfXfXfXfXfXfXfXfXfXOXF.J < t y 0 j S ; 4 9 z z z ` F.eXfXfXfXhXhX",
"hXhXF.Z.z c J J J 6 O q ; O l.0 O O S fXsXeX`.z ! F.7XfX| z 8XeXfXfXfXsXeXeXeXeXeX}.F.J O O O l.0 O q ; O z z z ` F.5XeXeXeXhXhX",
"hXhXF.Z.z H F.F.F.y O 2Xa.O 2Xa.O l.0 O eXF._ z ! F.7XfX| z Z.F.fXfXfXeXF.F.F.F.F.F.y O l.0 O 2Xa.O 2Xa.O z z z ` F.F.F.F.F.hXhX",
"hXhX' ' T O.OXOXOXk O 2Xc.0 2Xk.; 0 h f *X' U z L ' V S w < t y S S S C N ' ' ' ' ' l 3 0 2 ; 2Xc.0 2Xa.O z z z U ' ' ' ' ' hXhX",
"hXhXz b F.{.fXfXfXS O 2X1Xl.2Xx.q O C F.b.z z z z z O O O O O O O O O O < z z z z z z z O ; q 2X1Xl.2Xa.O z z z z z z z z z hXhX",
"hXhXz b F.{.fXfXfX>XF.O a.2Xl.1X2XO O O b.z z O O O :.:.:.:.:.:.:.:.:.:.& O O 8 ! ! 8 O O a.2Xl.1X2XO 8 ! ! ! ! m z z z z z hXhX",
"hXhXz b F.{.fXfXfX>XF.7 g a.h.z.1Xa.e ; r < < & & & 2.8.q.q.q.q.q.q.q.2.>.& & > y y 4 ; a.c.1Xh.j.a.< a Y F.F.F.T z z z z z hXhX",
"hXhXz c T  .%X%X%XJ.T b < O q h.l.2Xx.q O O O :.:.:.9.r.y.y.y.y.y.y.y.9.2.:.:.& O O ; q 2X1Xl.q ; O V.=X:X7X7X7XE.' b z z z hXhX",
"hXhXz z z H F.F.F.! z z z z O O O q ; O :.:.:.9.9.9.y.y.y.y.y.y.y.y.y.y.r.9.9.2.:.:.& O q ; O O 5 F.{.fXfXfXfXfXOXF.J z z z hXhX",
"hXhXb.o.z c H H H ! b.b.M 8 O O O ; + O :.1.2.9.w.r.y.y.y.y.y.y.y.y.y.y.t.r.9.7.2.:.& O ; + O O @ y Y.}.}.}.}.}.Y.F.J z ' b.hXhX",
"hXhXF.Z.z z z z z ! F.F.y O O O O O O O :.2.9.9.r.y.y.y.y.y.y.y.y.y.y.y.y.y.9.9.9.:.& O O O O O O O F.F.F.F.F.F.F.F.J z Z.F.hXhX",
"hXhXF.Z.z H C.C.C.&XpXO & :.y.y.y.9.2.:.:.2.9.9.r.y.y.y.y.y.y.y.y.y.y.y.y.y.9.9.9.:.:.:.9.r.y.y.q.:.O 3 n n n n n n x z 0XpXhXhX",
"hXhXF.Z.z H F.F.F.>XfXO & :.r.t.y.r.0.2.:.2.9.9.r.y.y.y.y.y.y.y.y.y.y.y.y.y.9.9.9.:.1.2.r.t.y.r.8.:.O < z z z z z z z z tXfXhXhX",
"hXhXF.Z.z H F.OXfXfXfXO & :.9.r.y.y.r.9.:.2.9.9.r.y.y.y.y.y.y.y.y.y.y.y.y.y.9.9.9.:.2.9.y.y.y.9.2.:.O < Y F.F.F.F.F.J z Z.F.hXhX",
"hXhXC.b.z H F.OXfXfXfXfXS O :.2.9.9.2.:.:.2.9.9.r.y.y.y.y.y.y.y.y.y.y.y.y.y.9.9.9.:.:.:.9.9.9.:.& O z z Y F.Y.R.R.R.T n b.C.hXhX",
"hXhXz z z H F.OXfXfXfXfX@XS & * ,.,.* & :.2.9.9.w.r.y.y.y.y.y.y.y.y.y.y.t.r.9.9.9.:.;.& ,.,.,.& : < z z Y F.>XfXfXfX}.F.n z hXhX",
"hXhX| | z H F.OXfXfXfXfXfXfXO O O O O O :.2.9.9.9.9.y.y.y.y.y.y.y.y.y.y.r.9.9.9.9.:.& O O O O O i J m z Y F.>XfXfXfX-X{.D z hXhX",
"hXhXfXtXz H F.OXfXfXfXfXfXfXfXfXfXO & :.:.:.:.9.9.9.9.r.y.9.r.y.9.r.y.9.9.9.9.2.:.:.:.:.O y F.fXpXF.b.z Y F.>XfXfXfXfXfXK z hXhX",
"hXhXfXaXK.m.' T.7X7X7X7X7X7X7X7X7XO & :.:.:.:.9.9.9.9.w.r.9.w.r.9.w.r.9.9.9.9.2.:.:.:.:.O k OXfXdXOX^.T ! ' #XfXfXfXwX7XD z hXhX",
"hXhXfXfXfX4Xz Y F.F.F.F.F.F.F.F.F.O & :.:.:.:.9.9.9.9.9.9.9.9.9.9.9.9.9.9.9.9.2.:.:.:.:.O S fXfXfXfXeXF._ z _.fXfXfX}.F.n z hXhX",
"hXhX>X>X>X[.z F ! ! ! ! ! ! ! ! ! ! 8 O :.:.:.:.2.9.9.9.9.9.9.9.9.9.9.9.9.9.:.:.:.:.& O ! uXfX>X>X>X%XF._ z H.>X>X>XN.! v z hXhX",
"hXhXF.F.F.b.z z z z z z z z z z z z < O :.:.:.:.1.2.9.7.2.9.9.9.9.7.2.9.7.2.:.:.:.:.& O F.pXfXF.F.F.F.F._ z ! F.F.F.J z z z hXhX",
"hXhXT T T P z z z P ' ' ' ' ' v z ' 9 O :.:.:.:.:.:.9.2.:.9.9.9.9.2.:.9.2.:.:.:.:.:.& O T |.%XT T T T T H z F T T T ' ' ' ' hXhX",
"hXhXz z z z z z z ! F.F.F.F.F.n z F.!.fXO & :.:.:.:.:.:.:.9.2.:.9.2.:.:.:.:.:.:.:.O y J z Z.F.z z z z z z z z z z z b.F.F.F.hXhX",
"hXhXb.b.b.( z z z ! F.-XeX).F.n z F.Y.}.O $ & :.:.:.:.:.:.2.1.:.2.1.:.:.:.:.:.;.& O C U.b.T H b.b.b.b.b.b.b.T z Q b.3XeXeXeXhXhX",
"hXhXF.F.F.b.z z z ! F.7XfX}.F.n z F.F.F.O O O :.:.:.:.:.:.:.:.:.:.:.:.:.:.:.:.& O O S }.F.n z F.F.F.F.F.F.F.! z ` F.eXfXfXfXhXhX",
"gXgXpXpXpX7XC.) z ! F.7XfX}.F.n z F.y O :.%.  O & :.:.:.:.:.:.:.:.:.:.:.:.:.O .   :.& O F.n z F.!.pX7XF.o.n ! C.3XpXsXfXfXfXhXhX",
"gXgXfXfXfXeXF._ z ! F.7XfX}.F.n z y > & 2.-.=.. X %.*.*.*.*.*.*.*.*.*.*.&.%.. o =.2.>.& y s z F.!.fXeXF._ z ! F.7XfXfXfXfXfXhXhX",
"hXhXfXfXfXeXF._ z ! F.F.F.F.F.n z O & :.9.9.9.      $.$.$.$.$.$.$.$.$.$.#.    =.9.9.2.:.O < z F.F.F.F.F._ z ! F.7XfXfXfXfXfXgXgX",
"hXhXfXfXpX9XC.( z W C.C.C.C.C.7 O :.q.y.9.2.:.:.:.:.9.9.9.9.9.9.9.9.9.9.2.:.:.:.:.9.r.y.:.& O C.C.C.C.C.( z ! F.7XfXfXfXfXfXgXgX",
"gXgXfXpXF.b.z z z z z z z z z r O q.e.r.2.>.& :.1.2.9.w.r.r.r.r.r.r.r.9.7.2.:.;.& 2.0.r.q.<.O z z z z z z z ! F.7XfXfXfXfXfXhXhX",
"gXgXeX7Xb.' J J J n z n J J J u O y.r.9.:.& O :.2.9.9.r.y.y.y.y.y.y.y.9.9.9.:.& O :.2.9.y.3.O | | | | | ] J ! b.*XeXeXeXeXeXhXhX",
"hXhXF.Z.z H F.F.F.! z ` F.F.O & :.y.r.9.O O O :.2.9.y.y.y.y.y.y.y.y.y.y.r.9.:.& O O ,.9.y.q.:.O S fXfXfX7XF.! z ` F.F.F.F.F.hXhX",
"hXhX' ' T O.OX}.F.! z ` F.XXO , u.v.d.6.O O O :.2.9.y.y.y.r.t.y.r.t.y.y.r.9.:.& O O = 6.v.g.u.O V 7X7X7X%XF.! z U ' ' ' ' ' hXhX",
"hXhXz b F.{.fX7XF.! z ` F.eXO 0 l.2Xx.q O O O :.2.9.y.y.y.9.r.y.9.r.y.y.r.9.:.& O O ; q 2X1Xl.O y F.F.F.F.F.! z z z z z z z hXhX",
"hXhXz b F.!.>X'.! ! ! ].>XpXO 0 l.l.h.q O O O :.2.9.y.q.:.y.y.y.y.q.:.y.r.9.:.& O O ; q l.l.l.O 8 ! ! ! ! ! H z I ! ! ! ! ! hXhX",
"hXhXz b F.F.F._ z ! F.7XfXfXS j 0 0 2 ; C # O :.2.9.r.8.:.y.y.y.y.q.:.r.w.9.:.& O < 1 ; 0 0 0 < a z z z z z z z ` F.F.F.F.F.hXhX",
"hXhXz c T T T H z ! F.7XfXfXfXS O O O O oXy O :.2.9.9.2.:.y.y.y.y.q.:.9.9.9.:.& O T 9 O O O O ' ' ' E z H ' ' '  X7X7X7XY.F.hXhX",
"hXhXz z z z z z z ! F.7XfXfXfXfXfXfXpXF.F.y O 9.9.9.:.:.:.9.r.y.9.2.:.:.2.9.9.,.O ` F.F.F.F.F.F.F.F.b.z Y F.F.F.7XfXfXfX!.F.hXhX",
"hXhXb.b.b.b.b.b.b.! H J.}.yXfX%X}.}.~.H H 5 O 9.9.9.2.>.& 2.0.r.2.>.& 2.7.9.9.,.O &XeXeXeXeXeXeXwXF.b.z Y F.OXeXsXfXfXfX/ H hXhX",
"hXhXF.F.F.F.F.F.F.! z ` F.eXfX!.F.F.Z.z z < O 9.9.9.9.,.O :.2.9.:.& O 9.9.9.9.,.O 7XfXfXfXfXfXfXpXF.b.z Y F.>XfXfXfXfXfXK z hXhX",
"hXhXF.!.pXpXpXpXpX&XC.T n A.!.J n n H C.C.t O :.2.9.y.q.:.O & :.O & :.y.r.9.:.& O n.!.yXfXfXfXfXfXpX7XC._ n  .!.qXfXfXfXK z hXhX",
"hXhXF.!.fXfXfXfXfX>XF.T z b.F.n z z b F.F.A y & 5.p.f.i.4.O $ & O % 4.f.s.p.& - < ` F.eXfXfXfXfXfXfXeXF._ z ! F.7XfXfXfXK z hXhX",
"hXhXfXfXfXfXfXfXfXfXfXOXF.J z Z.F.F.!.fXfXfXfXO 0 l.l.h.q O O O O ; q l.l.l.O < z z z b.F.pXfXfXpXF.b.z Y F.! z ` F.F.F.n z hXhX",
"hXhXpXpXfXfXfXfXfXfXfX-XR.J z Z.F.R.{.fXfXfXfXO 0 l.l.h.q O Z pXO ; q l.l.l.O 3 n n n ` C.eXpXpXeXC.b.n ^ R...n ` C.C.C.n z hXhX",
"hXhXF.!.fXfXfXfXfXfXfXfXfX| z Z.F.fXfXfXfXfXfXS j 0 0 2 ; < B F.y 4 ; 0 0 0 < M F.F.F.J z Z.F.F.Z.z H F.OXfX>XF.T z z z z z hXhX",
"hXhXb.D.eXyXfXsXeXeXeXeXeX{ z Q.{.fXfXfXfXfXfXfXS O O O O z @.b.b.r O O O O J B.{.{.{.^ J b.b.b.' J ^ {.6XfX7X{.+.J v z z z hXhX",
"hXhXz b F.{.fX7XF.F.F.F.F.J z tXfXfXfXfXfXfXfXfXfXfXL.z z z z z z z z z z Y F.>XfXfXfX}.F.n z z b F.{.fXfXfXfXfXOXF.J z z z hXhX",
"hXhXz b F.!.7X X' ' ' ' ' m z ,X7XfXfXfXfXfXfXfXyX7XM.z I T T T T T T H z Y F.>XfXfXfX6XOXD z T ^ OX>XfXfXfXfXfXOXF.J z z z hXhX",
"hXhXz b F.F.F._ z z z z z z z Z.F.fXfXfXfXfXfXfX>XF.T z b.F.F.F.F.F.F.b.z Y F.>XfXfXfXfXfXK z F.!.fXfXfXfXfXfXfXOXF.J z z z hXhX",
"hXhXz b F.C.! ! ! ! ! ! ! ! ! ! ! >X>X>X>X>X>X>XW.! m z b.F.-X>X>X-XF.b.z X.>XeXfXfXfXfXfXK z >X6XfXfXfXfXfXfXfXOXF.J z z z hXhX",
"hXhXz b F.b.z Y F.F.F.F.F.F.F.n z F.F.F.F.F.F.F.! z z z b.F.pXfXfXpXF.b.z K.fXfXfXfXfXfXfXK z fXfXfXfXfXfXfXfXfXOXF.J z z z hXhX",
"hXhX=X+XT ! ' T.7X7X7X7X7X!.F.n z T T T T T T T F z z z G T |.%X%X.XT P z } %X%X%XeXfX<X%XD z %X;XfXfXfXfXfXfXfXOXF.J z ) ' hXhX",
"hXhXfXtXz H F.OXfXfXfXfXfX}.F.n z z z z z z z z z z z z z z Z.F.F.Z.z z z Y F.F.F.7XfX}.F.n z F.!.fXfXfXfXfXfXfXOXF.J z Z.F.hXhX",
"hXhXfXtXz [ eXpXfXfXfXfXfXyXeXS.b.z c b.b.b.~ z T b.b.b.b.b.T H H H b.b.b._ H H H J.}.^ H z z H R }.}.}.}.}.}.}. .H ' b.7XeXhXhX",
"hXhXfXtXz | fXfXfXfXfXfXfXfXfX!.F.z b F.F.F._ z ! F.F.F.F.F.n z z b F.F.F._ z z z ` F.J z z z z b F.F.F.F.F.F.F.T z b.F.pXfXhXhX",
"hXhXfXtXz H !.-XfXfXfXfXfXoX!.J n C.I.pX7XF._ z /.pXpXpXpXpXK z C.I.pXpXpXiXrXrXrXG.n x z z z C.b.n n n n n n n ` C.9XpXfXfXhXhX",
"hXhXfXtXz H F.OXfXfXfXfXfX}.F.n z F.!.fXeXF._ z _.fXfXfXfXfXK z F.!.fXfXfXfXfXfXfXL.z z z z z F.Z.z z z z z z z ` F.eXfXfXfXhXhX",
"hXhXhXhXhXhXhXhXhXhXhXhXhXhXhXhXhXhXhXhXhXhXhXhXhXhXgXgXhXhXhXhXhXhXhXhXhXhXhXhXhXhXhXhXhXhXhXhXhXhXhXhXhXhXhXhXhXhXhXhXhXhXhXhX",
"hXhXhXhXhXhXhXhXhXhXhXhXhXhXhXhXhXhXhXhXhXhXhXhXhXhXgXgXhXhXhXhXhXhXhXhXhXhXhXhXhXhXhXhXhXhXhXhXhXhXhXhXhXhXhXhXhXhXhXhXhXhXhXhX"
};
