/* XPM */
static char *result[] = {
/* columns rows colors chars-per-pixel */
"64 64 166 2 ",
"   c #2E1E22",
".  c #3B2C30",
"X  c #7A0000",
"o  c #662310",
"O  c #752311",
"+  c #403221",
"@  c #483A3E",
"#  c #534721",
"$  c #5A4B2E",
"%  c #5A5135",
"&  c #664928",
"*  c #714621",
"=  c #774A2A",
"-  c #674F33",
";  c #614E3A",
":  c #6E543B",
">  c #735635",
",  c #54474A",
"<  c #5E5845",
"1  c #605340",
"2  c #695742",
"3  c #665947",
"4  c #655E4D",
"5  c #695D49",
"6  c #785642",
"7  c #715F49",
"8  c #605457",
"9  c #705654",
"0  c #67614F",
"q  c #73614C",
"w  c #6B6254",
"e  c #636158",
"r  c #6B6759",
"t  c #7B6756",
"y  c #726B5B",
"u  c #6D6464",
"i  c #6A6A6B",
"p  c #746E69",
"a  c #747466",
"s  c #767769",
"d  c #78706D",
"f  c #777A6C",
"g  c #6E6F71",
"h  c #706F71",
"j  c #6F7274",
"k  c #737275",
"l  c #7B7474",
"z  c #767478",
"x  c #7A767C",
"c  c #767A7C",
"v  c #7A797D",
"b  c #920000",
"n  c #AB0000",
"m  c #B90000",
"M  c #842311",
"N  c #8A3419",
"B  c #A73419",
"V  c #C70000",
"C  c #E30000",
"Z  c #804622",
"A  c #8F4622",
"S  c #824D24",
"D  c #964A23",
"F  c #9D4E25",
"G  c #8E4E30",
"H  c #804E3B",
"J  c #8E563E",
"K  c #955C38",
"L  c #A65227",
"P  c #AC5628",
"I  c #B1572A",
"U  c #B65A2B",
"Y  c #A84837",
"T  c #BA5F3B",
"R  c #8D663F",
"E  c #C75B00",
"W  c #CA5D25",
"Q  c #C05F2D",
"!  c #CA6330",
"~  c #D46833",
"^  c #8F5E4A",
"/  c #B45F49",
"(  c #8F674C",
")  c #956B47",
"_  c #98644E",
"`  c #85735D",
"'  c #9D7456",
"]  c #B46C45",
"[  c #A86E51",
"{  c #B36D51",
"}  c #B87258",
"|  c #806663",
" . c #8C7B67",
".. c #9C7965",
"X. c #8F7772",
"o. c #937B76",
"O. c #B17B60",
"+. c #C85F49",
"@. c #C5744A",
"#. c #C5775C",
"$. c #D57C50",
"%. c #AD8100",
"&. c #BA8F00",
"*. c #C59A00",
"=. c #C89C00",
"-. c #DC9500",
";. c #CFAA00",
":. c #E3B700",
">. c #EECD00",
",. c #F1CE00",
"<. c #FFE500",
"1. c #A0825A",
"2. c #B7865C",
"3. c #8E8876",
"4. c #948071",
"5. c #AC8877",
"6. c #CD8A5D",
"7. c #D6895D",
"8. c #D6B157",
"9. c #E6BC50",
"0. c #C78365",
"q. c #D7906E",
"w. c #E19363",
"e. c #E2AD7F",
"r. c #F1CC57",
"t. c #7D7980",
"y. c #787988",
"u. c #837E86",
"i. c #7D8186",
"p. c #86848C",
"a. c #82898B",
"s. c #878A88",
"d. c #928A8C",
"f. c #888790",
"g. c #848A91",
"h. c #8A8A93",
"j. c #8C8F99",
"k. c #889293",
"l. c #8E939D",
"z. c #94959B",
"x. c #A38B85",
"c. c #A98D88",
"v. c #A39C9E",
"b. c #B7A099",
"n. c #8F97A0",
"m. c #8E9CA4",
"M. c #929BA5",
"N. c #949EA8",
"B. c #95A2AC",
"V. c #98A7B1",
"C. c #9BADB7",
"Z. c #CCA793",
"A. c #D5AA93",
"S. c #E2A780",
"D. c #EBB88E",
"F. c #EEBE93",
"G. c #EAC983",
"H. c #F6CFA1",
"J. c #FBD8A8",
"K. c #FFE1AF",
"L. c #CACACC",
"P. c #C3D5EF",
"I. c #CBDBFC",
"U. c #E6F7FF",
"Y. c #F2FBFF",
"T. c white",
/* pixels */
"T.T.T.T.T.T.T.T.T.T.T.T.T.T.T.T.T.T.T.T.T.T.T.T.T.T.T.T.T.T.T.T.T.T.T.T.T.T.T.T.T.T.T.T.T.T.T.T.T.T.T.T.T.T.T.T.T.T.T.T.T.T.T.T.",
"T.T.T.T.T.T.T.T.T.T.T.T.T.T.T.T.T.T.T.T.T.T.T.T.T.T.T.T.T.T.T.T.T.T.T.T.T.T.T.T.T.T.T.T.T.T.T.T.T.T.T.T.T.T.T.T.T.T.T.T.T.T.T.T.",
"T.T.C.V.u.t.i k u.l.C.l.u.k i t.p.V.C.C.C.C.l.i i.C.C.C.c i u.u.V.C.C.C.C.C.C.C.C.C.C.c i t.u.C.V.u.u.u.x i z u.M.C.C.C.C.C.T.T.",
"T.T.V.B.t.x i k u.l.B.h.w # i w # C.C.C.C.C.k.i g.V.V.C.c i p.p.C.C.C.C.C.C.C.C.C.C.V.c i u.u.C.f # p.w # i k t.n.V.C.C.C.C.T.T.",
"T.T.u.t.i i i i i z u.3 1 ; w y 7 f f f C.C.j.i c p.M.C.c i B.C.C.C.C.C.C.C.C.C.C.l.u.h i p w f y 7 p 3 ; < e i x u.B.C.C.C.T.T.",
"T.T.u.u.i i h h j z t.# ; 9 # 7 X.# # # V.B.g.i z u.M.C.c i m.B.C.C.C.V.B.B.B.B.B.h.u.h i w # # 7 X.# ; 9 # < i x u.M.B.N.B.T.T.",
"T.T.u.u.i h u.u.u.z i # 7 X.# ` b.# 7 X.# w x i z u.M.C.c i t.p.C.C.C.B.u.u.u.u.u.u.u.k # 7 X.# ` b.# 7 X.# < i x u.u.u.u.u.T.T.",
"T.T.x x k v j.j.j.i.k # 2 | 7 4.b.; 2 7 w i h i j x h.a.0 < w w f f f a w w x x x x x i < 3 7 ;  .b.7 t | # < i k x x x x x T.T.",
"T.T.i g u.h.C.C.C.l.u.# ; 9 X.x.b.9 ; # x i i i i i x w # # # # # # # # # # i i i i i i i < # 9 o.b.X.| 9 # 1 i i i i i i i T.T.",
"T.T.i i u.f.C.C.C.n.u.k < # 9 | X.b. .# # < i i < # # * A A A A A A A A A A # # # z z k # # # b.x.X.9 ; # z z z i i i i i i T.T.",
"T.T.i g u.h.C.C.C.l.u.k e < ; 9 t x.4.` ; 1 < < - * * A F I I I I I I I L F * * * w w w ; q ` x.o.| ; < 4 u.u.u.k i i i i i T.T.",
"T.T.i i k x l.j.j.p.k i i i # ; 9 X.x.b.9 ; # # * A A F P ~ ~ ~ ~ ~ ~ ~ Q P A A A # # # 9 o.b.X.| 9 # y l.M.M.M.p.x g i i i T.T.",
"T.T.i i i g u.u.y.z i i i i i < # # ; 9 o.| 9 A F P P U ~ ~ Q P ~ Q P ~ ~ ~ P P P A H 9 X.| 9 # # # f.C.C.C.C.C.j.u.h i i i T.T.",
"T.T.t.x i i g h k z X.v v t.4 % # # $ ; 7 6 H F L P Q ! ~ Q Q Q ~ ! Q Q ! ~ Q U P F G H 7 2 ; # # # r v h.h.h.h.p.u.h i z x T.T.",
"T.T.u.u.i i i i i z u.u.p.u.# # # # # # # * A P P P ~ ~ ~ P Q ~ ~ ~ ~ P Q ~ ~ Q P P F A # # # # # # # w u.u.u.u.u.u.g i u.u.T.T.",
"T.T.u.u.i j u.t.t.l.V.V.s # A I ~ ~ Q P A A A P P P ~ ~ ~ A I ~ P Q ~ A I ~ ~ Q P P F A A F P ~ ~ ~ A * # g h i g i i i m.V.T.T.",
"T.T.u.u.i h u.u.u.n.C.C.l # #.6.w.$.@.@.* Z A P P P ~ ~ ~ A L Q F I Q A U ~ ~ Q P P L A * K ] $.7.w.#.R # i i i i i i i B.C.T.T.",
"T.T.u.u.i i u.j.C.C.C.C.f # F.G.H.q.q.q.# * A P P P ~ ~ ~ A F P A F P A I ~ ~ U P P F A # ) q.q.e.F.D.1.# u.u.u.u.u.h i u.u.T.T.",
"T.T.t.x i h u.j.C.C.C.C.C.C.# 1.D.F.e.q.# * A A F P P Q ~ ~ P A ~ I A ~ ~ ~ P P P A A A # ) q.F.F.G.# 3 k u.p.p.p.p.k i v u.T.T.",
"T.T.i i i h u.j.C.C.C.C.C.C.f  ...1.' ) # * A A D F P U Q ~ Q U ~ Q I ~ ! Q P L F A A D # > ) 1...1.< e k u.n.C.C.C.h.u.i i T.T.",
"T.T.c c i h u.j.C.C.C.C.C.C.C.f # # # # # * A A A A P P P ~ ~ ~ ~ ~ ~ ~ Q P P F A A A A # # # # # # h i k u.l.C.C.C.l.h.g i T.T.",
"T.T.C.V.i h u.j.C.C.C.C.C.C.C.C.C.u.w # A A A # # # # # # A A A A A A A * # # # # # * A A * # C.V.u.v i k u.n.C.C.C.C.C.k i T.T.",
"T.T.C.V.i.v x p.N.M.M.M.M.M.M.M.M.u.w # A A A * ` s.+ 4 3.A D F F F F A ( 3.+ w s.* = A A * # C.C.j.f.k z x j.C.C.C.N.M.g i T.T.",
"T.T.C.C.C.m.i k u.u.u.u.u.u.u.u.u.u.w # A A A A c.P.  l L.A F P P P P A 5.L.  t.P.A A A A * # C.C.C.B.u.x i a.C.C.C.h.u.i i T.T.",
"T.T.l.l.n.h.i i x z z k z z z z l l z z # * A P Z.U.  8 d.I Q ~ ~ ~ ~ P ' d.  h.U.P F A # f C.l.l.l.l.u.x i t.n.n.n.t.z i i T.T.",
"T.T.u.p.u.t.i i i i i i i i i i i i i u.# * A P Z.Y.. , u 0.T B B B B 6...u + z.Y.P F A # f C.u.u.u.u.u.x i x u.u.u.h i i i T.T.",
"T.T.k k h i i i i k x x x x x i i t.t.N.# * A P A.T.@ @ @ F.] X X X X F...@ @ v.T.P F A # y l.k k k k k g i i k h k x t.x x T.T.",
"T.T.i i i i i i i z u.u.u.u.u.g i u.p.C.C.f # A F P P 6.F.X b n C V n X / F.P P P A * # i u.u.i i i i i i i i i i i t.u.u.u.T.T.",
"T.T.v t.t.z i i i k u.l.B.f.u.h i u.p.h.l.s # * A F 6.e.H.X b n V m n X { H.0.] F * & # t.k h t.t.t.t.t.u.t.k i k t.n.N.B.N.T.T.",
"T.T.p.u.u.t.i i i z u.M.C.h.u.i i u.u.u.h.f # # * A H.H.K.X b n n n n X #.J.G.#.A # # # u.i i p.u.u.u.u.u.u.z i x u.B.C.C.C.T.T.",
"I.I.B.V.V.M.u.x i z u.M.C.h.u.h i u.p.V.# * A X o # q.F.K.K.} X X X X K.K.K.q._ # X M A # 1 i u.f.V.M.u.v i k u.M.V.C.C.C.C.T.T.",
"I.I.C.C.C.B.u.x i z u.M.C.h.u.i i u.l f * = A M O o ) 2.D.D.#.Y Y Y Y D.D.D.) H o M N A * - 1 u.p.C.B.u.x i k u.M.C.C.C.C.C.T.T.",
"T.T.C.C.C.N.u.x i k u.u.u.u.u.i i p.w # A A A A M X # ) q.q.q.q.q.q.q.q.q.q.# o X A A A A * # u.u.u.u.u.x i z u.m.C.C.C.C.C.I.I.",
"T.T.C.C.V.M.u.x i h u.u.u.u.u.i i # * A P P P A ] q.X b n n E :.<.,.:.n n n X Y q.A F P P F A # w u.u.u.z i z u.M.C.C.C.C.C.I.I.",
"I.I.C.V.u.t.i i i i i i i i i u.u.# * F W P F * [ q./ +.+.E -.,.<.,.,.E W +.] #.q.* A F U I F # < i i i i i l u.M.C.C.C.C.C.T.T.",
"I.I.B.M.t.x h h h i i i h g h f.h.# S P ~ I A # ) q.F.F.F.:.>.<.<.<.<.:.9.F.F.S.q.# * A ~ Q P # 0 c c c z k z v l.B.B.B.B.B.T.T.",
"T.T.u.u.i h u.u.u.z i x u.u.u.s # A U ~ P = # # 1.F.K.K.K.:.=.%.%.%.%.:.r.K.K.H.F.# # # P Q ~ A * # C.C.M.p.z i x u.u.u.u.u.T.T.",
"T.T.x x k v j.h.u.z i x u.j.j.s # ^ [ 0.J - # # 1.F.K.K.K.=.*.&.;.=.&.=.9.K.K.H.F.# # # ^ [ 0.^ - # M.M.j.u.k i k x x x x x T.T.",
"T.T.i i u.h.C.M.u.k i x u.B.C.f # X.x.b.9 ; # # 1.F.K.K.K.%.&.=.<.>.=.%.8.K.K.H.F.# # # 9 o.b.X.7 # u.u.u.u.z i i i i i i i T.T.",
"T.T.i i u.p.n.a.x x k h.l.V.C.f # X.X.X.9 ; # # 1.F.K.K.K.K.8.%.%.%.%.K.K.K.K.H.F.# # # 9 | X.X.7 # z z l z h i h z z z k z T.T.",
"T.T.i i u.u.u.x i l u.M.C.C.C.k.f q q 7 ; 3 4 # R 7.H.J.K.K.G.8.8.8.8.K.K.K.H.S.6.# % < ; 2 7 7 5 1 i i i i i i x u.u.u.u.u.T.T.",
"T.T.i i k k k k i k u.M.C.C.C.C.C.# # # # w x # = P G.H.K.K.K.K.K.K.K.K.K.K.F.6.P # 0 v # # # # 0 x k i h x x x h.M.M.M.u.u.T.T.",
"T.T.i i i i i i i x p.M.C.C.C.C.C.C.V.u.u.u.x # S P P 6.F.F.F.F.F.F.F.F.F.F.P P P # w u.u.u.u.u.u.u.t.i k u.u.u.N.C.C.C.p.u.T.T.",
"T.T.t.t.t.t.t.v v k h t.h.V.C.j.h.h.p.k k h i # S P Q @.6.1.1.1.1.1.1.1.2.6.Q U P # a B.B.N.B.B.N.u.t.i k u.j.B.C.C.C.C.z h T.T.",
"T.T.u.u.u.u.u.u.u.k i x u.N.C.p.u.u.u.i i i i # = I ~ Q P # # # # # # # S P ~ Q P # f C.C.C.C.C.V.u.t.i k u.n.C.C.C.C.C.k i T.T.",
"T.T.u.p.V.V.V.V.V.l.u.k i u.f.h h i i u.t.u.t.# * A ~ Q P A * # C.f # A F P ~ I A # r B.C.C.C.C.C.V.M.u.x i v p.N.C.C.C.j i T.T.",
"T.T.u.p.C.C.C.C.C.l.u.k i u.u.i i i i p.u.u.u.w : * { } O.> & # C.f # > _ O.{ J * 4 d B.C.C.C.C.C.C.B.u.x i z u.M.C.C.C.j i T.T.",
"T.T.C.C.C.C.C.C.C.C.C.j.u.h i u.u.u.p.C.C.C.C.C.k # X.c.b.9 ; # C.f # 9 o.b.o.7 # i i t.u.V.C.C.V.u.t.i k u.z i v u.u.u.i i T.T.",
"T.T.V.V.C.C.C.C.C.C.C.l.p.g i u.u.p.h.C.C.C.C.C.f # X.X.X.9 ; # V.s # 9 | X.X.7 # h i x t.B.V.V.N.t.t.g z p.t.i x u.t.u.g i T.T.",
"T.T.u.p.C.C.C.C.C.C.C.C.C.t.i u.u.C.C.C.C.C.C.C.k.f 7 7 7 ; 3 w u.d w ; 2 7 7 q w u.u.h i u.u.u.u.i g u.j.C.n.u.h i i i i i T.T.",
"T.T.t.u.N.B.C.C.B.B.B.B.N.c i p.h.C.C.C.C.C.C.C.C.C.# # # # 0 t.t.t.t.# # # # r h.h.h.x h t.v t.t.h z h.M.C.M.h.t.g i i i i T.T.",
"T.T.i i u.h.C.M.u.u.u.u.u.g i B.C.C.C.C.C.C.C.C.C.C.i.i i i i i i i i i i k u.n.C.C.C.h.u.i i i i u.h.C.C.C.C.C.j.u.g i i i T.T.",
"T.T.i i u.f.M.h.x x x x x i i l.M.C.C.C.C.C.C.C.V.M.y.i k k k k k k k h i k u.n.C.C.C.n.h.j i k x j.n.C.C.C.C.C.j.u.g i i i T.T.",
"T.T.i g u.u.u.x i i i i i i i u.u.C.C.C.C.C.C.C.n.u.k i v u.u.u.u.u.u.t.i k u.l.C.C.C.C.C.j i u.p.C.C.C.C.C.C.C.j.u.g i i i T.T.",
"T.T.i i u.t.z z k z z z z z z z z n.n.n.n.l.l.l.p.z i i X.u.l.n.n.l.u.t.i v n.B.C.C.C.C.C.j i l.n.C.C.C.C.C.C.C.j.u.g i i i T.T.",
"T.T.i i u.u.i k u.u.u.u.u.u.p.i i u.u.u.u.u.u.u.z i i i y.u.V.C.C.V.u.t.i i.C.C.C.C.C.C.C.k i C.C.C.C.C.C.C.C.C.j.u.i i i i T.T.",
"T.T.l.k.k z x p.M.M.M.M.M.f.u.i i k k k k k k k i i i i i k h.l.j.h.k k i z l.j.l.N.C.l.l.i i l.n.C.C.C.C.C.C.C.j.u.h i x x T.T.",
"T.T.C.B.i h u.j.C.C.C.C.C.h.u.g i i i i i i i i i i i i i i u.u.u.u.i i i k u.u.u.m.C.h.u.g i u.f.C.C.C.C.C.C.C.j.u.h i u.u.T.T.",
"T.T.C.B.i c N.V.C.C.C.C.C.B.B.u.t.i i t.x t.x i k t.u.v t.t.k h h h t.t.v x h h d i.h.c k i i i z h.h.h.h.h.h.h.x g x t.M.N.T.T.",
"T.T.C.B.i c C.C.C.C.C.C.C.C.C.p.u.i g u.u.u.x i z u.u.u.u.u.i i i i u.u.u.x i i i x u.g i i i i i u.u.u.u.u.u.u.z i t.u.V.C.T.T.",
"T.T.C.B.i g p.l.C.C.C.C.C.j.p.h i u.p.B.M.u.x i a.V.V.V.V.V.j i t.p.V.V.V.V.B.B.V.i.i i i i i u.u.i i g i i h i v t.M.V.C.C.T.T.",
"T.T.C.B.i h u.j.C.C.C.C.C.h.u.g i u.p.C.B.u.x i g.C.C.C.C.C.j i u.p.C.C.C.C.C.C.V.y.i i i i i u.u.i i u i i i i v u.B.C.C.C.T.T.",
"T.T.T.T.T.T.T.T.T.T.T.T.T.T.T.T.T.T.T.T.T.T.T.T.T.T.I.I.T.T.T.T.T.T.T.T.T.T.T.T.T.T.T.T.T.T.T.T.T.T.T.T.T.T.T.T.T.T.T.T.T.T.T.T.",
"T.T.T.T.T.T.T.T.T.T.T.T.T.T.T.T.T.T.T.T.T.T.T.T.T.T.I.I.T.T.T.T.T.T.T.T.T.T.T.T.T.T.T.T.T.T.T.T.T.T.T.T.T.T.T.T.T.T.T.T.T.T.T.T."
};
