/* XPM */
static char *result[] = {
/* columns rows colors chars-per-pixel */
"64 64 204 2 ",
"   c #010000",
".  c #090003",
"X  c #160407",
"o  c #170209",
"O  c #14070A",
"+  c #1F020A",
"@  c #181517",
"#  c #240907",
"$  c #2C0D06",
"%  c #22030B",
"&  c #2C040D",
"*  c #2B0A09",
"=  c #320C05",
"-  c #31070D",
";  c #3D050F",
":  c #340B0C",
">  c #3B0C0D",
",  c #2B1207",
"<  c #331306",
"1  c #3B1407",
"2  c #361B06",
"3  c #371609",
"4  c #3C120B",
"5  c #350512",
"6  c #3E0617",
"7  c #310C16",
"8  c #3C0B10",
"9  c #3C350D",
"0  c #3C1F25",
"q  c #252727",
"w  c #2C2D2D",
"e  c #2F3131",
"r  c #333535",
"t  c #363939",
"y  c #3C3E3E",
"u  c #440E0D",
"i  c #49090D",
"p  c #550A0F",
"a  c #5C0C0D",
"s  c #4E140D",
"d  c #461A0A",
"f  c #59170E",
"g  c #450714",
"h  c #460B15",
"j  c #4C0C14",
"k  c #510D13",
"l  c #431715",
"z  c #4D1214",
"x  c #451916",
"c  c #4B1C15",
"v  c #531315",
"b  c #591514",
"n  c #561A13",
"m  c #5B1C14",
"M  c #630E0B",
"N  c #64140E",
"B  c #67180D",
"V  c #6E1A0E",
"C  c #741D0D",
"Z  c #631B13",
"A  c #6B1F12",
"S  c #562B15",
"D  c #5B251A",
"F  c #64220C",
"G  c #77230F",
"H  c #7B230E",
"J  c #662513",
"K  c #6E2412",
"L  c #6E2B13",
"P  c #742411",
"I  c #7B2711",
"U  c #722E12",
"Y  c #7D2911",
"T  c #763414",
"R  c #7C3612",
"E  c #571F26",
"W  c #4B2B2B",
"Q  c #5B2D22",
"!  c #573525",
"~  c #6E3E25",
"^  c #65332C",
"/  c #7B472D",
"(  c #714F32",
")  c #7E5537",
"_  c #3D4141",
"`  c #414444",
"'  c #464A4A",
"]  c #4C4D4D",
"[  c #584C45",
"{  c #4D5252",
"}  c #515454",
"|  c #555A5A",
" . c #5B5D5D",
".. c #685A52",
"X. c #69625D",
"o. c #5D6363",
"O. c #656665",
"+. c #656B6B",
"@. c #6A6A6B",
"#. c #7C6D68",
"$. c #7E7067",
"%. c #70716F",
"&. c #6D6F71",
"*. c #706F72",
"=. c #6D7373",
"-. c #727375",
";. c #767478",
":. c #7A767C",
">. c #747B7B",
",. c #797C7E",
"<. c #80270F",
"1. c #812B0F",
"2. c #85370F",
"3. c #872E10",
"4. c #843411",
"5. c #893410",
"6. c #8D3D10",
"7. c #DD3D23",
"8. c #864011",
"9. c #8A4110",
"0. c #904610",
"q. c #914810",
"w. c #855939",
"e. c #985A32",
"r. c #AB7333",
"t. c #D04D37",
"y. c #E54B24",
"u. c #AB5648",
"i. c #917050",
"p. c #A36E41",
"a. c #A47143",
"s. c #A57D48",
"d. c #B96456",
"f. c #90796F",
"g. c #AC7267",
"h. c #A3736A",
"j. c #C56C4C",
"k. c #9B9230",
"l. c #B78A2A",
"z. c #D58C23",
"x. c #EF9233",
"c. c #F0A838",
"v. c #F1B63C",
"b. c #F4CE36",
"n. c #F4D33C",
"m. c #A0995A",
"M. c #BBB05C",
"N. c #988762",
"B. c #95826F",
"V. c #AA9464",
"C. c #B2AA70",
"Z. c #D7AF51",
"A. c #C7BB5D",
"S. c #D6BB7B",
"D. c #D5C65B",
"F. c #E2CB4A",
"G. c #EECC4B",
"H. c #E8D24C",
"J. c #F4DC46",
"K. c #F4DB4A",
"L. c #E7D355",
"P. c #F4DE53",
"I. c #F0DD5A",
"U. c #F4E057",
"Y. c #F4E15E",
"T. c #CDC162",
"R. c #D3C76A",
"E. c #EBDB75",
"W. c #F4E264",
"Q. c #F3E46A",
"!. c #F3E776",
"~. c #7D7980",
"^. c #837E86",
"/. c #7C8383",
"(. c #808687",
"). c #86838C",
"_. c #838B8B",
"`. c #888F8F",
"'. c #8D9389",
"]. c #9A9C83",
"[. c #858B91",
"{. c #898A93",
"}. c #8C8F99",
"|. c #879197",
" X c #8A9292",
".X c #8D949D",
"XX c #8F9898",
"oX c #929B9B",
"OX c #A88D88",
"+X c #8F99A1",
"@X c #929BA5",
"#X c #949EA8",
"$X c #9AA2A2",
"%X c #95A2AB",
"&X c #9FA8A8",
"*X c #98A7B1",
"=X c #9BADB7",
"-X c #A1AAAA",
";X c #F3E982",
":X c #F4EB8D",
">X c #F3EE9A",
",X c #F3F1A6",
"<X c #CBDBFC",
"1X c white",
/* pixels */
"1X1X1X1X1X1X1X1X1X1X1X1X1X1X1X1X1X1X1X1X1X1X1X1X1X1X1X1X1X1X1X1X1X1X1X1X1X1X1X1X1X1X1X1X1X1X1X1X1X1X1X1X1X1X1X1X1X1X1X1X1X1X1X1X",
"1X1X1X1X1X1X1X1X1X1X1X1X1X1X1X1X1X1X1X1X1X1X1X1X1X1X1X1X1X1X1X1X1X1X1X1X1X1X1X1X1X1X1X1X1X1X1X1X1X1X1X1X1X1X1X1X1X1X1X1X1X1X1X1X",
"1X1X=X*X^.:.@.-.^..X=X.X^.*.@.^.).=X=X=X=X=X|.@.[.=X=X=X>.@.^.^.=X=X=X=X=X=X=X=X=X=X=X:.@.~.^.=X*X^.^.^.:.@.-.^.@X=X=X=X=X=X1X1X",
"1X1X*X%X^.:.@.*.^.|.*X{.^.-.@.^.).=X=X=X=X        w ]                                 >.@.^.^.=X*X).).^.:.@.*.^.+X*X=X=X=X=X1X1X",
"1X1X^.^.O.@.@.@.@.;.^.-.@.~.^.*X=X=X=X=X=X* F J F 8 F F F F F 8 B f F F F 8 F F F o   *.@.^.^.=X=X=X%X^.:.@.@.@.:.^.%X=X=X=X1X1X",
"1X1X^.^.@.@.*.*.*.;.~.&.@.(.{.*X=X=X=X=X=X: Y A A v Y Y Y Y Y j K A Y P C j I Y Y %   &.O.^.^.=X=X=X#X^.:.@.@.@.:.^.@X%X#X#X1X1X",
"1X1X^.^.@.=.^.^.^.;.@.@.+.@X=X=X=X=X=X=X#X& v v g g g g g g g z v n n n h g h g g +   *.@.^.^.=X=X=X%X^.:.@.@.@.:.^.^.^.^.^.1X1X",
"1X1X:.:.-.:.}.}.}.^.-.&.@.{.@X*X=X=X=X@X.X: 5.6.b P H M C H k 4.2.2.5.5.Z C P H H +   &.@.;.:.@X@X@X+X^.:.@.@.@.-.:.:.:.:.:.1X1X",
"1X1X@.@.^.{.=X=X=X+X^.;.@.~.^.*X=X=X*X^.^.: 5.3.b 3.3.I P 3.z 3.3.5.1.3.Z Y 3.5.3.%   @.@.@.@.^.^.^.^.^.:.@.@.@.@.@.@.@.@.@.1X1X",
"1X1X@.*.^.{.=X=X=X.X^.*.@.-.;.}.+X+X}.^.:.& h b n n b b h m n b b m g m n n b b h %   ;.;.;.;.;.;.;.;.-.;.;.;.;.&.@.@.@.@.@.1X1X",
"1X1X@.@.^.{.=X=X=X+X^.-.@.@.@.^.^.^.^.^.~.7 Z 6.6.6.3.6.m 6.6.6.6.6.6 6.6.6.6.6.m +   ^.^.^.^.@.@.@.@.@.*.^.^.^.-.@.@.@.O.@.1X1X",
"1X1X@.@.-.:.}..X}.~.;.&.@.@.@.*.;.*.;.*.;.% b 3.3.V 3.3.b 3.3.3.3.3.6 3.3.C 3.5.b +   #X@X).^.@.@.:.^..X.X@X@X@X).:.@.@.@.@.1X1X",
"1X1X@.@.@.*.^.^.^.;.@.@.@.@.@.@.@.@.@.@.*.& j k j h m m b m m z k j g k k g m m b %   =X=X).^.@.@.^.{.=X=X=X=X=X}.^.*.@.@.@.1X1X",
"1X1X~.:.@.@.*.*.*.;.~.^.:.~.~.:.~.@.@.~.^.- V N N b 0.6.6.0.6.j B N N V V k 5.6.9.+   =X=X%X%X@.*.^.^.{.{.{.{.{.).^.*.@.:.~.1X1X",
"1X1X^.^.@.@.@.O.@.-.^.^.^.^.^.^.^.@.&.^.{.> 3.P I b 3.3.3.3.3.j <.C 3.H C v 3.3.5.%   =X=X=X=X@.*.^.^.^.^.^.^.^.^.^.&.@.^.^.1X1X",
"1X1X^.^.@.@.^.^.^.}.*X*X*X*X*X).^.@.=.*X*X& v j g g j j j j h z k k v z k g j j j %   =X=X{.).@.@.@.*.*.&.&.*.@.&.@.@.@.@X*X1X1X",
"1X1X^.^.@.-.^.^.^..X=X=X=X=X=X).^.@.-.=X=X4 6.6.b C C M C C j 4.6.6.6.6.J V C C C %   =X=X).^.@.@.@.@.@.+.@.@.@.@.@.@.@.%X=X1X1X",
"1X1X^.^.@.@.^.}.=X=X=X=X=X=X=X=X=X@.@.^.{.: 3.3.b 1.3.H H 1.v 1.3.3.3.3.Z Y 3.3.3.+   ^.^.^.^.+.@.@.O.@.-.^.^.^.^.^.-.@.^.^.1X1X",
"1X1X~.:.  . % + + % + + % + + + % + + + % % - - & : - : - - & - - - : - & - : - - % + + % + + + + + % + + + + o +     @.~.~.1X1X",
"1X1X@.@.  . W f.B.B.B.B.B.B.B.B.B.B.B.B.B.B.B.f.B.B.B.B.B.B.B.B.B.f.B.B.B.f.B.B.B.B.B.B.B.B.B.B.B.B.B.B.B.B.B.f.0     ^.@.@.1X1X",
"1X1X>.>.  . X ! w.p.p.a.p.p.p.r.p.a.r.a.p.p.p.p.a.p.p.a.p.p.p.p.p.r.p.p.p.p.p.a.p.p.p.p.p.p.p.p.p.p.r.p.p.p.) ! o     {.-.@.1X1X",
"1X1X=X%X@.-.    X x l c c c x c x x c c c D x c c c c c c c c c c D c l c c c c c x c c D c c l c c D c c 8 O .   =X=X=X=.@.1X1X",
"1X1X=X=X/.~.:.).. 5 g 9.9.9.2.4.m L 9.9.9.8.L T 9.9.8.6.L n 9.9.9.9.8.n 9.9.6.4.2.h 9.9.9.9.9.n 9.9.9.9.8.4 .   =X=X#X@X&.@.1X1X",
"1X1X=X=X=X+X+.-.. m b 3.3.I H 3.b J 3.3.3.3.V P 3.1.H 3.K b 5.1.3.3.3.b 3.1.C Y 3.j 3.5.3.3.3.b 3.3.H 1.4.8 .   =X=X{.^.@.@.1X1X",
"1X1X.X+X+X{.@.@.. h h b b k b b h z b b b b k k b v k b v h b b b b b j b b j b n g b b b b b k b b j b b - .   +X.X~.;.@.@.1X1X",
"1X1X^.^.^.~.@.@.. i a a a j R 8.6.8.2.J p a a a a p J 8.8.9.6.R j a a a a p v 6.8.8.8.8.z a a a a a g 8.8.4 .   ^.^.*.@.@.@.1X1X",
"1X1X-.-.*.*.@.@.. p H 3.H b 3.1.3.3.4.Z I H H 1.H P Z 3.5.1.5.1.b H C 1.Y I b 3.3.3.3.3.v 1.C <.3.<.k 3.3.8 .   -.-.:.:.:.:.1X1X",
"1X1X@.@.@.@.@.@.. s b Z k : < 1 4 4 4 * = $ 1 2 = $ * 1 1 1 1 1 * : 1 1 = < % 1 1 1 1 3 # = = 1 1 u h Z b : .   @.@.~.^.^.^.1X1X",
"1X1X~.~.~.;.@.@.. n R R J X {  .q t o.=._._.`.`./.| o.o. .o.k.l.m._._._._. . . .o.o.o.| /. .{ _.~.+ k a a - .   -.~..X%X%X#X1X1X",
"1X1X^.^.^.~.@.@.. F 3.3.A o /.[.e | /.,. X X X X_.>. X X/.'.D.J.T.]. X`. X>. X X X X X>.`.| |  X/.o P 5.3.> .   :.^.%X=X=X=X1X1X",
"<X<X*X*X*X#X^.;.. h b b v o +.>.w { >.=.>.>.>.>.>.=.>.>.T.D.J.J.J.V.T.C.>.=.>.>.>.>.,.=.>.' { >.+.+ v b b : .   +X*X=X=X=X=X1X1X",
"<X<X=X=X=X#X^.:.. - 6 U U , /.`.y o.$X$X$X$X`.XX$X$X$XM.J.J.J.J.U.C.J.R.$X$X$X$X$X=.$X$X$Xo.` =. X4 U U U : .   @X=X=X=X=X=X1X1X",
"1X1X=X=X=X%X^.:.. Z b 1.3.< >. Xt |  X X X X(.(. X`._.L.J.J.:XY.P.J.K.T. X X X X X=. X X X| { >./.2 3.3.3.> .   @X=X=X=X=X=X<X<X",
"1X1X=X=X%X@X^.;.. s v K K # =./.e { /././.(.>.,.h.h.,.M.J.n.:X,X!.n.J.A././.>././.+./././.{ { >.=.2 k K A : .   @X=X=X=X=X=X<X<X",
"<X<X=X*X^.~.@.@.. u p p p + XX&X_ O.&X_.-.>.-.u.y.7.g.-XJ.P.>X,X!.n.J.A.i.*.=.>.>.>.>.>.=.{ _ >.O.# h T T > .   @X=X=X=X=X=X1X1X",
"<X<X%X@X~.:.-.&.. i H 1.H $ /.XXt  .XX/.(.(.(.t.c.x.d.XXJ.Q.,X,X!.K.J.D.j.B.>._. XXX/. X>.| }  X>.d k 5.5.> .   .X%X%X%X%X%X1X1X",
"1X1X^.^.@.-.^.^.. f P P N $ >./.e | /.,.(.,._.t.v.c.u.].J.Q.,X,X,XQ.J.J.x.h.*.(././././.>.{ | /.>.> j P P : .   :.^.^.^.^.^.1X1X",
"1X1X:.:.-.:.}.{.. f U U m o O.-.w ' >./.$X$X$XZ.G.c.u.H.J.Q.,X,X,X:XJ.J.v.7.u.;.>.>.>.>.oX+.o.$X`.+ j p p - .   -.:.:.:.:.:.1X1X",
"1X1X@.@.^.{.=X@X. F 2.2.K X >._.w | /./.oXoXoXD.J.G.C.H.U.Q.,X,X,X,XJ.Y.Q.c.y.h.XX X`.>.XXo.o.$X(.+ V H H > .   @.@.@.@.@.@.1X1X",
"1X1X@.@.^.)..X`.. b P P m o >._.e | /./._._._.D.J.D.(.H.!.,X,X,X,X,XY.Q.,XU.c.g./././.>./.{ | /.>.+ Z P P > .   *.;.;.;.-.;.1X1X",
"1X1X@.@.^.^.^.:.. - 6 K J , /./.t  .XXoXXXXX].H.b.D.XXH.,X,X,X,X,X,X,XQ.,XI.S.OXXX=.XXXXXX ._ =./.< J J J : .   :.^.^.^.^.^.1X1X",
"1X1X@.@.-.-.-.*.. m v 3.3.< >. Xt  .oXoXXXXXC.J.J.J.C.H.,X,X,X,X,X,X,XQ.,XP.R.XXXX&.XXXXXX .| >./.d 5.3.5.4 .   }.@X@X@X^.^.1X1X",
"1X1X@.@.@.@.@.@.. f k P P $ -./.e | /./._.(.C.J.!.U.H.J.,X,X,X,X,X,X,XQ.,X:XK.C._.=.(._./.| | >.>.1 N P P > 7   @X=X=X=X).^.1X1X",
"1X1X~.~.~.:.:.^.. ; j j j X >.`.r | `.>.=.+.M.J.!.:XU.K.,X,X,X,X,X,X;X;X,X>XL.N.X.`._.`.=.' ' =.O.% g D m & E   =X=X=X=X;.*.1X1X",
"1X1X^.^.^.^.^.^.. i C H H , `.oXt o.$X/.|  .i.D.J.K.:XP.Y.Y.Y.W.,X,XK.,X,XE.V. .] oX$XoX>.| ] /.>.d j 2.5.> .   =X=X=X=X-.@.1X1X",
"1X1X^.).*X*X*X*X. f I Y V , >.`.t { ,.@.] }  .N.Z.F.I.G.H.H.F.G.E.E.H.L.L.m.X.} ` /.,.,.+.{ } `.>.4 k H <.> .   #X=X=X=X=.@.1X1X",
"1X1X^.{.=X=X=X=X. c J m n o +.o.t e r y =.@.] } X.[ #.f.f.#.[ #.#.$.$..... .] } ` r r e ' { ' ,./.+ j j g - .   #X=X=X=X=.@.1X1X",
"1X1X=X=X=X=X=X=XO F 5.6.L o o.y +././._.-XoX .] ] r ' ] ] ] t ] { { { ` y ] ] :.(.(.(.-.$X&X+.o. X+ N C C > .   :.^.^.^.@.@.1X1X",
"1X1X*X*X=X=X=X=X. Z 3.3.K o t ,./._._./.`. X`.[ i.r.z.e.( i.s.s.z.( e.z.l.i.[  X X X X>.`. X X>.@ + P 3.3.> .   :.^.^.:.@.@.1X1X",
"1X1X^.).=X=X=X=X. - g m m d < 2 # , 2 2 2 2 , < S ) / ( ~ w.r.z.r.~ / / ) ~ 2 2 2 + 2 2 2 2 # X 2 d m D D & .   -.@.@.@.@.@.1X1X",
"1X1X~.^.%X%X=X=X. u h 9.6.9.2.3.m L 6.6.9.6.L U 6.Q S Q T W / / T R D W Q 2.6.6.9.z 9.6.6.6.K h 9.6.6.6.9.l .   :.*.@.@.@.@.1X1X",
"1X1X@.@.^.{.=X@X. Z b Y Y C G Y b A Y 3.1.1.A K Y P V 3.A z L L I R 1.v Y I V Y Y h 1.1.1.Y 3.b 1.Y C 1.Y 8 . . |.^.-.@.@.@.1X1X",
"1X1X@.@.^.{.@X{.X x x c c c x c x x x x c c x c c c x c x x c c c x c x c c x c c x c x c c c x c c x x x x O 9 }.^.%.@.@.@.1X1X",
"1X1X@.&.^.^.^.,.) a.a.a.a.a.a.a.a.p.a.a.p.a.a.a.a.a.a.a.a.a.a.a.a.a.a.a.a.a.a.a.a.a.a.a.a.a.p.a.p.r.a.a.a.a.w.! }.^.%.@.@.+.1X1X",
"1X1X@.@.^.~.;.-.^ ^ ^ ^ ^ ^ ^ ^ ^ ^ ^ ^ ^ ^ ^ ^ ^ ^ ^ ^ ^ ^ ^ ^ ^ ^ ^ ^ ^ ^ ^ ^ ^ ^ ^ ^ ^ ^ ^ ^ ^ ^ ^ ^ ^ ^ ^ Q }.^.@.O.@.@.1X1X",
"1X1X@.@.^.X n q.5.D U q.q.q.q.R T q.0.0.5.R m q.q.q.q.q.m q.q.q.6.6.6 q.q.q.q.q.m q.q.q.q.9.J R 9.q.q.T g R q.q.d . k.@.@.@.1X1X",
"1X1X|.|.-.. s C 1.f K 3.3.3.3.P K 3.3.C H P b 3.3.3.5.1.b 1.1.H H 1.6 3.3.3.3.3.b 3.3.H 3.3.n P 3.3.5.1.K P 1.H u .   @.;.:.1X1X",
"1X1X=X*X@.. & s s > u s s s s s u s s u s s > s s s s s u s s u s s - s s s s s > s s u s s 8 u s s s s u s s s &     @.^.^.1X1X",
"1X1X=X%X@..   . . .     .     .   . .     @ .   . .   .   .   . .   .   .   . .   . .   .   @ O . .   .   .   . .     ~.@X%X1X1X",
"1X1X=X%X@.              w                 -.                                                ;.w                       ^.*X=X1X1X",
"1X1X=X%X@.              y                                                                                             *X=X=X1X1X",
"1X1X=X%X@.&.^.}.=X=X=X=X=X{.^.@.@.^.).=X%X^.:.@._.=X=X=X=X=X=.@.^.).=X=X=X=X=X=X=X/.@.@.@.@.@.^.^.+.@.@.@.@.@.@.:.^.%X=X=X=X1X1X",
"1X1X1X1X1X1X1X1X1X1X1X1X1X1X1X1X1X1X1X1X1X1X1X1X1X1X<X<X1X1X1X1X1X1X1X1X1X1X1X1X1X1X1X1X1X1X1X1X1X1X1X1X1X1X1X1X1X1X1X1X1X1X1X1X",
"1X1X1X1X1X1X1X1X1X1X1X1X1X1X1X1X1X1X1X1X1X1X1X1X1X1X<X<X1X1X1X1X1X1X1X1X1X1X1X1X1X1X1X1X1X1X1X1X1X1X1X1X1X1X1X1X1X1X1X1X1X1X1X1X"
};
