/* XPM */
static char *result[] = {
/* columns rows colors chars-per-pixel */
"64 64 156 2 ",
"   c #010000",
".  c #090003",
"X  c #160407",
"o  c #1B0307",
"O  c #170209",
"+  c #1F020A",
"@  c #110A0C",
"#  c #0F1010",
"$  c #1C1719",
"%  c #1D1F1F",
"&  c #260507",
"*  c #2C0D06",
"=  c #22030B",
"-  c #2C040D",
";  c #220A08",
":  c #2B0A09",
">  c #320C05",
",  c #31070D",
"<  c #3D050F",
"1  c #340B0C",
"2  c #3B0C0D",
"3  c #2B1207",
"4  c #331306",
"5  c #3B1407",
"6  c #361B06",
"7  c #381C07",
"8  c #351209",
"9  c #3C120B",
"0  c #391809",
"q  c #350512",
"w  c #3E0617",
"e  c #3C0B10",
"r  c #301014",
"t  c #35121C",
"y  c #3C350D",
"u  c #3C1F25",
"i  c #2D2D2D",
"p  c #3A3F3F",
"a  c #45070D",
"s  c #440E0D",
"d  c #4D0B0C",
"f  c #550A0F",
"g  c #5C0C0D",
"h  c #411507",
"j  c #431708",
"k  c #4E140D",
"l  c #451B0A",
"z  c #4B1D0D",
"x  c #55120B",
"c  c #58160E",
"v  c #5B1A0F",
"b  c #450714",
"n  c #460B15",
"m  c #4C0C14",
"M  c #510D13",
"N  c #4D1214",
"B  c #451916",
"V  c #4B1C15",
"C  c #531315",
"Z  c #591514",
"A  c #561A13",
"S  c #5B1C14",
"D  c #630E0B",
"F  c #64140E",
"G  c #6B140C",
"H  c #611E0E",
"J  c #6E1A0E",
"K  c #741D0D",
"L  c #631B13",
"P  c #6B1F12",
"I  c #57230D",
"U  c #5F2114",
"Y  c #54271F",
"T  c #5A2C1F",
"R  c #55321C",
"E  c #64220C",
"W  c #74210F",
"Q  c #7B230E",
"!  c #7E280F",
"~  c #662513",
"^  c #6E2412",
"/  c #6E2B13",
"(  c #742411",
")  c #7B2711",
"_  c #722E12",
"`  c #7D2911",
"'  c #753313",
"]  c #7C3612",
"[  c #793816",
"{  c #571F26",
"}  c #4A2421",
"|  c #5B2D22",
" . c #553426",
".. c #5D3821",
"X. c #4C3235",
"o. c #6E3E25",
"O. c #65332C",
"+. c #7B472D",
"@. c #774F35",
"#. c #7F5537",
"$. c #7D5638",
"%. c #3E4141",
"&. c gray30",
"*. c #656A6A",
"=. c #6A6A6B",
"-. c #6D6F71",
";. c #706F72",
":. c #6F7274",
">. c #737275",
",. c #767478",
"<. c #7A767C",
"1. c #767B7D",
"2. c #7A797E",
"3. c #80270F",
"4. c #812B0F",
"5. c #83320F",
"6. c #863C0F",
"7. c #883A0F",
"8. c #872E10",
"9. c #833311",
"0. c #893410",
"q. c #863810",
"w. c #8D3D10",
"e. c #864011",
"r. c #8A4110",
"t. c #904610",
"y. c #914810",
"u. c #895736",
"i. c #835B3B",
"p. c #AA6828",
"a. c #C27C2E",
"s. c #A36E41",
"d. c #A47143",
"f. c #8C796A",
"g. c #969121",
"h. c #CF8125",
"j. c #95826F",
"k. c #7D7980",
"l. c #837E86",
"z. c #7C8383",
"x. c #808187",
"c. c #86838C",
"v. c #858B91",
"b. c #898A93",
"n. c #8C8F99",
"m. c #879197",
"M. c #8D949D",
"N. c #8F97A0",
"B. c #8E9CA4",
"V. c #929BA5",
"C. c #949EA8",
"Z. c #95A2AB",
"A. c #98A7B1",
"S. c #9BADB7",
"D. c #CBDBFC",
"F. c white",
/* pixels */
"F.F.F.F.F.F.F.F.F.F.F.F.F.F.F.F.F.F.F.F.F.F.F.F.F.F.F.F.F.F.F.F.F.F.F.F.F.F.F.F.F.F.F.F.F.F.F.F.F.F.F.F.F.F.F.F.F.F.F.F.F.F.F.F.",
"F.F.F.F.F.F.F.F.F.F.F.F.F.F.F.F.F.F.F.F.F.F.F.F.F.F.F.F.F.F.F.F.F.F.F.F.F.F.F.F.F.F.F.F.F.F.F.F.F.F.F.F.F.F.F.F.F.F.F.F.F.F.F.F.",
"F.F.S.A.l.2.=.>.l.M.S.m.l.;.=.l.c.S.S.S.S.S.m.=.v.S.S.S.1.=.l.x.S.S.S.S.S.S.S.S.S.S.S.1.=.k.l.S.A.l.l.l.<.=.>.l.V.A.S.S.S.S.F.F.",
"F.F.A.Z.l.<.=.;.l.n.A.b.l.>.=.x.c.S.S.S.S.        i &.                                1.=.l.l.S.A.c.c.l.<.=.>.l.N.A.S.S.S.S.F.F.",
"F.F.l.l.*.=.=.=.=.,.l.>.=.k.l.A.S.S.S.S.S.: E E U 2 E E E E E e E x E E E e E E E o   ;.*.l.l.S.S.S.C.l.<.=.=.=.<.l.Z.S.S.S.F.F.",
"F.F.l.l.=.=.;.;.;.,.k.-.=.x.b.A.S.S.S.S.A.1 ` P J C ` ! ` ` ` m K P ` ( K m ) ` ` =   -.=.l.l.S.S.S.Z.l.<.=.=.=.<.l.V.Z.Z.Z.F.F.",
"F.F.l.l.=.;.l.l.l.,.=.=.=.B.S.S.S.S.S.S.Z.- C C n b n b b b b C A C A C n b n b b =   ;.=.l.l.S.S.S.Z.l.<.=.=.=.<.l.l.l.l.l.F.F.",
"F.F.<.<.;.2.n.n.n.x.>.=.=.n.C.A.S.S.A.V.M.9 w.0.Z W Q D Q K m 9.q.q.0.0.~ K W Q W =   =.=.,.<.V.V.V.N.l.<.=.=.=.>.<.<.<.<.<.F.F.",
"F.F.=.-.l.b.S.S.S.N.l.>.=.k.l.A.A.S.A.l.k.2 0.9.Z 9.8.` ( 8.C 8.8.0.8.8.L ` 8.8.8.=   =.=.=.=.l.l.l.l.l.<.=.=.=.=.=.=.=.=.*.F.F.",
"F.F.=.=.l.b.S.S.S.N.l.>.=.>.,.M.N.N.N.l.k.= n Z Z Z Z Z n A A S Z S w Z S S Z A n =   ,.,.,.,.,.,.,.,.>.,.,.,.<.-.=.=.=.=.=.F.F.",
"F.F.=.-.l.b.S.S.S.M.l.>.*.=.=.l.l.l.l.l.k.t Z w.r.w.8.w.S w.w.w.w.w.w r.w.w.w.w.S +   l.l.l.l.=.=.=.=.=.;.l.l.l.>.=.=.=.=.=.F.F.",
"F.F.=.=.,.k.n.n.n.l.>.-.=.=.=.;.>.>.>.>.,.- Z 8.8.J 3.8.Z 8.8.8.8.8.b 8.8.J 8.8.Z +   C.V.c.l.=.=.<.l.M.M.V.V.V.c.<.=.=.=.=.F.F.",
"F.F.=.=.=.-.l.l.l.>.*.=.=.=.=.=.=.=.=.=.-.- m m m m S S Z S S m m M b M M b S S S +   S.S.c.l.=.=.l.b.S.S.S.S.S.n.l.;.=.=.=.F.F.",
"F.F.k.<.=.=.;.;.;.k.k.k.<.2.k.f.k.=.=.k.l.q G G F Z t.w.t.r.w.m G F G G G M w.r.w.=   S.S.Z.C.=.-.l.c.b.b.b.b.b.c.l.;.=.,.k.F.F.",
"F.F.l.l.=.=.=.-.=.,.l.l.l.l.k.l.l.=.-.l.b.e 8.( ) Z 8.8.8.8.8.m ) K 8.) ) M 8.8.8.=   S.S.S.S.=.=.l.l.l.l.l.l.l.l.l.-.=.l.l.F.F.",
"F.F.l.k.=.;.k.k.k.n.A.A.A.A.S.b.l.=.:.A.A.- C m b b m m m m n N M C C N m b m m m =   S.S.b.c.-.=.;.=.;.=.;.;.=.-.=.=.=.V.A.F.F.",
"F.F.l.l.=.;.l.l.l.N.S.S.S.S.S.c.c.=.>.S.S.2 7.w.Z K K D K K m q.w.w.w.w.P P W W K =   S.S.c.l.=.=.=.=.=.=.=.=.=.=.=.=.=.Z.S.F.F.",
"F.F.l.l.=.=.l.n.S.S.S.S.S.S.S.A.S.=.=.l.b.2 8.8.Z 9.8.W Q 8.m 8.8.8.8.8.L ) 8.8.8.+   l.l.l.l.=.=.=.=.=.>.l.l.l.l.l.>.=.l.l.F.F.",
"F.F.l.<.  . = = + + + + = + + + = + + + + = , , - , - q , , - , , , q 1 - , , , , = + + + + + + + + = + + + + + +     =.k.k.F.F.",
"F.F.*.=.  X X.f.j.j.j.j.j.j.j.j.j.j.j.j.j.j.j.j.j.j.j.j.j.j.j.j.j.f.j.j.j.f.j.j.j.j.j.j.j.j.j.j.j.j.j.j.j.j.j.f.u     l.=.=.F.F.",
"F.F.1.1.  . X  .$.d.s.s.s.s.s.s.s.s.s.s.s.d.s.s.d.p.d.s.s.d.s.s.d.p.d.d.d.d.p.d.s.s.s.s.d.s.s.d.s.s.d.d.p.d.@. .O     b.:.=.F.F.",
"F.F.S.A.=.-.  . X B B V A V V V V V V V V V V V V V } V V V V V A } V B V V } V V B V V V V A B V V V A } t X .   S.S.S.>.=.F.F.",
"F.F.S.A.z.1.<.c.. e b r.e.r.6.9.S / r.r.r.7./ ' r.r.r.r./ A r.r.r.e.e.S r.r.q.8.q.n r.r.r.r.r.Z r.r.r.r.r.9 .   S.S.C.V.-.=.F.F.",
"F.F.S.S.S.B.=.>.. v Z 8.5.Q Q 4.Z P 8.8.0.8.~ Q 8.! ! 8.P Z 8.0.0.8.8.Z 4.4.W 8.8.n 8.0.8.8.9.Z 8.8.Q 4.0.2 .   S.S.b.l.=.=.F.F.",
"F.F.M.N.N.b.=.=.. n n Z Z M Z Z n C Z Z Z Z M M Z M M Z C n Z Z Z Z Z n Z Z M Z Z b Z Z Z Z C m Z Z m Z Z , .   M.N.k.,.=.=.F.F.",
"F.F.l.l.l.2.=.=.. a g g g b ] w.e.e.q.~ f g g g g M ~ r.e.r.q.[ m g g g g f Z q.e.e.e.e.N g g g g g b e.e.9 .   l.l.;.=.=.=.F.F.",
"F.F.>.>.>.-.=.=.. x 3.8.! Z ` 8.8.8.9.L ) Q Q 8.) ( L 8.8.8.8.` Z ) K 8.3.) C 8.8.8.8.8.C 8.K 8.8.3.M 8.8.2 .   >.>.<.<.<.<.F.F.",
"F.F.=.=.=.=.=.=.. d L S M 1 5 5 5 4 5 : > * 5 5 > * : 5 5 5 5 1 - > 5 5 > 8 ; 5 5 5 5 5 = > > 5 5 s n L Z 1 .   =.=.k.l.l.l.F.F.",
"F.F.k.k.k.,.=.=.. A ] ] ~ o z.z.%.% p p p p p p p p p p p p p p p p p p p p p p p p p p %.% %.z.z.+ M g g , .   >.2.V.Z.Z.Z.F.F.",
"F.F.l.l.l.k.=.=.. U 0.4.P o z.z.%.% p p p p p p p p p p p p p p p p p p p p p p p p p p p % %.z.z.+ ( 8.0.2 .   <.l.Z.S.S.S.F.F.",
"D.D.A.A.A.V.l.,.. n Z Z m O z.z.%.% p p p p p p p p p p p p p p p p p p p p p p p p p p p % %.z.z.= C Z Z q .   N.A.A.S.S.S.F.F.",
"D.D.S.S.S.Z.l.<.. , w _ _ 3 z.z.%.% p p p p p p p p p p p p p p p p p p p p p p p p p p p % %.z.z.0 _ _ _ 1 .   V.S.S.S.S.S.F.F.",
"F.F.S.S.S.Z.l.<.. H Z 5.4.4 z.z.%.% p p p p p p p p p p p p p p p p p p p p p p p p p p p % %.z.z.j 8.8.4.s .   V.S.S.S.S.S.D.D.",
"F.F.S.S.A.V.l.,.. N C J ^ * z.z.%.% p p p p p p p p p p p p p p p p p p p p p p p p p p p % %.z.z.> M ^ ^ 1 .   V.S.S.S.S.S.D.D.",
"D.D.S.A.l.2.=.=.. a f f f & z.z.%.% p p p p p p p p p p p p p p p p p p p p p p p p p p p % %.z.z.- b ' ' 2 .   V.S.S.S.S.S.F.F.",
"D.D.Z.V.k.<.;.-.. d Q 4.Q * z.z.%.% p p p p p p p p p p p p p p p p p p p p p p p p p p p % %.z.z.h M 0.0.2 .   m.Z.Z.Z.Z.Z.F.F.",
"F.F.l.l.=.>.l.l.. c W ( F * z.z.%.% p p p p p p p p p p p p p p p p p p p p p p p p p p p % %.z.z.5 n ( ( 2 .   <.l.l.l.l.l.F.F.",
"F.F.<.<.>.2.n.b.. A _ ' S O z.z.%.% p p p p p p p p p p p p p p p p p p p p p p p p p p p % %.z.z.+ m f f - .   >.<.<.<.<.<.F.F.",
"F.F.=.=.l.b.S.V.. E 7.7.P O z.z.%.% p p p p p p p p p p p p p p p p p p p p p p p p p p p % %.z.z.+ P Q Q 2 .   =.=.=.=.=.=.F.F.",
"F.F.=.=.l.c.M.v.. C ( W L O z.z.%.% p p p p p p p p p p p p p p p p p p p p p p p p p p p % %.z.z.+ P ( ( 2 .   >.,.,.,.>.,.F.F.",
"F.F.=.=.l.l.l.<.. q w ~ ~ * z.z.%.% p p p p p p p p p p p p p p p p p p p p p p p p p p p % %.z.z.8 ~ ~ ~ 2 .   <.l.l.l.l.l.F.F.",
"F.F.=.=.>.>.>.>.. v Z 9.0.4 z.z.%.% p p p p p p p p p p p p p p p p p p p p p p p p p p p % %.z.z.j 0.9.9.2 .   n.V.V.V.c.l.F.F.",
"F.F.=.=.=.=.=.=.. c M ( ( * z.z.%.% p p p p p p p p p p p p p p p p p p p p p p p p p p p % %.z.z.5 F ( ( 2 r   V.S.S.S.c.l.F.F.",
"F.F.k.k.<.k.k.k.. < m b n o z.z.%.% p p p p p p p p p p p p p p p p p p p p p p p p p p p % %.z.z.= b S U - {   A.S.S.S.,.;.F.F.",
"F.F.l.l.l.l.l.l.. a K ! ) * z.z.%.% p p p p p p p p p p p p p p p p p p p p p p p p p p p % %.z.z.h m 0.0.s .   S.S.S.S.>.=.F.F.",
"F.F.l.c.A.A.A.A.. c ) ` P 3 z.z.%.# % % % % % % % % % % % % % % % % % % % % % % % % % % % # %.z.z.h M ` ) 2 .   C.S.S.S.:.=.F.F.",
"F.F.l.b.S.S.S.S.. N ~ S C o z.*.# %.%.%.%.%.%.%.%.%.%.%.%.%.%.%.%.%.%.%.%.%.%.%.%.%.%.%.%.%.# *.z.= n m m , .   V.S.S.S.:.=.F.F.",
"F.F.S.S.S.S.S.S.@ ~ w.w.^ o *.# *.z.z.z.z.z.z.z.z.z.z.z.z.z.z.z.z.z.z.z.z.z.z.z.z.z.z.z.z.z.=.# =.= F K K 1 .   2.l.l.l.=.=.F.F.",
"F.F.A.A.S.S.S.S.. L 8.8.P o # =.z.z.z.z.z.z.z.z.z.z.z.z.z.z.z.z.z.z.z.z.z.z.z.z.z.z.z.z.z.z.z.*.# + ( 9.8.2 .   2.l.k.l.=.=.F.F.",
"F.F.l.c.S.S.S.S.. q w U U l 6 4 ; * 6 6 6 6 3 3 R i.+.+.o.u.a.h.p.o.+.+.#...7 6 6 o 6 6 6 6 ; o 6 z U S U , .   >.=.=.=.=.=.F.F.",
"F.F.k.l.Z.A.S.A.. s n r.w.w.9.9.A _ w.w.w.r._ ` w.T Y T _  .+.+.o.[ | } T w.7.t.r.n w.w.r.r.^ m r.w.w.w.w.9 .   2.-.=.=.=.=.F.F.",
"F.F.=.=.l.b.S.V.. v Z ` ` J K 8.C P 8.` ! ! P ^ ! ! J ! ^ N / / ) 4.4.C 4.! J ! 8.n ! ! 8.8.` Z 4.4.J 4.` 9 . . n.l.>.=.*.=.F.F.",
"F.F.=.=.l.b.V.b.X B B V V V V B V B V V V V B V V V B V B B B B V B V B V V B V B B V B V V V B V V B V V B X y n.l.;.=.=.=.F.F.",
"F.F.=.-.l.l.l.<.$.d.d.d.d.d.d.d.d.d.s.d.d.d.d.d.d.d.d.d.d.d.d.d.d.d.d.d.d.d.d.d.d.d.d.d.d.d.s.d.d.s.d.d.d.d.i. .n.l.;.=.=.=.F.F.",
"F.F.=.=.l.k.,.,.O.O.O.O.O.O.O.O.O.O.O.O.O.O.O.O.O.O.O.O.O.O.O.O.O.O.O.O.O.O.O.O.O.O.O.O.O.O.O.O.O.O.O.O.O.O.O.| n.l.;.=.=.=.F.F.",
"F.F.=.=.l.X I t.7.S _ y.y.y.y.] _ y.y.t.0.' S t.y.y.y.y.U y.y.y.w.w.w y.y.y.y.y.S y.y.y.y.y.S ] y.y.y._ w ] t.y.l . g.=.*.=.F.F.",
"F.F.m.m.>.. k K 8.Z P 8.8.8.8.( P 8.8.K 4.( Z 8.8.8.0.4.Z 0.4.W Q 4.w 9.8.9.8.8.Z 8.8.! 8.8.Z ( 8.9.0.4.P ( 4.! s .   =.,.<.F.F.",
"F.F.S.A.=.. - k x e k k k k k s h k m s k k 2 k k k x k 2 k k a k x q k k x x k 2 k k s k k 1 k k k x k 2 k x k -     =.l.l.F.F.",
"F.F.S.Z.=..   .     .   .   .     . .     $ .     .   . . .   .   .     .         . .   .   $ @ .     . .     .       k.V.Z.F.F.",
"F.F.S.Z.=.              i                 >.                                                ,.i                       l.A.S.F.F.",
"F.F.S.Z.=.              p                                                                                             A.S.S.F.F.",
"F.F.S.Z.=.-.l.n.S.S.S.S.S.b.c.=.=.l.c.S.Z.l.<.=.v.S.S.S.S.S.:.=.l.c.S.S.S.S.S.S.S.z.=.=.=.=.=.l.l.=.=.=.=.=.=.=.<.l.Z.S.S.S.F.F.",
"F.F.F.F.F.F.F.F.F.F.F.F.F.F.F.F.F.F.F.F.F.F.F.F.F.F.D.D.F.F.F.F.F.F.F.F.F.F.F.F.F.F.F.F.F.F.F.F.F.F.F.F.F.F.F.F.F.F.F.F.F.F.F.F.",
"F.F.F.F.F.F.F.F.F.F.F.F.F.F.F.F.F.F.F.F.F.F.F.F.F.F.D.D.F.F.F.F.F.F.F.F.F.F.F.F.F.F.F.F.F.F.F.F.F.F.F.F.F.F.F.F.F.F.F.F.F.F.F.F."
};
