/* XPM */
static char *result[] = {
/* columns rows colors chars-per-pixel */
"64 64 143 2 ",
"   c #696A6A",
".  c #6A6B6C",
"X  c #6B6B6C",
"o  c #6A6C6C",
"O  c #6C6C6E",
"+  c #6D6C6E",
"@  c #6E6E6F",
"#  c #6F6D70",
"$  c #6D6F71",
"%  c #6E6E70",
"&  c #6F6F71",
"*  c #706F71",
"=  c #706F72",
"-  c #6F7274",
";  c #717073",
":  c #717173",
">  c #727073",
",  c #737175",
"<  c #737274",
"1  c #737275",
"2  c #737376",
"3  c #747376",
"4  c #757277",
"5  c #757377",
"6  c #737577",
"7  c #767478",
"8  c #777479",
"9  c #76767A",
"0  c #76777B",
"q  c #78757A",
"w  c #78767A",
"e  c #7A767C",
"r  c #7A777C",
"t  c #7A767D",
"y  c #74787A",
"u  c #75787A",
"i  c #74787B",
"p  c #76787A",
"a  c #767B7D",
"s  c #79787D",
"d  c #7A787D",
"f  c #787B7D",
"g  c #7B787E",
"h  c #797A7E",
"j  c #797B7E",
"k  c #7C787E",
"l  c #7D797F",
"z  c #7D7980",
"x  c #7C7A81",
"c  c #7D7A81",
"v  c #7F7A81",
"b  c #797E80",
"n  c #797E81",
"m  c #7C7C82",
"M  c #7D7D82",
"N  c #7E7F85",
"B  c #807C83",
"V  c #817C83",
"C  c #807D84",
"Z  c #807E86",
"A  c #807F86",
"S  c #847E87",
"D  c #7A8083",
"F  c #7C8084",
"G  c #7F8087",
"H  c #7C8386",
"J  c #7C8387",
"K  c #808187",
"L  c #838189",
"P  c #808288",
"I  c #828288",
"U  c #838289",
"Y  c #83838A",
"T  c #85818A",
"R  c #83858B",
"E  c #86838D",
"W  c #83848C",
"Q  c #83858C",
"!  c #85848C",
"~  c #87848D",
"^  c #86858E",
"/  c #87868E",
"(  c #86868F",
")  c #86878F",
"_  c #81888D",
"`  c #81898D",
"'  c #888690",
"]  c #888790",
"[  c #828B90",
"{  c #838B91",
"}  c #868990",
"|  c #868991",
" . c #868A92",
".. c #858E94",
"X. c #878E94",
"o. c #898993",
"O. c #888A92",
"+. c #8A8A93",
"@. c #898B94",
"#. c #8A8B94",
"$. c #898D95",
"%. c #8A8C94",
"&. c #8B8C96",
"*. c #8B8D96",
"=. c #8C8F99",
"-. c #879197",
";. c #8A9299",
":. c #88939A",
">. c #8D9099",
",. c #8C919A",
"<. c #8C919B",
"1. c #8C939B",
"2. c #88949A",
"3. c #8E929C",
"4. c #8E939C",
"5. c #8C969D",
"6. c #8F959F",
"7. c #8E969E",
"8. c #90969F",
"9. c #8F97A0",
"0. c #8E9CA3",
"q. c #8E9CA4",
"w. c #9098A2",
"e. c #9198A2",
"r. c #929BA5",
"t. c #909CA4",
"y. c #929DA6",
"u. c #929FA7",
"i. c #939EA8",
"p. c #949EA8",
"a. c #95A1AB",
"s. c #94A5AD",
"d. c #95A5AD",
"f. c #97A4AE",
"g. c #97A5AF",
"h. c #97A6AF",
"j. c #98A7B1",
"k. c #98A9B2",
"l. c #99AAB4",
"z. c #9AAAB4",
"x. c #9BADB7",
"c. c #CBDBFC",
"v. c white",
/* pixels */
"v.v.v.v.v.v.v.v.v.v.v.v.v.v.v.v.v.v.v.v.v.v.v.v.v.v.v.v.v.v.v.v.v.v.v.v.v.v.v.v.v.v.v.v.v.v.v.v.v.v.v.v.v.v.v.v.v.v.v.v.v.v.v.v.",
"v.v.v.v.v.v.v.v.v.v.v.v.v.v.v.v.v.v.v.v.v.v.v.v.v.v.v.v.v.v.v.v.v.v.v.v.v.v.v.v.v.v.v.v.v.v.v.v.v.v.v.v.v.v.v.v.v.v.v.v.v.v.v.v.",
"v.v.x.j.S z   < S 6.x.=.S =   V S x.x.x.x.x.:.  [ x.x.x.a   V S x.x.x.x.x.x.x.x.x.x.x.a   V S x.j.S S S e   7 S r.x.x.x.x.x.v.v.",
"v.v.j.a.B g   > B ,.j.@.B 1 + L E x.x.x.x.x.:.  ` j.l.x.a   L E x.x.x.x.x.x.x.x.x.l.j.a   V S x.j.E T S e   4 B 9.j.x.x.x.x.v.v.",
"v.v.S V           7 S 1   z S j.x.x.x.x.x.x.:.  7 S r.x.a   d.x.x.x.x.x.x.x.x.x.x.=.S =   V S x.x.x.a.S e       r S a.x.x.x.v.v.",
"v.v.S V   X = = = 7 z =   I o.l.x.x.x.x.l.a.{   7 S r.x.a   t.a.x.x.x.l.a.a.a.a.a.+.S =   V S x.x.x.a.S e       r S w.a.a.a.v.v.",
"v.v.S V   * S S S 7       0.x.x.x.x.x.x.a.S e   7 S r.x.a   V S x.x.x.a.S S S S S S S =   V S x.x.x.a.S e       r S S S S S v.v.",
"v.v.t t 1 h =.=.=.K 1 +   X.r.l.x.x.z.r.1.t ,   ; t $.r.i   w t r.r.r.1.t t t t t t t @   w t r.r.r.6.S e       , t t t t t v.v.",
"v.v.  O S o.x.x.x.6.S 1   z S j.x.x.j.S z           r S =       S S S z                       S S S S S e                   v.v.",
"v.v.  O S o.x.x.x.6.S 1   1 7 <.6.6.3.S z           > 7 7 7 7 7 7 7 7 ,   % 7 7 7 7 7 7 7 7 7 7 7 7 7 7 7 7 7 7 @           v.v.",
"v.v.  O S o.x.x.x.6.S 1       V S S S S z               z S S S           < S S S S S S S S S           < S S S 1           v.v.",
"v.v.  X 1 s >.>.>.G 1 O       > 1 1 1 1 7 t t t :   1 t 1.r.r.r.t t t 3   < S &.r.r.r.r.r.T S   X t N 2.5.r.r.r.W t O       v.v.",
"v.v.      * S S S 7                     * S S S 7   r S a.x.x.x.S S S z   < S 6.x.x.x.x.x.~ S   O S o.x.x.x.x.x.=.S =       v.v.",
"v.v.z g   X * * * 7 z z z z z z z   X z Y a.6.S 7   r S a.x.x.x.a.a.a.9.z e * ..x.x.x.x.x.a.a.  O S T +.+.+.+.+.T S =   t z v.v.",
"v.v.S V           7 S S S S S S S   O S o.x.r.S 7   r S a.x.x.x.x.x.x.a.S e   [ x.x.x.x.x.x.x.  O S S S S S S S S S =   V S v.v.",
"v.v.S V   * B B B ,.j.j.j.j.j.~ S   - j.j.x.l.j.,.B 1 + C ~ j.x.x.x.x.a.S e   [ x.x.x.x.x.+.~     + + + + + + + + + .   u.j.v.v.",
"v.v.S V   * S S S 6.x.x.x.x.x.~ S   - x.x.x.x.x.6.S 1   z S j.x.x.x.x.a.S e   [ x.x.x.x.x.~ S                           d.x.v.v.",
"v.v.S V   * S =.x.x.x.x.x.x.x.x.x.  O S o.x.r.S S S 1       V S x.x.x.a.S e   7 S S S S S S S           < S S S S S =   V S v.v.",
"v.v.B z   * S =.x.x.x.x.x.x.x.x.x.+ * B ^ j.9.B B B ;       z B j.j.j.y.B e + 7 B B B B B B B + +       < S T E E E 1 + z B v.v.",
"v.v.      * S =.x.x.x.x.x.x.x.x.x.S V   * S e                   S S S z   < S 7               S V       < S 6.x.x.x.+.S +   v.v.",
"v.v.a a   * S =.x.x.x.x.x.x.x.x.x.S V   # z 7 = = = +           z z z t = d o.P a 6 = o   @ = o.) = @   < S 6.x.x.x.3.o.$   v.v.",
"v.v.x.d.  * S =.x.x.x.x.x.x.x.x.x.S V       < S S S 1                 * S =.x.x.x.=.S =   V S x.j.S z   < S 6.x.x.x.x.x.-   v.v.",
"v.v.x.k.H b t R r.r.r.r.r.r.r.r.r.S V   + 1 M =.=.=.M 1 1 1 o         * S +.r.r.r.+.S =   O.=.x.z.=.) 1 7 t ;.x.x.x.p.r.$   v.v.",
"v.v.x.x.x.q.  < S S S S S S S S S S V   * S =.x.x.x.=.S S S +         * S S S S S S S =   d.x.x.x.x.a.S e   [ x.x.x.+.S +   v.v.",
"v.v.6.6.6. .  % 7 7 7 7 7 7 7 7 7 7 7 7 M 6.p.x.x.x.p.6.6.6.s 7       + 7 7 7 7 7 7 7 7 7 g.x.6.6.6.>.S e   F 6.6.6.m 7 o   v.v.",
"v.v.S S S z                         O S o.x.x.x.x.x.x.x.x.x.~ S                       z S j.x.S S S S S e   7 S S S =       v.v.",
"v.v.1 1 1 :       : t t t t t o   t c r.p.x.a.>.p.x.x.x.x.x.~ S   X t t t t t t t t t 1 1 #.>.1 1 1 1 1 *   % 1 1 1 t t t t v.v.",
"v.v.              7 S S S S S +   S ~ x.x.x.r.S 6.x.x.x.x.x.~ S   O S S S S S S S S S =   V S                       z S S S v.v.",
"v.v.z z z q       7 S 3.a.] S +   S T +.3.x.j.a.6.+.+.+.f.x.~ S   O S ' a.a.a.a.a.a.a.Y z 1 * z z z z z z z 1   5 z 9.a.a.a.v.v.",
"v.v.S S S z       7 S r.x.+.S +   S S S o.x.x.x.6.S S S a.x.~ S   O S o.x.x.x.x.x.x.x.+.S +   S S S S S S S 7   r S a.x.x.x.v.v.",
"c.c.j.j.j.r.B w   7 S r.x.+.S +   S ~ j.j.x.x.x.l.j.&.S T ~ = + s.s.j.j.x.x.x.x.x.x.x.+.S +   S ~ j.r.S g + 7 B 9.j.l.x.x.x.v.v.",
"c.c.x.x.x.a.S e   7 S r.x.+.S +   S ~ x.x.x.x.x.x.x.=.S S S +   x.x.x.x.x.x.x.x.x.x.x.+.S +   S ~ x.a.S e   7 S r.x.x.x.x.x.v.v.",
"v.v.x.x.x.a.S e   7 S S S S S +   S S S o.x.x.x.x.x.=.S =   V S S ~ x.x.x.x.x.x.x.x.x.+.S +   S S S S S e   7 S r.x.x.x.x.x.c.c.",
"v.v.x.x.j.y.B q   4 B B B B B = + B B S ] j.l.x.l.j.*.S =   z B B U j.l.x.x.x.x.x.x.x.+.S +   B B B B B q   7 S r.x.x.x.x.x.c.c.",
"c.c.x.j.S z                   V S   O S S S =.x.6.S S S =         O S o.x.x.x.x.x.x.x.+.S +                 7 S r.x.x.x.x.x.v.v.",
"c.c.a.r.z t = = = +   + = = = ( o.= 1 z v S *.a.>.S S S =   @ = = 1 z Y a.a.a.a.a.a.a.Y z = = a a a a a y = 7 z 1.a.a.a.a.a.v.v.",
"v.v.S V   * S S S 7   r S S S j.x.S V   * S S S S S S S =   V S S V   * S S S S S S S =   V S x.x.x.x.x.r.S 7   r S S S S S v.v.",
"v.v.t t 1 h =.+.S 7   r S &.=.l.x.=.@.1 1 t l S S S z t 7 1 @.=.=.@.1 1 t t t t t t t @   V S r.r.r.r.r.>.S 7   , t t t t t v.v.",
"v.v.  O S o.x.r.S 7   r S a.x.x.x.x.j.S z   < S S S 1   z S j.x.x.j.S z                   V S S S S S S S S 7               v.v.",
"v.v.  O S ~ 6.} 7 7 7 | 6.j.x.x.x.x.z.6.$.7 7 7 7 7 7 7 $.6.l.x.x.j.S z                   4 7 7 7 7 7 7 7 7 *   > 7 7 7 7 7 v.v.",
"v.v.  O S S S e   7 S r.x.x.x.x.x.x.x.x.a.S e       r S a.x.x.x.x.j.S z                                         r S S S S S v.v.",
"v.v.  X 1 1 1 *   7 S r.x.x.x.x.x.x.z.>.*.S e   : t $.r.j.x.x.x.x.z.r.,.t 1       1 t t t t t t t t 3   * t t t $.r.r.r.T S v.v.",
"v.v.              7 S r.x.x.x.x.x.x.j.S S S e   7 S r.x.x.x.x.x.x.x.x.a.S e       r S S S S S S S S z   < S S S r.x.x.x.~ S v.v.",
"v.v.z z z z z z z 7 * G +.f.x.>.+.+./ * * * O   7 S r.x.x.x.x.x.x.x.x.a.S e   1 z ,.a.a.a.a.a.a.p.S z   < S =.a.l.x.x.x.0 * v.v.",
"v.v.S S S S S S S 7   r S a.x.~ S S V           7 S r.x.x.x.x.x.x.x.x.a.S e   7 S r.x.x.x.x.x.x.j.S z   < S 6.x.x.x.x.x.-   v.v.",
"v.v.S ~ j.j.j.j.j.,.B 1 + C ~ = + + * B B B B B 7 + x ~ f.x.x.x.x.x.x.x.j.9.B 7 + x ~ f.x.x.x.x.x.j.r.B e + s ~ i.x.x.x.-   v.v.",
"v.v.S ~ x.x.x.x.x.6.S 1   z S +     O S S S S S 7   r S a.x.x.x.x.x.x.x.x.r.S 7   r S a.x.x.x.x.x.x.a.S e   7 S r.x.x.x.-   v.v.",
"v.v.x.x.x.x.x.x.x.x.x.=.S =   V S S ~ x.x.x.x.x.6.S 1   z S j.x.x.x.x.x.x.r.S 7       z S j.x.x.j.S z   < S 7   r S S S +   v.v.",
"v.v.j.j.x.x.x.x.x.x.x.3.E =   V S E o.x.x.x.x.x.e.E 9 + r B a.j.j.j.j.j.j.9.B 7 + + + r B a.j.j.a.B z + 9 E d + r B B B +   v.v.",
"v.v.S ~ x.x.x.x.x.x.x.x.x.a   V S x.x.x.x.x.x.x.x.x.=.S =   V S S S S S S e   7 S S S =   V S S V   * S =.x.6.S 1           v.v.",
"v.v.z A a.f.x.l.a.a.a.a.a.i   ! o.x.x.x.x.x.x.x.x.x.$.z @   k z z z z z z 7 = M o.o.o.9 = z z z t = 9 o.e.x.r.o.j = o       v.v.",
"v.v.  O S o.x.r.S S S S S =   d.x.x.x.x.x.x.x.x.x.x.J                     < S 6.x.x.x.+.S +     O S o.x.x.x.x.x.=.S =       v.v.",
"v.v.  O S ~ r.$.t t t t t @   7.r.x.x.x.x.x.x.x.f.r.n   > 1 1 1 1 1 1 *   < S 6.x.x.x.e.=.$   1 9 =.6.x.x.x.x.x.=.S =       v.v.",
"v.v.  O S S S e               V S x.x.x.x.x.x.x.6.S 1   z S S S S S S z   < S 6.x.x.x.x.x.-   S ~ x.x.x.x.x.x.x.=.S =       v.v.",
"v.v.  O S B 7 7 7 7 7 7 7 7 7 7 7 6.6.6.6.6.6.6.Q 7 @   z S 3.6.6.3.S z   f 6.a.x.x.x.x.x.-   6.e.x.x.x.x.x.x.x.=.S =       v.v.",
"v.v.  O S z   < S S S S S S S +   S S S S S S S 7       z S j.x.x.j.S z   H x.x.x.x.x.x.x.-   x.x.x.x.x.x.x.x.x.=.S =       v.v.",
"v.v.2.-.1 7 t R r.r.r.r.r.~ S +   1 1 1 1 1 1 1 %       & 1 #.>.>.%.1 :   p >.>.>.a.x.8.>.$   >.4.x.x.x.x.x.x.x.=.S =   w t v.v.",
"v.v.x.d.  * S =.x.x.x.x.x.+.S +                             V S S V       < S S S r.x.+.S +   S ~ x.x.x.x.x.x.x.=.S =   V S v.v.",
"v.v.x.d.  u a.j.x.x.x.x.x.f.a.Z z   X z z z 8   1 z z z z z 1 * * * z z z e * * * G +.9 *     * 2 +.+.+.+.+.+.+.s * t z r.a.v.v.",
"v.v.x.d.  a x.x.x.x.x.x.x.x.x.~ S   O S S S e   7 S S S S S +     O S S S e       r S =         O S S S S S S S 1   z S j.x.v.v.",
"v.v.x.d.  * ~ 3.x.x.x.x.x.*.~ = + B U j.r.S e   _ j.j.j.j.j.-   B U j.j.j.h.s.s.s.D + .       B z + + + + + + + r B y.j.x.x.v.v.",
"v.v.x.d.  * S =.x.x.x.x.x.+.S +   S ~ x.a.S e   [ x.x.x.x.x.-   S ~ x.x.x.x.x.x.x.J           S V               r S a.x.x.x.v.v.",
"v.v.v.v.v.v.v.v.v.v.v.v.v.v.v.v.v.v.v.v.v.v.v.v.v.v.c.c.v.v.v.v.v.v.v.v.v.v.v.v.v.v.v.v.v.v.v.v.v.v.v.v.v.v.v.v.v.v.v.v.v.v.v.v.",
"v.v.v.v.v.v.v.v.v.v.v.v.v.v.v.v.v.v.v.v.v.v.v.v.v.v.c.c.v.v.v.v.v.v.v.v.v.v.v.v.v.v.v.v.v.v.v.v.v.v.v.v.v.v.v.v.v.v.v.v.v.v.v.v."
};
