/* XPM */
static char *result[] = {
/* columns rows colors chars-per-pixel */
"64 64 145 2 ",
"   c #7A0000",
".  c #662310",
"X  c #7F2310",
"o  c #713535",
"O  c #753739",
"+  c #783A3C",
"@  c #534721",
"#  c #654F35",
"$  c #6D5235",
"%  c #785C3F",
"&  c #7F3F43",
"*  c #655D4D",
"=  c #77584A",
"-  c #705253",
";  c #6B6254",
":  c #7E5C61",
">  c #6A6A6B",
",  c #7E7867",
"<  c #767168",
"1  c #757469",
"2  c #777A6C",
"3  c #6E6F71",
"4  c #706F72",
"5  c #6F7274",
"6  c #737275",
"7  c #767478",
"8  c #7A767C",
"9  c #767A7C",
"0  c #7A797E",
"q  c #860000",
"w  c #920000",
"e  c #9F0000",
"r  c #A00000",
"t  c #AB0000",
"y  c #B90000",
"u  c #B11208",
"i  c #8D2310",
"p  c #9B2310",
"a  c #891F22",
"s  c #8A2B2D",
"d  c #922A2B",
"f  c #883C33",
"g  c #B43233",
"h  c #C70000",
"j  c #D50000",
"k  c #E30000",
"l  c #DD3233",
"z  c #A14100",
"x  c #A64B2B",
"c  c #814A4D",
"v  c #865A48",
"b  c #885155",
"n  c #8A565B",
"m  c #925556",
"M  c #AA5556",
"N  c #A65D5E",
"B  c #956B47",
"V  c #9D725D",
"C  c #9C6F66",
"Z  c #A26566",
"A  c #A96C6D",
"S  c #BA6566",
"D  c #B66C6D",
"F  c #B17474",
"G  c #C46C6D",
"H  c #D66566",
"J  c #DE6C6D",
"K  c #C97474",
"L  c #E57474",
"P  c #978300",
"I  c #9F8058",
"U  c #A09656",
"Y  c #8E8876",
"T  c #A99468",
"R  c #A99B7C",
"E  c #D7906E",
"W  c #DD9B77",
"Q  c #7D7980",
"!  c #837E86",
"~  c #907C83",
"^  c #7D8186",
"/  c #828186",
"(  c #86838C",
")  c #86888D",
"_  c #8A8B8C",
"`  c #938289",
"'  c #9D9784",
"]  c #888790",
"[  c #848B91",
"{  c #8A8A93",
"}  c #8C8F99",
"|  c #908F93",
" . c #889294",
".. c #8E939D",
"X. c #96949A",
"o. c #B28789",
"O. c #A9A390",
"+. c #8F97A0",
"@. c #8E9CA4",
"#. c #929BA5",
"$. c #9F9CA2",
"%. c #949EA8",
"&. c #95A2AC",
"*. c #98A7B1",
"=. c #9BADB7",
"-. c #A5A5A9",
";. c #AAAAAD",
":. c #A2ABB2",
">. c #AAB3BA",
",. c #BABABC",
"<. c #C29798",
"1. c #F18080",
"2. c #D0AD9D",
"3. c #E2A780",
"4. c #EBB88E",
"5. c #EEBE93",
"6. c #CA9FA0",
"7. c #C9B4A7",
"8. c #CBBFB6",
"9. c #CEC4AE",
"0. c #D4C5AE",
"q. c #DCC4AF",
"w. c #CBC4B9",
"e. c #E5C1A1",
"r. c #F6CFA1",
"t. c #EBC7B6",
"y. c #E4D5BD",
"u. c #F2DBB6",
"i. c #FFE1AF",
"p. c #B2BBC1",
"a. c #C1C1C3",
"s. c #CACACC",
"d. c #DFD7CC",
"f. c #D1D1D2",
"g. c #D9D9DA",
"h. c #F6DDC8",
"j. c #F3E4CB",
"k. c #FBE7D0",
"l. c #FFF0D7",
"z. c #DFDFE0",
"x. c #CBDBFC",
"c. c #E5E5E6",
"v. c #E8E8E8",
"b. c #F3F3F3",
"n. c #FFFFFF",
/* pixels */
"n.n.n.n.n.n.n.n.n.n.n.n.n.n.n.n.n.n.n.n.n.n.n.n.n.n.n.n.n.n.n.n.n.n.n.n.n.n.n.n.n.n.n.n.n.n.n.n.n.n.n.n.n.n.n.n.n.n.n.n.n.n.n.n.",
"n.n.n.n.n.n.n.n.n.n.n.n.n.n.n.n.n.n.n.n.n.n.n.n.n.n.n.n.n.n.n.n.n.n.n.n.n.n.n.n.n.n.n.n.n.n.n.n.n.n.n.n.n.n.n.n.n.n.n.n.n.n.n.n.",
"n.n.=.*.! 0 > 6 ! +.=.} ! 4 > ! ! =.=.=.=.=. .> ^ =.=.=.Q > ! ! =.=.=.=.=.=.=.=.=.=.=.9 > Q ! =.*.! ! ! 8 > 7 ! #.*.=.=.=.=.n.n.",
"n.n.*.&.! 8 > 4 !  .*.{ ! 6 > ! ] =.=.=.=.=...> O                       n =.=.=.=.*.*.9 > ! ! =.*.] / ! 8 > 4 Q +.*.=.=.=.=.n.n.",
"n.n.! ! > > > > > 7 ! 6 > Q ! *.=.=.=.=.=.` c o X w w e t t t t t r w w s n n ` =.} ! 4 > ! ! =.=.=.&.! Q > > > 8 ! &.=.=.=.n.n.",
"n.n.! ! > > 4 4 3 7 Q 3 > / { *.=.=.=.=.*.b     w t t h k k k k k h t t w     b &.{ ! 4 > ! ! =.=.=.%.! 8 > > > 8 ! #.&.&.&.n.n.",
"n.n.! ! > 4 ! ! ! 7 > > > @.=.=.=.=.=.=.  w t t h k k k k k k k k k k k h t t w     & 4 > 0 ! =.=.=.&.! 8 > > > 8 ! ! ! ! ! n.n.",
"n.n.8 8 4 9 } } } / 6 3 > [ %.*.=.=.` n w t h h j k k k k k k k k k k k j h h t w w a O > 8 8 #.#.#.+.! 8 > > > 7 8 8 8 8 8 n.n.",
"n.n.> > ! { =.=.=.+.! 6 > Q ! *.=.=.n   t h k k k k k k k k k k k k k k k k k h t t w   > > > ! ! ! ! ! 8 > > > > > > > > > n.n.",
"n.n.> 3 ! { =.=.=.+.! 6 > 6 7 } ..  w t k k k k k k k k k k k k k k k k k k k k k t t t   + 7 7 7 7 7 9 7 7 7 8 > > > > > > n.n.",
"n.n.> > ! { =.=.=.+.! 6 > > > : & w e t h j k k k k k k k k k k k k k k k k k k k h y t w a & > > > > > 4 ! ! ! 7 > > > > > n.n.",
"n.n.> > 5 Q } ..} ! 6 3 > > > O   t t t t h k k k k k k k k k k k k k k k k k k k k h t t w   > > 8 Q } X.#.#.#./ 8 3 > > > n.n.",
"n.n.> > > 3 ! ! Q Q > > > > > ) ;.s.s.s.s.s.s.k k k k k k k k k k k k t h k k k k k k k t w   > 3 ! { =.=.=.=.=.} ! 4 > > > n.n.",
"n.n.Q 8 > > 3 3 5 Q C 0 Q Q { -.,.g.z.c.c.z.g.L J H H l k k k k k k k h h h h j k k k k t r w o - ! ! { { ] { { ( ! 4 > 7 8 n.n.",
"n.n.! ! > > 3 5 > 5 ! ! ! ! ;.,.s.v.b.n.n.b.v.v.g.s.s.H k k k k k k k k h t t h k k k k t t t   O ! ! ! ! ! ! ! ! ! 3 > ! ! n.n.",
"n.n.! ! > 5 Q ^ ^ ^ *.*.*.*.;.,.s.v.b.n.n.n.n.n.n.n.n.b.v.s.S t k k k k k k t t t t h k k h t   o 3 3 3 3 4 > 3 3 > > > @.*.n.n.",
"n.n.! ! > 4 ! ! / +.=.=.=.=.;.,.s.g.v.b.n.n.n.n.n.n.n.n.b.g.6.S h h h k k k t e w t y h k h t   o > > > > > > > > > > > &.*.n.n.",
"n.n.! ! > > ! } =.=.=.=.=.=.;.,.s.s.g.v.n.n.n.n.n.n.n.n.n.c.g.s.t t t k k k t w   t t t k h t   o > > > 7 ! ! ! ! ! 4 > ! ! n.n.",
"n.n.Q 8 > 4 ! } =.=.=.=.=.=.=.2 @ E E E s.s.s.v.v.v.n.n.n.n.b.v.s.S t t h k k h t   w t t h k t w   > > 7 ! ( ( / ( 6 3 0 ! n.n.",
"n.n.> > > 4 ! } =.=.=.=.=.=.=.2 @ E W 3.q.8.,.s.f.g.c.v.b.n.b.b.g.6.S t y h k h t   q w t y h t w   > > 4 ! +.=.=.=.{ ! > > n.n.",
"n.n.9 9 > 4 ! } =.=.=.=.=.=.=.2 @ W W 5.5.7.;.;.,.s.s.g.v.n.n.n.v.g.s.t t t k h t       t t t t w   > > 7 ! +.=.=.=...{ 3 > n.n.",
"n.n.=.&.> 4 ! } =.=.=.=.=.=.=.1 @ 5.5.5.n.n.n.v.v.v.;.,.s.v.b.n.n.b.v.s.S y t t t t w     w t t w   Q > 7 ! +.=.=.=.=.=.6 > n.n.",
"n.n.=.=.^ 0 8 ) #.#.#.#.#.#.#.< @ 5.e.q.b.b.n.b.b.b.s.a.,.g.c.b.b.b.b.g.o.N t t t t w   m d w w s m ) 6 7 8  .=.=.=.%.#.3 > n.n.",
"n.n.=.=.=.#.> 4 ! ! ! ! ! / ! ; @ 5.q.s.v.b.n.n.n.n.c.s.;.s.g.c.v.b.n.v.s.;.t t t t w   ;.m     m ;.&.! 8 > [ *.=.=.{ ! > > n.n.",
"n.n...+.+.{ > > 8 7 7 7 7 7 7 * @ 5.r.i.s.g.v.n.n.n.n.c.s.s.,.;.s.g.v.v.v.v.;.M t t w   ;.s.v.s.g.v.;.X.8 > ^ ..+.+.Q 7 > > n.n.",
"n.n.! ! ! 0 > > > > > > > > > < C 5.r.i.y.d.g.c.v.b.b.c.g.,.w.0.,.s.g.v.v.v.,.o.M w q   ,.f.v.c.v.v.,.$.8 > 7 ! ! ! 4 > > > n.n.",
"n.n.6 6 > 6 > > > 6 8 8 8 8 8 _ ;.e.r.i.i.y.s.s.g.v.v.v.v.;.0.i.;.8.s.v.v.v.s.,.;.      s.g.v.n.b.v.s.X.4 > > 7 7 4 8 8 8 8 n.n.",
"n.n.> > > > > > > 7 ! ! ! ! ;.s.v.c.g.s.s.y.i.i.y.s.;.;.;.n.t.E E O.;.s.s.s.s.,.;.  & 4 ;.,.s.v.g.s.;._ > > > > > > Q ! ! ! n.n.",
"n.n.Q Q Q 8 > > > 6 ! ..%.] ;.s.v.b.v.c.g.d.y.i.u.y.0.w.s.n.h.4.2.7.,.,.a.s.s.,.;.n ~ ( X.-.,.s.a.,.X._ Q Q 7 > 7 8 #.&.&.&.n.n.",
"n.n.! ! ! 0 > > > 7 ! #.=.{ ;.s.v.n.n.n.v.g.s.i.i.i.i.j.v.n.l.i.s.s.s.;.,.s.s.,.;.=.=.] ! _ ;.;.;.;.! ! ! ! 7 > 8 ! &.=.=.=.n.n.",
"x.x.*.*.*.#.! 8 > 7 ! #.:.;.s.s.s.v.b.n.n.b.v.s.s.s.v.b.n.v.g.s.s.p.;.  m ;.;.:.=.=.=.| ! 4 > ! ] *.#.! 8 > 7 ! +.*.*.=.=.=.n.n.",
"x.x.=.=.=.&.! 8 > 7 ! #.:.;.g.z.z.b.b.b.n.b.b.v.c.c.b.b.b.g.f.s.S N m   s m :.:.=.=.=.] ! > > ! ( =.&.! 8 > 7 ! #.=.=.=.=.=.n.n.",
"n.n.=.=.=.&.! 8 > 5 ! ! X.;.v.b.n.n.b.c.n.n.n.n.n.n.n.b.v.s.s.s.t w         =.=.=.=.=.{ ! 4 > ! ! ! ! ! 8 > 7 ! #.=.=.=.=.=.x.x.",
"n.n.=.=.*.#.Q Q > Q C ! X.;.v.b.n.n.n.n.n.n.n.n.b.v.v.g.s.s.S t k h t       =.=.=.=.=.{ ! > > ! Q ! ! Q 7 > 7 ! #.=.=.=.=.=.x.x.",
"x.x.=.*.! Q > > > > > > ] ;.v.b.n.n.n.n.n.n.b.b.c.g.g.6.S Z g h k j h       =.=.=.=.=.{ ! > > > > > > > > > 7 ! #.=.=.=.=.=.n.n.",
"x.x.%.#.Q Q 4 4 5 > > 4 _ ;.v.b.n.n.n.n.n.b.v.v.g.s.s.S t   t k k k k       &.&.&.%.&.! ! 4 4 0 9 9 9 9 7 4 7 0 ..&.&.&.&.&.n.n.",
"n.n.! ! > 3 ! ! Q 5 > Q ! ! s.g.c.n.b.v.v.g.s.s.S r t h k   t k k k k   . @ ! ! ! ! ! 4 > ! ! =.=.=.=.=.#.! 7 > 8 ! ! ! ! ! n.n.",
"n.n.8 8 5 Q } { ^ Q > Q ! } ,.f.v.b.c.g.s.<.S Y v i X i p Z G L 1.1.1.m = @ 8 8 8 8 8 3 > ! ! #.#.#.#.#...! 7 > 6 8 8 8 8 8 n.n.",
"n.n.> > ! } =.@.! 5 > Q ! &.;.s.v.v.g.s.;.M t @ @ @ @ @ @ s.g.v.n.n.n.;., @ > > > > > > > Q ! ! ! ! ! ! ! ! 7 > > > > > > > n.n.",
"n.n.> > ! ! ..[ Q 5 Q ^ +.*.*.p.s.;.U P @ X t @ @ @ @ @ @ v.b.n.n.n.n.;.m     o > > > > > 4 7 7 7 7 7 7 7 7 4 > 4 7 7 7 7 7 n.n.",
"n.n.> 3 ! ! ! 8 > 7 ! #.=.=.=.>.,.M x z p u h p p p p p p ' 9.l.l.k.h., f w   o > > > > > > > > > > > > > > > > 8 ! ! ! ! ! n.n.",
"n.n.> > 4 4 4 4 > 7 ! #.=.=.=.:.;.t t t k k k k k k k k k @ T i.i.r.5.@ X t   o > 5 8 8 8 Q 8 8 8 8 7 > 4 8 8 8 { #.#.%.( ! n.n.",
"n.n.> > > > > > > 7 ! #.=.=.=.=.=.;.,.s.k k k k k k k k k @ T i.i.4.E @ X t ;._ > 8 ! ! ! ! ! ! ! ! Q > 4 ! ! ! #.=.=.=.) ! n.n.",
"n.n.Q Q 8 Q Q ! Q 7 4 ^ { *.=.} { X.;.,.H J L 1.1.1.1.1.1.O.R T T I B Y C M _ ! 0 } &.&.&.&.&.&.%.! 8 > 7 ! } &.*.=.=.=.7 4 n.n.",
"n.n.! ! ! ! ! ! ! 7 > 8 ! %.=.( ! ! X.;.s.g.v.n.n.n.n.n.n.n.O.@ @ @ @ s.,.;.> 7 ! #.=.=.=.=.=.=.*.! Q > 7 ! ..=.=.=.=.=.6 > n.n.",
"n.n.! ( *.*.*.*.*...Q 6 4 ! ( 4 4 > 4 ! ;.,.s.s.g.v.v.v.v.v.v.v.v.g.s.;.*.+.! 7 3 Q ( &.=.=.=.=.*.*.#.! 8 > 8 ) %.=.=.=.5 > n.n.",
"n.n.! ] =.=.=.=.=.X.! 7 > 8 ! > > > > ! X.$.-.Z D K K K K K K K F A Z :.:.#./ 7 > 8 ! &.=.=.=.=.=.=.&.! 8 > 7 ! #.=.=.=.5 > n.n.",
"n.n.=.=.=.=.=.=.=.=.=.} ! 4 > ! ! ! ] =.=.=.=.  w t t t t t t t       =.=.#.! 8 > > > 0 ! *.=.=.*.! Q > 7 ! 7 > 0 ! ! ! > > n.n.",
"n.n.*.*.=.=.=.=.=.=.=.X.( 3 > Q ! ! } =.=.=.=.=.2 @ V V V v v = @ 2 *.*.*...! 7 3 4 > 8 Q &.*.*.&.Q Q > 7 ( Q > 8 ! Q ! > > n.n.",
"n.n.! ( =.=.=.=.=.=.=.=.=.Q 3 Q ! =.=.=.=.=.=.=.} 2 % % % $ $ # ; < ! ! ! 8 > 7 ! ! / 4 > ! ! ! ! > 6 ! } =.+.! 4 > > > > > n.n.",
"n.n.Q ! &.&.=.*.&.&.&.&.&.9 > ( { =.=.=.=.=.=.=.=.=.@ @ @ @ @ @ Q Q Q Q Q 7 4 Q { { { 8 4 Q 0 Q 8 4 7 { #.=.%.{ Q 3 > > > > n.n.",
"n.n.> > ! { =.#.! ! ! ! Q 5 > &.=.=.=.=.=.=.=.=.=.=.^ > > > > > > > > > > 6 ! +.=.=.=.{ ! > > > 3 ! { =.=.=.=.=.} ! 4 > > > n.n.",
"n.n.> > ! ] #.{ 8 8 8 8 Q 3 > ..#.=.=.=.=.=.=.=.&.#.Q > 6 6 7 6 6 6 6 4 > 6 ! +.=.=.=.+.} 3 > 6 7 } +.*.=.=.=.=.} ! 3 > > > n.n.",
"n.n.> 3 ! ! ! 8 > > > > > > > Q ! =.=.=.=.=.=.=.+.! 4 > Q ! ! ! ! ! ! Q > 6 ! ..=.=.=.=.=.5 > ! ( =.=.=.=.=.=.=.} ! 4 > > > n.n.",
"n.n.> > ! Q 7 7 7 7 7 7 7 7 7 7 7 ..+.+.+.+.+...) 7 3 > Q ! ..+.+...! Q > Q +.%.=.=.=.=.=.5 > +.#.=.=.=.=.=.=.=.} ! 4 > > > n.n.",
"n.n.> > ! ! > 7 ! ! ! ! ! ! ! 3 > ! ! ! ! ! ! ! 7 > > > Q ! *.*.=.*.! Q > ^ =.=.=.=.=.=.=.6 > *.=.=.=.=.=.=.=.=...! > > > > n.n.",
"n.n. . .6 7 8 ) #.#.#.#.#.] ! 3 > 4 7 4 6 6 4 7 3 > > > > 6 { ..} { 4 4 > 7 ..} ..%.=.+.} 4 > } ..=.=.:.=.=.=.=.} ! 4 > 8 8 n.n.",
"n.n.=.*.> 4 ! } =.=.=.=.=.{ ! > > > > > > > > > > > > > > > ! ! ! ! > > > 6 ! ! ! #.=.{ ! > > ! ] =.=.=.=.=.=.=.} ! 4 > ! ! n.n.",
"n.n.=.&.> 7 %.*.=.=.=.=.=.&.%.! Q > > Q Q Q 7 > 6 0 Q Q Q Q 6 3 4 4 Q ! 8 8 4 4 4 ^ [ 7 6 > > 4 6 { { { { { { { 8 4 8 Q #.&.n.n.",
"n.n.=.&.> 9 =.=.=.=.=.=.=.=.=.] ! > 3 ! ! ! 8 > 8 ! ! ! ! ! 3 > > > ! ! ! 8 > > > 0 ! 5 > > > > 3 ! ( ! ! ! ! ! 6 > Q ! *.*.n.n.",
"n.n.=.&.> 3 ] ..=.=.=.=.=.} ( 4 > ! / *.#.! 8 > ) &.*.*.*.*.6 > ! / *.*.*.*.&.&.&.^ > > > > > ! Q > > 3 > > 3 > 8 ! #.*.=.=.n.n.",
"n.n.=.&.> 4 ! } =.=.=.*.=.{ ! 3 > ! ) =.&.! 8 > [ =.=.=.=.*.5 > ! ) =.=.=.=.=.=.=.Q > > > > > ! ! > > > > > > > 8 ! &.=.=.=.n.n.",
"n.n.n.n.n.n.n.n.n.n.n.n.n.n.n.n.n.n.n.n.n.n.n.n.n.n.x.x.n.n.n.n.n.n.n.n.n.n.n.n.n.n.n.n.n.n.n.n.n.n.n.n.n.n.n.n.n.n.n.n.n.n.n.n.",
"n.n.n.n.n.n.n.n.n.n.n.n.n.n.n.n.n.n.n.n.n.n.n.n.n.n.x.x.n.n.n.n.n.n.n.n.n.n.n.n.n.n.n.n.n.n.n.n.n.n.n.n.n.n.n.n.n.n.n.n.n.n.n.n."
};
