/* XPM */
static char *fa9fd1ac273e4f6bc9dca2d82aae9491V4fW8ZS1hzqehTsT[] = {
/* columns rows colors chars-per-pixel */
"64 64 144 2 ",
"   c #7A0000",
".  c #7F2310",
"X  c #713535",
"o  c #753739",
"O  c #783A3C",
"+  c #756510",
"@  c #534721",
"#  c #654F35",
"$  c #6F5235",
"%  c #73573A",
"&  c #785C3F",
"*  c #7F3F43",
"=  c #5E5845",
"-  c #675743",
";  c #675F4F",
":  c #755C4A",
">  c #6A6253",
",  c #7E5C61",
"<  c #6A6A6B",
"1  c #7E7867",
"2  c #6E6F71",
"3  c #706F72",
"4  c #6F7274",
"5  c #737275",
"6  c #767478",
"7  c #7A767C",
"8  c #767A7C",
"9  c #7A797E",
"0  c #860000",
"q  c #920000",
"w  c #9F0000",
"e  c #851D1E",
"r  c #A00000",
"t  c #AB0000",
"y  c #B90000",
"u  c #B11208",
"i  c #9E3208",
"p  c #9B2310",
"a  c #891F22",
"s  c #862A2B",
"d  c #9E2A2B",
"f  c #AB2A2B",
"g  c #B33233",
"h  c #C70000",
"j  c #D50000",
"k  c #E30000",
"l  c #A14100",
"z  c #9E443B",
"x  c #824549",
"c  c #8B5E4A",
"v  c #9C5D4A",
"b  c #885155",
"n  c #8A565B",
"m  c #925556",
"M  c #9A5D5E",
"N  c #AA5556",
"B  c #956B47",
"V  c #946853",
"C  c #99755E",
"Z  c #9A6F71",
"A  c #92787E",
"S  c #A26566",
"D  c #AE6566",
"F  c #BA6566",
"G  c #A4776E",
"H  c #B77474",
"J  c #C16A6B",
"K  c #D66566",
"L  c #C97474",
"P  c #E57474",
"I  c #EB7A7A",
"U  c #978300",
"Y  c #A0825A",
"T  c #8E8876",
"R  c #A99468",
"E  c #B69B7D",
"W  c #D7906E",
"Q  c #7D7980",
"!  c #837E86",
"~  c #9C7C80",
"^  c #7D8186",
"/  c #808187",
"(  c #86848C",
")  c #81898D",
"_  c #898A8C",
"`  c #9B8083",
"'  c #938289",
"]  c #9D9784",
"[  c #888790",
"{  c #848B91",
"}  c #8A8A93",
"|  c #8C8F99",
" . c #879197",
".. c #8E939D",
"X. c #939095",
"o. c #96949B",
"O. c #99999C",
"+. c #B28789",
"@. c #A9A390",
"#. c #BAAB98",
"$. c #8F97A0",
"%. c #8E9CA4",
"&. c #929BA5",
"*. c #9A9AA0",
"=. c #949EA8",
"-. c #95A2AC",
";. c #9DA5AC",
":. c #98A7B1",
">. c #9BADB7",
",. c #AAAAAD",
"<. c #A3ABB2",
"1. c #AEB3B7",
"2. c #BABABC",
"3. c #CD9188",
"4. c #C88F91",
"5. c #C29799",
"6. c #F18080",
"7. c #D0AD9D",
"8. c #DFB497",
"9. c #E2A780",
"0. c #EBB88E",
"q. c #EEBE93",
"w. c #DFA6A7",
"e. c #CCB4A0",
"r. c #D4C5AE",
"t. c #DCC4AF",
"y. c #C7C0B5",
"u. c #DCCDB6",
"i. c #E4D5BD",
"p. c #F2DBB6",
"a. c #FFE1AF",
"s. c #C1C1C3",
"d. c #CACACC",
"f. c #D2D2D4",
"g. c #D9D9DA",
"h. c #F6DEC9",
"j. c #E8DCD1",
"k. c #FFF0D7",
"l. c #DFDFE0",
"z. c #CBDBFC",
"x. c #E4E4E5",
"c. c #E8E8E8",
"v. c #F3F3F3",
"b. c #FFFFFF",
/* pixels */
"b.b.b.b.b.b.b.b.b.b.b.b.b.b.b.b.b.b.b.b.b.b.b.b.b.b.b.b.b.b.b.b.b.b.b.b.b.b.b.b.b.b.b.b.b.b.b.b.b.b.b.b.b.b.b.b.b.b.b.b.b.b.b.b.",
"b.b.b.b.b.b.b.b.b.b.b.b.b.b.b.b.b.b.b.b.b.b.b.b.b.b.b.b.b.b.b.b.b.b.b.b.b.b.b.b.b.b.b.b.b.b.b.b.b.b.b.b.b.b.b.b.b.b.b.b.b.b.b.b.",
"b.b.>.:.! 9 < 5 ! o.>.| ! 3 < Q ! >.>.>.>.>. .< { >.>.>.9 < ! ! >.>.>.>.>.>.>.>.>.>.>.8 < Q ! >.:.! ! ! 7 < 6 ! &.:.>.>.>.>.b.b.",
"b.b.:.-.! 7 < 3 !  .:.} ! 5 2 / ( >.>.>.>.>. .< ^ :.                        >.>.>.:.:.8 < ! ! >.:.( ( ! 7 < 5 Q $.:.>.>.>.>.b.b.",
"b.b.! ! < < < < < 6 ! 5 < Q ! :.>.>.>.>.>.>. .X O : q q q t t t t t t q q q n n n ..! 3 < Q ! >.>.>.-.! 7 < < < 7 ! -.>.>.>.b.b.",
"b.b.! ! < < 3 3 2 5 Q 4 < / } :.>.>.>.>.>.-.{     0 t t t k k k k k k t t t       [ ! 3 < ! ! >.>.>.=.! 7 < < < 7 ! &.-.-.-.b.b.",
"b.b.! ! < 3 ! ! ! 6 < < < %.>.>.>.>.>.>.      t t t k k k k k k k k k k k k t t t   * 4 < ! ! >.>.>.-.! 7 < < < 7 ! ! ! ! ! b.b.",
"b.b.7 7 3 8 | | ../ 6 < < } =.:.>.>.' n q q q h h h k k k k k k k k k k k k h h h q a o < 6 7 &.&.&.$.! 7 < < < 5 7 7 7 7 7 b.b.",
"b.b.< < ! [ >.>.:.$.! 6 < Q ! :.>.>.n   t t t k k k k k k k k k k k k k k k k k k t q   < < < ! ! ! ! ! 7 < < < < < < < < < b.b.",
"b.b.< 3 ! [ >.>.>.$.! 5 < 5 6 | o.  q t t h k k k k k k k k k k k k k k k k k k k k h t   O 5 6 6 6 6 6 6 6 6 6 < < < < < < b.b.",
"b.b.< < ! } >.>.>.$.! 3 < < < , * q r t h j k k k k k k k k k k k k k k k k k k k h y t q a * < < < 2 < 3 ! ! ! 6 < < < < < b.b.",
"b.b.< < 5 9 | ..| / 5 2 < < < o   t t t k k k k k k k k k k k k k k k k k k k k k t t t t q   < < 7 Q  .$.&.=.=.( 7 < < < < b.b.",
"b.b.< < < 2 ! ! ! 6 < < < < < X   t h k k k k k k k t h k k k k k k k k k k k K d.d.d.d.d.2.,.< 2 ! } >.<.>.>.>.| ! 2 < < < b.b.",
"b.b.9 9 < < 3 3 3 6 Q Q Q 7 O e q t h k k k k h h h h j k k k k k k k K K K P w.g.x.x.x.g.d.2._ Q ! ! } } } } } ( ! 3 < 6 Q b.b.",
"b.b.! ! < < < < < 6 ! ! ! !   q t t h k k k k t t t k k k k k k k k k d.d.d.c.c.c.b.b.b.c.g.d.,.} ! ! ! ! ! ! ! ! ! 2 < Q ! b.b.",
"b.b.! ! < 3 Q Q ! ..:.:.:.:.  q t k k k t t t t h k k k k k h t d.g.c.b.b.b.b.b.b.b.b.b.c.g.d.,._ < 2 2 < 3 < 3 < 2 < < =.:.b.b.",
"b.b.! 9 < 3 ! ! ( o.>.>.>.>.  q t k j h t w q t h k k j h h g F g.x.v.b.b.b.b.b.b.b.v.v.g.f.d.,._ < < < < < < < < < < < -.>.b.b.",
"b.b.! ! < 2 ! | >.>.>.>.>.>.  q t k h t t q   t h k k h t t F d.c.v.b.b.b.b.b.b.b.b.v.c.d.d.d.,._ < < < 5 ! ! ! ! ! 2 < Q ! b.b.",
"b.b.! 7 < 3 ! | >.>.>.>.n   t h k t t t   q t k k k t t t d.g.c.b.b.b.b.v.c.x.g.d.d.7.W W B @ 2 < < < < 5 ! ( ( ( ( 6 2 9 ! b.b.",
"b.b.< < < 3 ! | >.>.>.>.n   t y h t w q   q t k j h t g F g.c.v.b.v.v.x.l.g.d.s.2.t.8.9.W B @ ! ! < < < 5 ! $.>.:.>.} ! < < b.b.",
"b.b.8 8 < 3 ! X.>.>.>.>.n   t t t t q     q t j h t t F d.c.v.b.b.v.c.d.d.d.,.,.,.q.q.q.W B @ [ ( 2 < < 5 ! o.>.>.>...} 2 < b.b.",
"b.b.>.:.< 2 ! | >.>.>.>.n   t t t       t t t t t t d.g.c.b.b.b.c.g.d.,.d.c.c.v.b.b.h.q.q.Y @ >.:.! 9 < 5 ! ..>.>.>.>.>.5 < b.b.",
"b.b.>.:.^ Q 7 ( &.&.&.&.A m q q q m s   t t t t f N g.x.v.v.v.v.g.d.2.d.l.v.v.v.b.v.j.t.q.Y @ >.:.| ( 5 7 7 ..>.>.>.=.&.2 < b.b.",
"b.b.>.>.>.%.< 5 ! ! ! ! o.,.      ,.m   t t t t N ,.c.v.b.c.c.c.d.2.,.c.v.b.b.b.b.c.g.d.q.Y @ >.>.>.-.( 7 < ) >.>.>.} ! < < b.b.",
"b.b...$.$.[ < 2 6 5 6 ,.d.c.d.g.c.,.m   t t t ,.d.c.c.c.c.d.2.,.d.d.d.b.b.b.b.v.c.d.i.a.q.Y @ $.....| ! 7 < Q $.$.$.Q 6 < < b.b.",
"b.b.! ! ! 9 < < < < < 2.f.c.x.x.c.2.M   q d N 2.f.c.c.l.g.2.y.r.2.d.g.v.v.v.x.g.g.i.p.a.q.E 1 ! ! ! ! ! 7 < 7 ! ! ! 3 < < < b.b.",
"b.b.5 5 5 2 < < < 5 7 d.g.c.b.v.c.d.S     m ,.d.g.c.c.g.d.,.r.a.,.d.c.c.c.c.d.d.d.a.a.a.q.e.,.5 6 5 5 5 4 < < 5 5 5 7 7 7 7 b.b.",
"b.b.< < < < < < < 6 ! ,.2.d.c.g.d.,.*.>.  m ,.d.d.d.d.2.,.W W W b.f.,.,.2.d.a.a.a.d.d.d.c.c.c.,._ < < < < < < < < < Q ! ! ! b.b.",
"b.b.Q Q Q 6 < < < 5 ! ;.1.2.d.s.2.o.X.} x ~ ,.d.d.d.2.2.2.7.8.0.b.x.d.r.u.i.a.p.i.g.l.x.v.v.c.,.X.Q 9 Q ! Q 5 < 6 Q $.-.-.-.b.b.",
"b.b.! ! ! Q < < < 6 ! &.<.,.,.,.,.! ! ! } <.,.d.d.d.,.2.d.d.i.a.b.v.c.a.a.a.a.i.d.c.v.b.b.v.c.,.o.! ! ! ! ! 6 < 7 ! -.>.>.>.b.b.",
"z.z.:.:.:.&.Q 7 < 5 ! &.>.} ! < < ! [ :.:.>.>.,.,.,.  m ,.d.d.d.c.v.b.c.g.d.d.g.c.b.b.b.c.g.d.d.2.,.&.! 7 < 6 ! $.:.>.>.>.>.b.b.",
"z.z.>.>.>.-.! 9 < 6 ! &.>.} ! 2 < ! ( >.>.>.>.<.~ n   s m F 5.d.g.x.v.v.c.c.c.c.v.b.v.v.v.c.x.g.s.,.-.! 7 < 5 ! &.>.>.>.>.:.b.b.",
"b.b.>.>.>.-.! 7 < 6 ! ! ! ! ! < < ! ! ! } >.>.>.n         t F d.d.g.c.b.b.b.b.b.b.b.v.c.b.b.b.c.d.,.! ! 7 < 6 ! &.>.>.>.>.>.z.z.",
"b.b.>.>.:.&.Q 7 < 3 ! ! ! ! ! 3 < ! ! ! [ -.>.>.n     q t k h t d.d.d.c.c.c.b.b.b.b.b.b.b.b.b.c.d.,.! Q 7 < 6 ! &.>.>.>.>.>.z.z.",
"z.z.>.:.! Q < < < < < < < < < ! ! < < ! ! ! | >.n     w h k j h S D F g.g.g.v.v.v.b.b.b.b.b.b.c.d.,.< < < < 6 ! &.>.>.>.>.>.b.b.",
"z.z.-.&.Q 7 3 3 3 < < < 3 < 3 ( } 3 5 7 ! ! | -.b     t k k k k   q t d.d.d.c.c.x.b.b.b.b.b.b.c.d.,.8 8 6 3 6 9 ..-.-.-.-.-.b.b.",
"b.b.! ! < 2 ! ! ! 6 < 7 ! ! ! :.>.! ! < 3 ! ! ! > @   t k k k k   t k t t t d.d.d.c.c.c.b.v.c.d.1.>.>.>.&.! 6 < 7 ! ! ! ! ! b.b.",
"b.b.7 7 5 Q ..[ ! 6 < 7 ! | | >.>.| } 5 5 7 9 ! > @ m J 6.6.I P S z p . . . T G F d.f.g.v.v.c.2.<.&.&.&...! 6 < 5 7 7 7 7 7 b.b.",
"b.b.< < ! } >.&.! 6 < 7 ! =.>.>.>.>.:.! 9 < 5 ! > @ ,.f.b.b.v.c.d.T @ @ @ @ @ . t ,.2.d.x.c.c.,.O.! ! ! ! ! 5 < < < < < < < b.b.",
"b.b.< < ! ( $.[ 6 6 6 [ $.:.>.>.>.>.:.$.| 6 6       ,.g.b.b.b.b.c.] @ @ @ @ @ . t @ + U ,.2.d.6 6 6 7 6 5 7 3 < 3 7 5 7 5 5 b.b.",
"b.b.< < ! ! ! 7 < 6 ! &.>.>.>.>.>.>.>.>.=.! 7   0 q 1 #.h.k.k.k.] v p p p p p u h p i l N +.2.< < < < < < < < < 7 ! ! ! ! ! b.b.",
"b.b.< < 5 5 5 5 < 6 ! &.>.>.>.>.>.>.>.| | ! 7   q t @ Y q.a.a.a.@ p k k k k k k k k h t t N ,.7 7 7 5 < 3 7 7 7 | &.&.&.( ! b.b.",
"b.b.< < < < < < < 6 ! &.>.>.>.>.>.>.:.! ! ! 7 ,.N t @ B W a.a.a.@ p k k k k k k k k K d.,.o.! ! ! ! 7 < 5 ! ! ! &.>.>.>.( ! b.b.",
"b.b.Q Q Q Q Q 9 Q 6 3 / } -.>...} } [ 3 3 3 3 _ Z N T C B R R R @.3.6.6.6.6.6.I P K 4.2.<.;.-.-.=.! Q < 5 ! ..-.:.>.>.>.6 3 b.b.",
"b.b.! ! ! ! ! ! ! 6 < 7 ! =.>.( ! ! ! < < < < < _ ,.d.T @ @ @ @ b.b.b.b.b.b.b.v.c.d.2.,.>.>.>.>.:.! Q < 5 ! $.:.>.>.>.>.6 < b.b.",
"b.b.! ( :.:.:.:.:.| ! 3 2 ! ( 3 2 2 2 Q ! ! A 9 6 < ,.2.d.c.c.c.c.c.c.c.c.c.d.d.d.,.o.-.>.>.>.>.>.:.&.! 7 < 9 [ =.>.>.>.4 < b.b.",
"b.b.! ( >.>.>.>.>.$.! 5 < Q ! < < < 2 ! ! ! Q / 6 < X.~ S H H L L L L L L L S ` O.X._ -.>.>.>.>.>.>.=.! 7 < 6 ! &.>.>.>.4 < b.b.",
"b.b.>.>.>.>.>.>.>.>.>.| ! 3 < ! ! ! ( >.>.>.>.>.$.! 5 X     q t t t t t t t   X < < < Q ( :.>.>.:.! Q < 5 ! 6 < 9 ! ! ! < < b.b.",
"b.b.:.:.>.>.>.>.>.>.>...( 2 < Q ! ! } >.>.>.>.>.&.[ Q < 7 @ # : c V C C : @ Q 6 < 2 < 7 Q -.:.:.-.! 7 < 7 ( Q < 7 ! Q ! < < b.b.",
"b.b.! ( >.>.>.>.>.>.>.>.>.Q < ! ! >.>.>.>.>.>.>.>.>.| ! 2 = - # $ % & & : > < 6 ! ! ! 3 < ! ! ! ! < 3 ! | >.$.! 5 < < < < < b.b.",
"b.b.Q ! -.;.>.:.-.-.-.-.-.6 < ( [ >.>.>.>.>.>.>.>.>.} Q 2 < ; @ @ @ @ @ ; 6 2 Q } } } 7 3 Q 9 Q 7 3 7 [ &.:.&.} 8 3 < < < < b.b.",
"b.b.< < ! [ >.&.! ! ! ! Q 4 < -.>.>.>.>.>.>.>.>.>.>.Q < < < < < < < < < < 5 ! $.>.>.>.} ! < < < 2 ! } >.>.>.>.>.| ! 3 < < < b.b.",
"b.b.< < ! [ &.| 7 7 7 7 Q 2 < ..&.>.>.>.>.>.>.>.:.=.Q < 4 4 5 5 3 5 5 3 < 5 ! $.>.>.>.&.| 2 < 5 6 | $.>.>.>.>.>.| ! 2 < < < b.b.",
"b.b.< 2 ! ! ! 7 < < < < < < < Q ! >.>.>.>.>.>.>.$.! 2 < Q ! ! ! ! ! Q A < 5 ! o.>.>.>.>.>.4 < ! ( >.>.>.>.>.>.>.| ! 3 < < < b.b.",
"b.b.< < ! Q 6 6 6 6 7 6 6 6 6 6 6 $.$.$.$.$.o.$.( 6 2 < Q ! $.$...../ Q < 9 $.-.>.>.>.>.>.4 < $.&.>.>.>.>.>.>.>.| ! 2 < < < b.b.",
"b.b.< < ! ! < 5 ! ! ! / ! ! ! 2 < ! ! ! ! ! ! ! 6 < < < Q ! :.>.>.:.! Q < ^ >.>.>.>.>.>.>.5 < :.>.>.>.>.>.>.>.>...! < < < < b.b.",
"b.b. . .5 6 7 ( &.&.&.&.&.( ! 2 < 3 5 5 5 5 5 5 < < < < 2 5 [ ....} 5 3 < 7 | | ..=.>.$.| 3 < | o.>.>.>.>.>.>.>.| ! 3 < 7 7 b.b.",
"b.b.>.-.< 3 ! | >.>.>.>.>.} ! < < < < < < < < < < < < < < < ! ! ! ! < < < 5 ! ! ! &.>.} ! < < ! ( >.>.>.>.>.>.>.| ! 3 < ! ! b.b.",
"b.b.>.-.< 8 =.:.>.>.>.>.>.:.-.! ! < < Q 7 Q 6 < 5 Q ! 7 9 Q 5 2 < 5 Q 9 9 7 3 3 2 ^ [ 6 5 < < 3 5 } | } } } } } 7 3 7 Q &.-.b.b.",
"b.b.>.-.< 8 >.>.>.>.>.>.>.>.>.( ! < < ! ! ! 7 < 7 ! ! ! ! ! < < < < ! ( ! 7 < < < 9 / 4 < < < < 2 ! ! ! ! ! ! ! 5 < Q ! :.:.b.b.",
"b.b.>.-.< 2 [ ..>.>.>.>.>.| ( 3 < ! / :.&.! 7 < ) :.:.:.:.:.4 < ! / :.:.:.;.-.:.-.^ < < < < < ! Q < < 3 < < 2 < 7 ! &.:.>.>.b.b.",
"b.b.>.-.< 3 ! | >.>.>.:.>.} ! < < ! [ >.-.! 7 < ) >.>.>.>.>.4 < ! ( >.>.>.>.>.>.>.Q < < < < < ! ! < < < < < < < 7 ! -.>.>.>.b.b.",
"b.b.b.b.b.b.b.b.b.b.b.b.b.b.b.b.b.b.b.b.b.b.b.b.b.b.z.z.b.b.b.b.b.b.b.b.b.b.b.b.b.b.b.b.b.b.b.b.b.b.b.b.b.b.b.b.b.b.b.b.b.b.b.b.",
"b.b.b.b.b.b.b.b.b.b.b.b.b.b.b.b.b.b.b.b.b.b.b.b.b.b.z.z.b.b.b.b.b.b.b.b.b.b.b.b.b.b.b.b.b.b.b.b.b.b.b.b.b.b.b.b.b.b.b.b.b.b.b.b."
};
