/* XPM */
static char *result[] = {
/* columns rows colors chars-per-pixel */
"64 64 134 2 ",
"   c #7A0000",
".  c #662310",
"X  c #732310",
"o  c #7F2310",
"O  c #693519",
"+  c #713535",
"@  c #783B3D",
"#  c #534721",
"$  c #724E3C",
"%  c #6F5235",
"&  c #785C3F",
"*  c #7F3F43",
"=  c #5E5845",
"-  c #605A47",
";  c #6D5A45",
":  c #665F4E",
">  c #765559",
",  c #6A6253",
"<  c #776B55",
"1  c #7C5B60",
"2  c #6A6A6B",
"3  c #716B66",
"4  c #766F6C",
"5  c #747466",
"6  c #7E7867",
"7  c #757469",
"8  c #78726E",
"9  c #777A6C",
"0  c #6E6F71",
"q  c #706F72",
"w  c #6F7274",
"e  c #737275",
"r  c #767478",
"t  c #7A767C",
"y  c #767A7C",
"u  c #7A797D",
"i  c #920000",
"p  c #9F0000",
"a  c #821A1A",
"s  c #A00000",
"d  c #AB0000",
"f  c #B90000",
"g  c #A31208",
"h  c #8B2528",
"j  c #8E2B2E",
"k  c #AC2A2B",
"l  c #B92A2B",
"z  c #B73637",
"x  c #C70000",
"c  c #D50000",
"v  c #E30000",
"b  c #824549",
"n  c #854B4F",
"m  c #984C42",
"M  c #8B5E4A",
"N  c #885155",
"B  c #8A565B",
"V  c #925556",
"C  c #9E5556",
"Z  c #AA5556",
"A  c #946853",
"S  c #9D725D",
"D  c #815E65",
"F  c #8B696F",
"G  c #A26566",
"H  c #AE6465",
"J  c #BA6566",
"K  c #B17474",
"L  c #BD7474",
"P  c #B77A7A",
"I  c #C65556",
"U  c #D66566",
"Y  c #C97474",
"T  c #DD7A7A",
"R  c #A0825A",
"E  c #A99468",
"W  c #7D7980",
"Q  c #837E86",
"!  c #7D8186",
"~  c #808187",
"^  c #86838C",
"/  c #81898D",
"(  c #8A8B8C",
")  c #938289",
"_  c #9D9784",
"`  c #888790",
"'  c #848B91",
"]  c #8A8A93",
"[  c #8C8F99",
"{  c #908F93",
"}  c #879197",
"|  c #8E939D",
" . c #96949A",
".. c #BC8080",
"X. c #B28789",
"o. c #B5A692",
"O. c #B9AE99",
"+. c #8F97A0",
"@. c #8E9CA4",
"#. c #929BA5",
"$. c #949EA8",
"%. c #95A2AC",
"&. c #9FA5AC",
"*. c #98A7B1",
"=. c #9BADB7",
"-. c #A2A2A4",
";. c #A1A8AF",
":. c #AAAAAD",
">. c #A2ABB2",
",. c #BABABC",
"<. c #C29798",
"1. c #F18080",
"2. c #EEBE93",
"3. c #CA9FA0",
"4. c #D9AEAE",
"5. c #D0B2B2",
"6. c #E5ACAD",
"7. c #F6CFA1",
"8. c #EBD3BD",
"9. c #FFE1AF",
"0. c #C1C1C3",
"q. c #C7C7C9",
"w. c #CACACB",
"e. c #D3D3D5",
"r. c #D7D7D8",
"t. c #D9D9DA",
"y. c #EFDCC4",
"u. c #F3E4CB",
"i. c #DFDFE0",
"p. c #CBDBFC",
"a. c #E4E4E5",
"s. c #E8E8E8",
"d. c #F3F3F3",
"f. c white",
/* pixels */
"f.f.f.f.f.f.f.f.f.f.f.f.f.f.f.f.f.f.f.f.f.f.f.f.f.f.f.f.f.f.f.f.f.f.f.f.f.f.f.f.f.f.f.f.f.f.f.f.f.f.f.f.f.f.f.f.f.f.f.f.f.f.f.f.",
"f.f.f.f.f.f.f.f.f.f.f.f.f.f.f.f.f.f.f.f.f.f.f.f.f.f.f.f.f.f.f.f.f.f.f.f.f.f.f.f.f.f.f.f.f.f.f.f.f.f.f.f.f.f.f.f.f.f.f.f.f.f.f.f.",
"f.f.=.*.Q u 2 e Q | =.[ Q e 2 W Q =.=.=.*.=.| 2 ' =.=.=.u 2 Q Q =.=.=.=.=.=.=.=.=.=.=.y 2 W Q =.*.Q Q Q t 2 e Q #.*.=.=.=.=.f.f.",
"f.f.*.%.Q t 2 e Q [ *.] Q e 2 ^ ` =.=.=.=.=.} 2 ! *.                    B =.=.=.=.*.*.y 2 Q Q =.*.^ ^ Q t 2 r W +.*.=.=.=.=.f.f.",
"f.f.Q W 2 2 2 2 2 r Q e 2 u Q *.=.=.=.=.=.=.} + @ > i s f d d d f d d i j B B ) =.[ Q q 2 Q Q =.=.=.%.Q t 2 2 2 t Q %.=.=.=.f.f.",
"f.f.Q Q 2 2 q q q r W q 2 ! ] *.=.=.=.=.*.%.'       d x v v v v v v v d i     N %.] Q q 2 Q Q =.=.=.%.Q t 2 2 2 t Q +.%.%.%.f.f.",
"f.f.Q Q 2 0 Q Q Q r 2 2 2 @.=.=.=.=.>.>.%.>   d d d v v v v v v v v v v x d d i   Q Q e 2 W Q =.=.=.%.Q t 2 2 2 t Q Q Q Q Q f.f.",
"f.f.t t e u [ [ [ ~ e 2 2 [ $.*.=.=.*.#.N a i d f x v v v v v v v v v v c x d p i b 1 2 2 r t #.#.#. .Q t 2 2 2 e W t t t t f.f.",
"f.f.2 0 Q ] =.=.=.| Q e 2 W Q *.=.=.*.Q   i d d x v v v v v v v v v v v v v d d s   + 2 2 2 2 Q ~ Q Q Q t 2 2 2 2 2 2 2 2 2 f.f.",
"f.f.2 0 Q ] =.=.=.+.Q e 2 e e | +.| n   d d d v v v v v v v v v v v v v v v v x d d i   r r e r r r r r r r r r 0 2 2 2 2 2 f.f.",
"f.f.2 2 Q ] =.=.=. .Q e 2 2 2 W Q * h i d f x v v v v v v v v v v v v v v v v c x d s i * D Q 2 2 2 2 2 q Q Q Q e 2 2 2 2 2 f.f.",
"f.f.2 2 e W [ [ [ ~ e 0 2 2 2 e e   i d d x v v v v v v v v v v v v v v v v v v v d d d   * Q 2 2 W W |  .#.#.#.^ t 2 2 2 2 f.f.",
"f.f.2 2 2 0 Q Q Q r 2 2 2 2 2 2 2   i d v v v v v v v v v v v v v v v v v v v v v v x d   * Q 2 0 Q ] =.=.=.=.=.[ Q q 2 2 2 f.f.",
"f.f.W t 2 2 q q q r W W W W W > @ i s d v v v v v v v v v v v v v v v v v v v v v v x d i h n 2 2 Q Q ] ] ] ] ] ^ Q q 2 r t f.f.",
"f.f.Q Q 2 2 2 2 2 r Q Q Q Q Q *   d d d v v v v v v v v v v v v v v v v v v v v v v x d d i   2 0 Q Q Q Q Q Q Q Q Q 0 2 W Q f.f.",
"f.f.Q W 2 q W Q W | *.*.*.*.*.b   d d d d x v v v v v v v v v v v v v v v v v v v d d d d i   2 2 0 0 0 q 2 0 0 2 0 2 2 $.*.f.f.",
"f.f.Q Q 2 q Q Q ^ +.=.=.=.=.=.b   d d d d x v v v v v v v v v v v v v v v v v v v d d d d i   2 2 2 2 2 2 2 2 2 2 2 2 2 %.*.f.f.",
"f.f.Q Q 2 2 Q [ =.=.=.=.=.=.=.B   d d d d x v v v v v v v v v v v v v v v v v v v d d d d i   2 2 2 2 2 e Q Q Q Q Q q 2 Q Q f.f.",
"f.f.Q t 2 q Q [ =.=.=.=.=.=.=.B   d d d d d d v v v v v v v v v v v v v v v v x d d d d d i   2 2 2 2 2 e Q Q ^ ^ ^ e 0 W W f.f.",
"f.f.2 2 2 q Q [ =.=.=.=.=.=.=.B   d d d d d d x c v v v v v v v v v v v v v x f d d d d d i   Q W 2 2 2 e Q +.=.=.=.] Q 2 2 f.f.",
"f.f.y y 2 4 Q [ =.=.=.=.=.=.>.B   d d d d d d d x v v v v v v v v v v v v v d d d d d d d i   ] ^ 0 0 2 q Q +.=.=.=.| ] e 2 f.f.",
"f.f.=.*.2 q Q [ =.>.=.=.=.=.:.Z   d d d   i d d x v v v v v v v v v v v v v d d d   i d s i   :.&.Q W 2 e Q +.=.=.=.=.=.w 2 f.f.",
"f.f.=.*.! W t / #.#.#.#.#.#.:.Q V d d d i i i d f x v v v v v v v v v v c x d p i i p d d k V :.;.[ ` r r t } =.=.=.$.#.0 2 f.f.",
"f.f.=.=.=.@.2 q Q Q ~ Q Q Q :.:.:.d d d d i   d d d v v v v v v v v v v x d d i   d d d d Z :.:.;.=.$.Q t 2 ] =.=.=.] Q 2 2 f.f.",
"f.f.| +.| ] 2 2 r r r r r r :.,.w.w.J d d d d   i d d x v v v v v v v d d d   i d d d d w.w.w.:.$.| | Q u 2 W +.+.+.W r 2 2 f.f.",
"f.f.Q Q Q u 2 2 2 2 2 2 2 2 :.,.w.t.3.J d d d i i i i d x v v v v c x i i i i p d d z J t.e.w.:. .Q Q Q t 2 r Q Q Q q 2 2 2 f.f.",
"f.f.e e e w 2 2 2 e t t t t :.,.w.s.t.w.d d d d i     i d v v v v x d       d d d d J w.s.t.w.:.{ r e e q 2 2 e e e t t t t f.f.",
"f.f.2 2 2 2 2 2 2 r Q Q Q Q ^ ] :.w.t.s.w.w.w.            d d d d i           G w.w.t.s.w.,.:.2 2 2 2 2 2 2 2 2 2 2 W Q Q Q f.f.",
"f.f.W W W r 2 2 2 r Q | %.` Q W ( ,.w.t.t.i.a...P K K G B Y z d Y H V K K K ..5.a.r.r.t.,.-.( W F W W W Q W e 2 r W +.%.%.%.f.f.",
"f.f.Q Q Q W 2 2 2 r Q #.=.] Q 2 2 :.,.w.s.d.f.f.d.s.s.w.:.s.Y d s.w.:.s.s.s.f.f.f.s.t.w.:.( 2 Q / Q Q Q Q Q r 2 t Q %.=.=.=.f.f.",
"p.p.*.*.*.#.W t 2 r Q #.=.] Q 2 2   V :.w.t.s.s.d.f.:.w.s.f.f.f.f.d.s.:.e.f.s.s.s.w.,.:.  + 2 Q ^ *.$.Q t 2 e Q +.*.=.=.=.=.f.f.",
"p.p.=.=.=.%.Q t 2 e Q #.=.] Q > + i k I J <.w.w.r.a.:.0.r.f.f.f.f.s.t.:.q.a.w.w.q.J J I i a + Q ^ =.%.Q t 2 r Q #.=.=.=.=.*.f.f.",
"f.f.=.=.=.%.Q t 2 e Q Q Q Q Q $   d x v d Z :.:.,.w.:.,.w.f.f.f.f.a.w.:.,.w.:.:.:.d x v d i   Q Q Q Q Q r 2 r Q #.=.=.=.=.=.p.p.",
"f.f.=.=.*.#.Q r 2 e Q Q Q Q   i d v v v d d d d d d d Z :.w.r.s.w.,.:.d d d d d d d x v v x d   * Q W Q r 2 r Q #.=.=.=.=.=.p.p.",
"p.p.=.*.Q u 2 2 2 2 2 2 2 2   s x v c x i p d x x x x l Z ,.0.w.,.X.Z x x x x f d i d x v c x   + 2 2 2 2 2 r Q #.=.=.=.=.*.f.f.",
"p.p.%.#.W t q q q 2 2 2 q 2   d v v x d   i d v v v v x d :.:.:.:.Z d v v v v x d   i d v v v   @ y y y y q r W | %.%.%.%.%.f.f.",
"f.f.Q Q 2 e Q Q Q r 2 t  .:.w.U v v x d   i d v v v v v v d d d d x v v v v v x d   i d v v v w.,.:.=.=.#.Q r 2 t Q Q Q Q Q f.f.",
"f.f.t t e u [ ] Q r 2 u  .:.t.6.1.1.T Y . X o x c v v v v x x x x c v v v v x g o . m Y 1.1.1.t.0.:.#.#.| Q e 2 e t t t t W f.f.",
"f.f.2 2 Q ] =.#.Q r 2 t  .:.s.d.f.f.d.s.# # # d x v v v v v v v v v v v v v d o # # _ s.f.f.f.s.w.:.Q Q Q Q r 2 2 2 2 2 2 2 f.f.",
"f.f.2 2 Q ^ | ] r r e ] | *.:.w.s.s.w.:.# # # # o d # # # # o d # # # # o d # # # # 6 :.s.s.s.:.{ r r r r r q 2 q r r r e r f.f.",
"f.f.2 2 Q Q Q t 2 r Q #.=.=.F O.u.8.o.6 . X o # o d # # # # o d # # # # o d # O o . $ 6 8.y.u.6 4 2 2 2 2 2 2 2 t Q Q Q Q Q f.f.",
"f.f.2 2 e e e q 2 r Q #.=.=.# E 9.2.R #   i d # a d # # # # o d # # # # o d # o d   . # 2.7.9.# : t e 2 q t t W [ #.#.#.^ Q f.f.",
"f.f.2 2 2 2 2 2 2 r Q $.=.*.=.9 # # 5 Q :.w.s.d x v v v v v v v v v v v v v d Y s.:. .Q # # # Q Q Q W 2 q Q Q Q #.=.=.=.^ Q f.f.",
"f.f.W W W W W W W r e W ] *.=.u , , 8 w :.w.s.Y T 1.1.1.1.1.1.1.1.1.1.1.1.1.Y 4.s.:.&.%.9 9 9 %.#.Q W 2 e Q [ %.*.=.=.=.r q f.f.",
"f.f.Q Q Q Q Q Q Q r 2 t Q %.=.^ Q Q Q 2 :.w.s.s.d.f.f.f.f.f.f.f.f.f.f.f.f.f.s.s.s.:.>.=.=.=.=.=.*.Q W 2 e Q +.=.=.=.=.=.e 2 f.f.",
"f.f.Q ` *.*.*.*.*.[ Q q 0 Q ^ q 4 2 0 Q W  .:.:.w.s.a.s.s.s.s.s.s.s.s.s.s.s.:.:.:.W ^ %.=.=.=.=.=.*.#.Q t 2 u ^ $.=.=.=.w 2 f.f.",
"f.f.Q ^ =.=.=.=.=.+.Q e 2 W Q 0 2 2 2 Q Q F V Z J Y Y Y Y K K K K L Y Y Y Y Z C V t Q %.=.=.=.=.=.=.%.Q t 2 r Q #.=.=.=.w 2 f.f.",
"f.f.=.=.=.=.=.=.=.=.=.[ Q 0 2 W Q Q ^ =.=.B   d d d d d d         i d d d d d i   2 2 W Q *.=.=.*.Q u 2 e Q r 2 u Q Q Q 2 2 f.f.",
"f.f.*.*.=.=.=.=.=.=.=. .^ 0 2 W Q ` ] =.=.=.=.# ; S S A M # 7 *.# % M S S S # = 0 2 0 t W $.*.*.%.Q t 2 t ^ t 0 t Q W Q 2 2 f.f.",
"f.f.Q ^ =.=.=.=.=.=.=.=.=.W 2 W Q =.=.=.=.=.=.8 < ; & & % - 4 Q , ; % ; ; ; = 3 Q Q Q q 2 Q Q Q Q 2 q Q [ =.+.Q q 2 2 2 2 2 f.f.",
"f.f.W Q %.%.=.*.%.%.%.%.%.y 2 ` ] =.=.=.=.=.=.=.6 # # # # 2 t W F , # # # # 0 W ] ] ] r 0 W W W t q r ] +.=.$.] u q 2 2 2 2 f.f.",
"f.f.2 2 Q ] =.#.Q Q Q Q Q 0 2 %.=.=.=.=.=.=.=.=.=.=.~ 3 2 2 2 2 2 0 2 2 4 8 Q  .=.=.=.] Q 0 2 2 0 Q ] =.=.=.=.=.[ Q q 2 2 2 f.f.",
"f.f.2 2 Q ` #.[ t t t t t 0 2 | +.=.=.=.=.=.=.=.%.#.! 2 e e e e w e e e 2 e Q +.=.=.=.+.| 0 2 w r [ +.=.=.=.=.=.[ Q q 2 2 2 f.f.",
"f.f.2 0 Q Q Q t 2 2 2 2 2 2 2 W Q =.=.=.=.=.=.=.+.Q e 2 u Q Q Q ~ ^ Q u 2 e Q +.=.=.=.=.=.w 2 Q ^ =.=.=.=.=.=.=.[ Q q 2 2 2 f.f.",
"f.f.2 2 Q W r r r r r r r r r r r +.+.+.+. .+.+.^ r 2 2 u Q | +. .| Q W 2 u +.%.=.=.=.=.=.w 2 +.+.=.=.=.=.=.=.=.[ Q 0 2 2 2 f.f.",
"f.f.2 2 Q Q 2 e Q Q Q Q Q Q Q 0 2 Q Q Q Q Q Q Q r 2 2 2 W Q *.=.=.*.Q W 2 ! =.=.=.=.=.=.*.w 2 =.=.=.=.=.=.=.=.=.[ Q 2 2 2 2 f.f.",
"f.f.} } q r t / #.#.#.#.#.^ Q 0 2 e e e e e e e 2 2 2 2 0 e ] [ } ] e q 2 r | [ | %.=.| | 2 2 [  .=.=.=.=.=.=.=.[ Q q 2 r t f.f.",
"f.f.=.%.2 0 Q [ =.=.=.=.=.] Q 0 2 2 2 2 2 2 2 2 2 2 2 2 2 2 Q Q Q Q 2 2 2 e Q Q Q $.=.] Q 0 2 Q ^ =.=.=.=.=.=.=.[ Q q 2 Q Q f.f.",
"f.f.=.*.2 r %.*.=.=.=.=.=.*.$.Q W 2 2 W t W r 2 e W Q t u W e 0 0 q W W W t q q w W ] y q 2 2 4 r ] [ ] ] ] ] ] u q t W #.%.f.f.",
"f.f.=.%.2 y =.=.=.=.=.=.=.=.=.^ Q 2 0 Q Q Q t 2 r Q Q Q Q Q 0 2 2 0 Q Q Q r 2 2 2 r Q w 2 2 2 2 2 Q Q Q Q Q Q Q e 2 W Q *.=.f.f.",
"f.f.=.%.2 0 ^  .=.=.=.=.=.[ ^ q 2 Q ~ *.#.Q r 2 / *.*.*.*.*.w 2 Q ~ *.*.*.&.%.*.%.! 2 2 2 2 2 Q W 2 0 2 2 2 q 2 r Q #.*.=.=.f.f.",
"f.f.=.%.2 q Q [ =.=.=.*.=.] Q 2 2 Q ^ =.%.Q t 2 ' =.=.=.=.*.w 2 Q / =.=.=.=.=.=.=.W 2 2 2 2 2 Q Q 2 2 2 2 2 2 2 t Q %.=.=.=.f.f.",
"f.f.f.f.f.f.f.f.f.f.f.f.f.f.f.f.f.f.f.f.f.f.f.f.f.f.p.p.f.f.f.f.f.f.f.f.f.f.f.f.f.f.f.f.f.f.f.f.f.f.f.f.f.f.f.f.f.f.f.f.f.f.f.f.",
"f.f.f.f.f.f.f.f.f.f.f.f.f.f.f.f.f.f.f.f.f.f.f.f.f.f.p.p.f.f.f.f.f.f.f.f.f.f.f.f.f.f.f.f.f.f.f.f.f.f.f.f.f.f.f.f.f.f.f.f.f.f.f.f."
};
