/* XPM */
static char *result[] = {
/* columns rows colors chars-per-pixel */
"64 64 137 2 ",
"   c #7A0000",
".  c #662310",
"X  c #732310",
"o  c #7F2310",
"O  c #693519",
"+  c #713535",
"@  c #753739",
"#  c #783B3D",
"$  c #756510",
"%  c #534721",
"&  c #724E3C",
"*  c #6F5235",
"=  c #785C3F",
"-  c #7F3F43",
";  c #5E5845",
":  c #675A46",
">  c #665E4E",
",  c #765559",
"<  c #6A6253",
"1  c #7C5B60",
"2  c #6A6A6B",
"3  c #746D69",
"4  c #7E7867",
"5  c #76746A",
"6  c #777A6C",
"7  c #6E6F71",
"8  c #706F72",
"9  c #6F7274",
"0  c #737275",
"q  c #767478",
"w  c #7A767C",
"e  c #767A7C",
"r  c #7A797D",
"t  c #920000",
"y  c #9F0000",
"u  c #951208",
"i  c #821A1A",
"p  c #AB0000",
"a  c #BA0000",
"s  c #891F22",
"d  c #8D282B",
"f  c #9E2A2B",
"g  c #AC2A2B",
"h  c #B33233",
"j  c #C70000",
"k  c #D50000",
"l  c #E30000",
"z  c #C13233",
"x  c #824549",
"c  c #854B4F",
"v  c #8B5E4A",
"b  c #885155",
"n  c #8A565B",
"m  c #925556",
"M  c #9E5556",
"N  c #AA5556",
"B  c #946853",
"V  c #9D725D",
"C  c #8B696F",
"Z  c #A26566",
"A  c #BA6566",
"S  c #B17474",
"D  c #BD7474",
"F  c #C65556",
"G  c #C97474",
"H  c #DD7A7A",
"J  c #978300",
"K  c #A49533",
"L  c #A0825A",
"P  c #A99468",
"I  c #B0A666",
"U  c #D7906E",
"Y  c #7D7980",
"T  c #837E86",
"R  c #7D8186",
"E  c #808187",
"W  c #86838C",
"Q  c #81898D",
"!  c #8B8B8D",
"~  c #958288",
"^  c #9D9784",
"/  c #888790",
"(  c #848B91",
")  c #8A8A93",
"_  c #8C8F99",
"`  c #879197",
"'  c #8E939D",
"]  c #96949A",
"[  c #B28789",
"{  c #AD8F90",
"}  c #BA8F90",
"|  c #BAA484",
" . c #8F97A0",
".. c #8E9CA4",
"X. c #929BA5",
"o. c #949EA8",
"O. c #9DA0A6",
"+. c #95A2AC",
"@. c #9FA5AC",
"#. c #98A7B1",
"$. c #9BADB7",
"%. c #A2A5AA",
"&. c #AAAAAD",
"*. c #A2ABB2",
"=. c #BABABC",
"-. c #C88F90",
";. c #F18080",
":. c #D0AD9D",
">. c #EEBE93",
",. c #CA9FA0",
"<. c #CFA5A6",
"1. c #D9AEAE",
"2. c #CDBBB4",
"3. c #C5C0A0",
"4. c #D4C5AE",
"5. c #DCC4AF",
"6. c #F6CFA1",
"7. c #EDD2AF",
"8. c #FBD8A8",
"9. c #E0CDB6",
"0. c #E4D5BD",
"q. c #F2DBB6",
"w. c #FFE1AF",
"e. c #C1C1C3",
"r. c #CACACC",
"t. c #DACEC5",
"y. c #D3D3D5",
"u. c #D9D9DA",
"i. c #ECDDC4",
"p. c #E4DDD1",
"a. c #F3E4CB",
"s. c #ECE4D8",
"d. c #CBDBFC",
"f. c #E4E4E5",
"g. c #E8E8E8",
"h. c #F3F3F3",
"j. c #FFFFFF",
/* pixels */
"j.j.j.j.j.j.j.j.j.j.j.j.j.j.j.j.j.j.j.j.j.j.j.j.j.j.j.j.j.j.j.j.j.j.j.j.j.j.j.j.j.j.j.j.j.j.j.j.j.j.j.j.j.j.j.j.j.j.j.j.j.j.j.j.",
"j.j.j.j.j.j.j.j.j.j.j.j.j.j.j.j.j.j.j.j.j.j.j.j.j.j.j.j.j.j.j.j.j.j.j.j.j.j.j.j.j.j.j.j.j.j.j.j.j.j.j.j.j.j.j.j.j.j.j.j.j.j.j.j.",
"j.j.$.#.T r 2 0 T ] $._ T 0 2 Y T $.$.$.$.$.` 2 ( $.$.$.r 2 T T $.$.$.$.$.$.$.$.$.$.$.e 2 T T $.#.T T T w 2 q T X.$.$.$.$.$.j.j.",
"j.j.#.+.T w 2 8 T ` #.) Y 0 2 W W $.$.$.$.$.` 2 R #.                    n $.$.$.$.#.$.Y 2 Y T $.#.W W T w 2 0 Y  .#.$.$.$.$.j.j.",
"j.j.T T 2 2 2 2 2 q T 0 2 r T #.$.$.$.$.$.$.` + # x t y p p p p p p p t d n n ~ $._ T 8 2 T T $.$.$.+.T w 2 2 2 w T o.$.$.$.j.j.",
"j.j.T T 2 2 8 8 8 q Y 8 2 W / $.$.$.$.$.$.+.(       p j l l l l l l l p t     b +.) T 8 2 T T $.$.$.o.T w 2 2 2 w T X.+.+.+.j.j.",
"j.j.T T 2 8 T T T q 2 2 2 ..$.$.$.$.$.$.+.-   p p p l l l l l l l l l l j p p t   T T 8 2 Y T $.$.$.+.T w 2 2 2 w T T T T T j.j.",
"j.j.w w 8 e _ _ _ W 0 2 2 ( X.$.$.$.$.X.b s t p a j l l l l l l l l l l k j p y t - 1 2 2 q w X.X.X. .T w 2 2 2 0 Y w w w w j.j.",
"j.j.2 7 T / $.$.$.' T 0 2 Y T #.$.$.#.T   t p p j l l l l l l l l l l l l l p p p   + 2 2 2 2 T T T T T w 2 2 2 2 2 2 2 2 2 j.j.",
"j.j.2 2 T / $.$.$.' T 0 2 0 q ' '  .c   p p p l l l l l l l l l l l l l l l l j p p t   w w q q w 0 w 0 q q q q 2 2 2 2 2 2 j.j.",
"j.j.2 7 T ) $.$.$. .T 0 2 2 2 Y T - s t p a j l l l l l l l l l l l l l l l l k j p y t d 3 Y 2 2 2 2 2 8 T T T 0 2 2 2 2 2 j.j.",
"j.j.2 2 0 r _ ' ' Y 0 7 2 2 2 0 0   t p p j l l l l l l l l l l l l l l l l l l l p p p   , T 2 2 w Y '  .X.o.o.W Y 2 2 2 2 j.j.",
"j.j.2 2 2 8 T T T q 2 2 2 2 2 2 2   t p l j p p A r.r.r.r.r.r.r.r.r.r.r.r.r.p p p l j p   - T 2 7 T ) $.*.$.$.$._ T 7 2 2 2 j.j.",
"j.j.Y w 2 2 8 8 8 q Y Y w Y Y , # t y p j z A A <.f.f.f.f.f.f.f.f.g.f.f.f.f.A A A j a p t d c 2 2 T W ) ) ) ) ) W T 8 2 q Y j.j.",
"j.j.T T 2 2 2 2 2 q T T T T T -   p p p p A r.r.f.j.j.j.j.j.j.j.j.j.j.j.j.j.r.r.r.p p p p t   2 7 T T T T T T T T T 7 2 Y T j.j.",
"j.j.T T 2 2 T Y T _ #.#.#.#.$.x   p p p r.f.j.j.j.j.j.j.j.j.j.j.j.j.j.j.j.j.j.j.j.r.A p p t   2 2 2 7 7 2 8 2 8 2 7 2 2 o.#.j.j.",
"j.j.T T 2 8 T T T  .$.$.$.$.$.x   p h A u.g.j.j.j.h.h.h.h.h.h.h.h.h.h.h.h.h.j.j.j.u.,.A p t   2 2 2 2 2 2 2 2 2 2 2 2 2 +.$.j.j.",
"j.j.T T 2 2 T _ $.$.$.$.$.$.$.n   p A r.g.h.j.j.h.f.f.f.g.g.g.g.g.g.g.g.g.g.j.j.j.g.u.r.p t   2 2 2 2 2 0 T T T T T 7 2 T T j.j.",
"j.j.Y r 2 8 T _ $.$.$.$.$.$.$.n   &.r.g.j.h.g.g.u.r.r.r.r.r.r.r.r.r.r.r.r.r.g.g.g.j.h.g.&.m   2 2 2 2 2 0 T T W W W 0 7 Y Y j.j.",
"j.j.2 2 2 8 T _ $.$.$.$.$.$.$.~ m r.u.g.h.f.u.u.r.=.=.e.r.:.:.:.:.2.r.=.=.=.u.u.u.h.h.g.r.{ m T Y 2 2 2 0 T  .$.$.$.) T 2 2 j.j.",
"j.j.e e 2 8 T _ $.$.$.$.$.$.$.*.&.g.f.g.g.u.r.r.=.&.&.=.r.U U U U :.r.&.&.&.r.r.r.g.g.g.g.r.&./ W 7 7 2 0 T  .$.$.$.' ) 7 2 j.j.",
"j.j.$.+.2 8 T _ $.*.$.$.$.$.&.=.r.g.g.g.r.=.&.g.h.j.j.j.j.r.5.>.r.f.j.j.j.j.f.r.&.r.u.g.g.u.r.&.@.T Y 2 0 T ' $.$.$.$.$.0 2 j.j.",
"j.j.$.$.R r w W X.X.X.X.X.X.&.=.r.u.u.u.=.e.r.h.j.j.h.g.f.0.7.6.0.p.f.h.j.j.h.u.r.=.r.u.u.y.r.&.*.) / 0 q w ' $.$.$.o.X.7 2 j.j.",
"j.j.$.$.$...2 0 T T T T T T &.=.r.r.r.r.&.r.g.j.j.j.g.u.r.w.w.w.w.0.r.g.h.j.j.h.f.&.=.r.r.r.r.&.*.$.o.T w 2 ( $.$.$.) T 2 2 j.j.",
"j.j.'  .] ) 2 7 0 q q q q q &.=.r.r.=.&.g.g.g.f.u.r.r.0.w.w.w.w.w.w.w.r.r.r.g.g.f.g.r.&.r.r.r.&.O.] _ T w 2 R '  . .Y q 2 2 j.j.",
"j.j.T T T r 2 2 2 2 2 2 2 2 W %.=.=.=.=.r.r.r.u.p.0.0.q.w.w.w.w.w.w.w.0.0.0.u.y.r.r.e.=.=.=.=.] / T T T w 2 q T T T 8 2 2 2 j.j.",
"j.j.0 0 7 8 2 2 2 9 w w w Y w ! &.&.=.r.&.&.&.r.0.w.8.w.w.w.w.w.w.w.w.w.w.w.r.=.&.&.=.r.&.&.&.0 q 0 8 0 8 2 7 0 0 0 w w w w j.j.",
"j.j.2 2 2 2 2 2 2 w T Y T T T 7 2 &.r.g.r.5.>.w.w.w.w.0.r.r.r.r.r.r.r.w.w.w.w.6.>.r.u.g.&.] T 2 2 2 2 2 2 2 2 2 2 2 Y T T T j.j.",
"j.j.Y Y Y w 2 2 2 q T ' +./ T 7 2 &.r.g.u.t.5.0.0.0.a.s.f.f.f.f.f.f.f.a.i.0.0.9.5.u.f.g.&.! 8 Y Y Y Y Y T w 0 2 0 Y  .o.+.+.j.j.",
"j.j.T T T r 2 2 2 q T X.$.) T 2 2 &.r.g.g.u.r.r.r.r.g.h.j.j.j.j.j.j.j.g.u.r.r.r.r.g.f.g.&.! 2 T T T T T T T q 2 w T +.$.$.$.j.j.",
"d.d.#.#.#.X.T w 2 q T X.$.) T 2 2   m &.g.f.g.j.j.j.j.j.j.g.g.g.g.h.j.j.j.j.j.h.g.g.r.&.  + 2 T W #.X.T w 2 q T  .#.$.$.$.$.j.j.",
"d.d.$.$.$.+.T w 2 0 T X.$.) T , + t g F r.u.g.h.j.j.j.h.h.h.h.h.h.h.h.j.j.j.h.g.g.r.-.F t i + T / $.+.T w 2 q T X.$.$.$.$.$.j.j.",
"j.j.$.$.$.+.T w 2 q T T T T T @   p j l &.r.g.f.h.j.j.h.g.j.j.j.j.h.g.j.j.j.g.g.g.&.F l p t   T T T T T w 2 q T X.$.$.$.$.$.d.d.",
"j.j.$.$.#.o.Y w 2 0 Y T Y T   t p l l l p N &.g.f.f.j.j.j.j.j.j.j.j.j.j.h.g.f.r.&.p j l l j p   - T T T q 2 q T X.$.$.$.$.$.d.d.",
"d.d.$.#.T Y 2 2 2 2 2 2 2 2   t p l l l t f N r.u.g.h.j.j.j.j.j.j.j.j.h.g.g.r.} N t a l l j p   + 2 2 2 2 2 q T X.$.$.$.$.$.j.j.",
"d.d.o.X.Y w 8 8 0 2 2 2 7 0   t p l l l   t p &.r.g.g.h.j.j.j.j.j.j.j.g.g.g.&.N p   p k l j p   - e e e q 7 q Y ' +.o.+.+.+.j.j.",
"j.j.T T 2 7 T T T q 2 w ] &.j.j.j.g.u.r.  t p p N &.r.u.g.g.h.j.g.g.g.r.=.&.p p p   Z r.f.h.j.j.y.*.$.$.X.T q 2 w T T T T T j.j.",
"j.j.w w 0 r _ ) T q 2 w ] &.j.j.j.h.f.u.. X o p g N =.r.u.g.g.h.g.s.u.=.[ N p u i . P u.h.j.j.j.y.&.X.X.] T q 2 0 w w w w w j.j.",
"j.j.2 2 T ) $.X.T 0 2 w ] &.j.j.j.j.h.g.% % % p p p &.=.r.g.g.g.g.u.r.&.N p p i % % ^ f.j.j.j.j.y.&.T T T T q 2 2 2 2 2 2 2 j.j.",
"j.j.2 2 T W  .! w w 0 ( ' #.% P w.w.4.&.% % % % o p % $ J r.u.g.r.I J % i p % % % % 4 &.w.w.w.% > 0 q q q q 8 2 8 q q q 0 q j.j.",
"j.j.2 2 T T T w 2 q T X.$.$.% P w.6.| 4 . X i % o p % $ J I 3.u.I K J % o p % O o . & 4 6.8.w.% ; 2 2 2 2 2 2 2 w T T T T T j.j.",
"j.j.2 2 0 0 0 0 2 q T X.$.$.% P w.>.L %   t p % o p % $ J J I r.J J J % o p % o p   . % >.6.w.% > w 0 2 8 w w w _ X.X.X.T T j.j.",
"j.j.2 2 2 2 2 2 2 q T X.$.$.$.e % % 5 T &.r.g.p j l l l l l l l l l k l l l p G g.&.] T % % % T T T w 2 0 T T T X.$.$.$.W T j.j.",
"j.j.Y Y Y Y r Y Y q 8 R ) +.$.C < < 5 8 &.r.g.G H ;.;.;.;.;.;.;.;.;.;.;.;.;.G 1.g.&.@.+.6 6 6 o.o.T T 2 0 T _ +.$.$.$.$.w 8 j.j.",
"j.j.T T T T T T T q 2 r T o.$.W T W T 2 &.r.f.g.h.j.j.j.j.j.j.j.j.j.j.j.j.j.g.g.g.&.*.$.$.$.$.$.#.T Y 2 0 T  .$.$.$.$.$.9 2 j.j.",
"j.j.T W #.#.#.#.#.' Y 0 8 T W 8 8 2 2 T R ] &.&.r.g.f.g.g.g.g.g.g.g.g.g.g.g.&.&.&.Y W +.$.$.$.$.$.#.X.T w 2 r W o.$.$.$.9 2 j.j.",
"j.j.T W $.$.$.$.$.] T 0 2 w T 2 2 2 2 T T C m N A G G G G S S S S D G G G G N M m w T +.$.$.$.$.$.$.o.T w 2 q T X.$.$.$.9 2 j.j.",
"j.j.$.$.$.$.$.$.$.$.$._ T 8 2 T T T / $.$.n   p p p p p p         t p p p p p t   2 2 r T $.$.$.#.T Y 2 0 T q 2 r T T T 2 2 j.j.",
"j.j.#.#.$.$.$.$.$.$.$.] W 7 2 Y T T ) $.$.$.$.% : V V B v % 5 #.% * v V V V % ; 8 2 7 w T o.#.#.+.Y r 2 w W w 7 w T Y T 2 2 j.j.",
"j.j.T W $.$.$.$.$.$.$.$.$.Y 7 Y T $.$.$.$.$.$.6 B : = = * ; 3 T < : * = = : ; 3 T T T 8 2 T T T T 2 8 T _ $. .T 8 2 2 2 2 2 j.j.",
"j.j.Y T +.+.$.#.+.+.+.+.+.w 2 Q ) $.$.$.$.$.$.$.6 % % % % 2 Y Y C < % % % % 8 Y ) ) ) w 8 r r r w 8 w )  .$.X.) r 8 2 2 2 2 j.j.",
"j.j.2 2 T / $.X.T T T T T 8 2 +.$.$.$.$.$.$.$.$.$.$.E 2 2 2 2 2 2 2 2 2 3 q T  .$.$.$.) T 2 2 2 7 T ) $.$.$.$.$._ T 8 2 2 2 j.j.",
"j.j.2 2 T / X._ w w w w w 7 2 ' X.$.$.$.$.$.$.$.+.X.R 2 0 0 0 0 e 0 0 9 2 0 T ' $.$.$. ._ 7 2 0 q _  .$.$.$.$.$._ T 7 2 2 2 j.j.",
"j.j.2 7 T T T w 2 2 2 2 2 2 2 Y T $.$.$.$.$.$.$.] E 0 2 r T T T R T T r 2 0 T ' $.$.$.$.$.9 2 T W $.$.$.$.$.$.$._ T 8 2 2 2 j.j.",
"j.j.2 2 T Y q q q q q q q q q q q  . . . . .' ' W q 2 2 r T ]  . .] T Y 2 e  .o.$.$.$.$.$.9 2 ' X.$.$.$.$.$.$.$._ T 7 2 2 2 j.j.",
"j.j.2 2 T T 2 0 T T T T T T T 7 2 T T T T T T T q 2 2 2 Y T #.$.$.#.T Y 2 W $.$.$.$.$.$.$.9 2 $.$.$.$.$.$.$.$.$._ T 2 2 2 2 j.j.",
"j.j.` ` 0 q w Q X.X.o.X.X.W T 7 2 8 0 0 0 0 0 0 2 2 2 2 9 0 / _ _ ) 0 0 2 q ' _ ' o.$. ._ 7 2 _ ' $.$.$.$.$.$.$._ T 8 2 w w j.j.",
"j.j.$.+.2 8 T _ $.$.$.$.$.) T 2 2 2 2 2 2 2 2 2 2 2 2 2 2 2 T T T T 2 2 2 0 T T T X.$.) T 2 2 T / $.$.*.$.$.$.$._ T 8 2 T T j.j.",
"j.j.$.#.2 q o.#.$.$.$.$.$.#.o.T T 2 2 r w Y w 2 0 Y T w r r 0 0 7 8 Y Y r w 7 8 7 R ) q 0 2 2 8 0 ) ) ) ) ) ) ) r 8 w Y X.o.j.j.",
"j.j.$.+.2 e $.$.$.$.$.$.$.$.$./ T 2 2 T T T w 2 q T T T T T 2 2 2 2 T T T w 2 2 2 q W 9 2 2 2 2 7 T T W T T T T 0 2 Y T #.$.j.j.",
"j.j.$.+.2 7 W ] $.$.$.$.$.) W 8 2 T W #.X.T w 2 Q #.#.#.#.#.9 2 Y W #.#.#.+.+.#.+.R 2 2 2 2 2 T Y 2 2 7 2 2 7 2 w T X.#.$.$.j.j.",
"j.j.$.+.2 8 T _ $.$.$.$.$.) T 7 2 T W $.+.T w 2 ( $.$.$.$.$.9 2 T W $.$.$.$.$.$.$.Y 2 2 2 2 2 T T 2 2 2 2 2 2 2 w T +.$.$.$.j.j.",
"j.j.j.j.j.j.j.j.j.j.j.j.j.j.j.j.j.j.j.j.j.j.j.j.j.j.d.d.j.j.j.j.j.j.j.j.j.j.j.j.j.j.j.j.j.j.j.j.j.j.j.j.j.j.j.j.j.j.j.j.j.j.j.j.",
"j.j.j.j.j.j.j.j.j.j.j.j.j.j.j.j.j.j.j.j.j.j.j.j.j.j.d.d.j.j.j.j.j.j.j.j.j.j.j.j.j.j.j.j.j.j.j.j.j.j.j.j.j.j.j.j.j.j.j.j.j.j.j.j."
};
