/* XPM */
static char *de8836d0688e458bd6fc04003529e714nguFXEcXeP5Ue4Lm[] = {
/* columns rows colors chars-per-pixel */
"64 64 10 1 ",
"  c #45283C",
". c #663931",
"X c #3E734E",
"o c #7AB055",
"O c #4D9262",
"+ c #8E99B0",
"@ c #9BADB7",
"# c #B2B2B2",
"$ c #CBDBFC",
"% c white",
/* pixels */
"%%%%%%%%%%%%%%%%%%%%%%%%%%%%%%%%%%%%%%%%%%%%%%%%%%%%%%%%%%%%%%%%",
"%%%%%%%%%%%%%%%%%%%%%%%%%%%%%%%%%%%%%%%%%%%%%%%%%%%%%%%%%%%%%%%%",
"%%%%%%%%%%%%%%%%%%%%%%%%%%%%%%%%%%%%%%%%%%%%@@%%%%%%%%%%%%%%%%%%",
"%%%%%%%%%%%%%%%%%%%%%%%%%%%%%%%%%%$%%%%%%%%%@@%%%%%%%%%%%%%%%%%%",
"%%%%%%%%%%%%%%%%%%%%%%%%%%%%%%%%%$$%%%%%%%@@%%@@%%%%%%%%%%%%%%%%",
"%%%%%%%%%%%%%%%%%%%%%%%%%%%%%%%$$$%%%%%%%%@@%%@@%%%%%%%%%%%%%%%%",
"%%%%%%%%%%%%%%%%%%%%%%%%%%XO$%%%%%%%%%%%%%%%@@%%%%%%%%%%%%%%%%%%",
"%%%%%%%%%%%%%%%%%%%%%%%%%XOo$%%%%%%%%%%%%%%%@@%%%%%%%%%%%%%%%%%%",
"%%%%%%%%%%%%%%%%%%%%%%%%%X%%%$oO%%%%%%%%%%%%%%%%%%%%%%%%%%%%%%%%",
"%%%%%%%%%%%%%%%%%%%%%%%%X%%$$oOo%$%%%%%$%%%%%%%%%%%%%%%%%%%%%%%%",
"%%%%%%%%%%%%%%%%%%%%%%%XOO$Ooo%$$O$%%%%$X%%%%%%%%%%%%%%%%%%%%%%%",
"%%%%%%%%%%%%%%%%%%%%%%%%OOOoOoOoOOO%%$$XX%%%%%%%%%%%%%%%%%%%%%%%",
"%%%%%%%%%%%%%%%%%%%%%%%%%oO%%%%OO%%%$XXXX%%%%%%%%%%%%%%%%%%%%%%%",
"%%%%%%%%%%%%%%%%%%%%%%X%$$oX$$$%%$$$XXXXXX%%%%%%%%%%%%%%%%%%%%%%",
"%%%%%%%%%%%%%%%%%%%%%%$$$oooXXXXXXXOOOXXXX%%%%%%%%%%%%%%%%%%%%%%",
"%%%%%%%%%%%%%%%%%%%%%%XOoooOOOOOOOOOOOOX%X%%%%%%%%%%%%%%%%%%%%%%",
"%%%%%%%%%%%%$$%%%%%%%XO%%OoOoOO%%%%%%%%%$XX$%%%%%%%%%%%%%%%%%%%%",
"%%%%%%%%%%%%$$%%%%%%XO%%%%%OO%%%%%%%$X$$OXXX%%%%%%%%%%%%%%%%%%%%",
"%%%%%%%%%%%%$$%%%%%%XO$$$%%$%OOO$%%$XOXOXXX$%%%%%%%%%%%%%%%%%%%%",
"%%%%%%%%%%%%$$%%%%%%XOOOO$$OOOOOO$$XOXOXOXX$%%%%%%%%%%%%%%%%%%%%",
"%%%%%%%%%%%%$$%%$$%%%%OOXOXOOOOOOOOOOOOOXXX@%%%%%%%%%%%%%%%%%%%%",
"%%%%%%%%%%%%$$%%$$%%%%OOOXOXOXOOOOOOOOOXOXXX%%%%%%%%%%%%%%%%%%%%",
"%%%%%%%%%%%%$$%%$$%%%%oOOOXOXOXOXOOOOOOOXX%XX%%%%%%%%%%%%%%%%%%%",
"%%%%%%%%%%%%$$%%$$%$%%OoOOOXXXXXOXOOO%%O%%%%X%%%%%%%%%%%%%%%%%%%",
"%%%%%%%%%%%%%%%%$$%$%%%OoOOOXXXXXOOO%%%%%$$$X%%%%%%%%%%%%%%%%%%%",
"%%%%%%%%%%%%%%%%$$%X$%%%OoOOO%%%%%OO%%%%$OOXXX%%%%%%%%%%%%%%%%%%",
"%%%%%%%%%%%%%%%%%%%XX%%%%Oo%%$$$$%%%%%$$XOXXXX%%%%%%%%%%%%%%%%%%",
"%%%%%%%%%%%%%%%%%%XX$$$%%%%%OOXXX$$$$$XXOXOXXXX%%%%%%%%%%%%%%%%%",
"%%%%%%%%%%%%%%%%%X%%$XX$$$$$OOOOXXXXXXXOXOXOXXX%%%%%%%%%%%%%%%%%",
"%%%%%%%%%%%%%%%%%X%%%XXXXXXOOOOOOOXXXOOXOX%XXXX%%%%%%%%%%%%%%%%%",
"$$%%%%%%%%%%%%%%%X$%%%oOOOOOOOOOOOOOOOOO%%%$XXX%%%%%%%%%%%%%%%%%",
"$$%%%%%%%%%%%%%%%XX$%%%oOOOOOOOOOOOOOO%%%%$XXXX%%%%%%%%%%%%%%%%%",
"%%$$%%%%%%%%%%%%%XXO$$%%%OO%%%%%$OOOO$$$$$XXOX%%%%%%%%%%%%%%%%$$",
"%%$$%%%%%%%%%%%%%XXXOO$$OO$%%%%$OOOOOOOXOXXXX%$%%%%%%%%%%%%%%%$$",
"$$%%%%%%%%%%%%%%XXXXXOOOOOO$$$$OOOOOOXXXXXXX%$X%%%%%%%%%%%%%%%%%",
"$$%%%%%%%%%%%%%%XXXXXXXXXOOOOOOOOOOOOOOOO%%%$XXX%%%%%%%%%%%%%%%%",
"%%%%%%%%%%%%%%%%X%XOOOOOO%%OOOOOOOOOOOOO%%OOOXXX%%%%%%%%%%%%%%%%",
"%%%%%%%%%%%%%%%%X%%%OX%$$%%%%%%XXXXOoo%%%$OXXXXX%%%%%%%%%%%%%%%%",
"%%%%%%%%%%%%%%%%X%%%%OXXX$$$%XXXXXO%%%$$OXXXXXXX%%%%%%%%%%%%%%%%",
"%%%%%%%%%%%%%%%%X$%%%OXXXXXXXXO$$$$$$$$$$XXOOXXX%%%%%%%%%%%%%%%%",
"%%%%%%%%%%%%%%%%X$%%$$OXXXXXXXXXXXXXXXXXXOOOOOXX%%%%%%%%%%%%%%%%",
"%%%%%%%%%%%%%%%%XO$%%%%OXXXXXXXXXXOOOO%%%%%$OOXX%%%%%%%%%%%%%%%%",
"%%%%%%%%%%%%%%%%XOO$$%%%%OOOO%%OOOOO%%%%$$oOOOXX%%%%%%%%%%%%%%%%",
"%%%%%%%%%%%%%%%%%XOOo$$OOOO%$$$%%O%$$$$$OOOOXXXX%%%%%%%%%%%%%%%%",
"%%%%%%%%%%%%%%%%%%XXXOO$$OOOOOOOOOOOOOOOOOXXXXX%%%%%%%%%%%%%%%%%",
"%%%%%%%%%%%%%%%%%%@XXXXOOOOOOOXXOOOOOOOOXXXXXX%%%%%%%%%%%%%%%%%%",
"%%%%%%%%%%%%%%%%%%%%XXXXXOOOOXXXXXXXXXXXXXXXX%%%%%%%%%%%%%%%%%%%",
"%%%%%%%%%%%%%%%%%%%%@@XXXXXXXXXXXXXXXXXXXXXX%%%%%%%%%%%%%%%%%%%%",
"%%%%%%%%%%%%%%%%%%%%%%%%XXXXXX      XX%%%%%%%%%%%%$$%%%%%%%%%%%%",
"%%%%%%%%%%%%%%%%%%%%%%%%%XXX        %%%%%%%%%%%%%%$$%%%%%%%%%%%%",
"%%%%%%%%%%%%%%%%%%%%%%%%%%%.... . . %%%%%%%%%%$$%%$$%%%%%%%%%%%%",
"%%%%%%%%%%%%%%%%%%%%%%%%%%%.... . . ##%%%%%%%%$$%%$$%%%%%%%%%%%%",
"%%%%%%%%%%%%%%%%%%%%%%%####...... .  #####%%%%$$%%$$%%%%%%%%%%%%",
"%%%%%%%%%%%%%%%%%%%%%#####. ..... .  #######%%$$%%$$%%%%%%%%%%%%",
"%%%%%%%%%%%%%%%%%%%%#####.  ..... .  .#######%$$%%%%%%%%%%%%%%%%",
"%%%%%%%%%%%%%%%%%%%#########.. ..     .#######$$%%%%%%%%%%%%%%%%",
"%%%%%%%%%%%%%%%%%%%########... .    .#########%%%%%%%%%%%%%%%%%%",
"%%%%%%%%%%%%%%%%%%%%#######.         .#######%%%%%%%%%%%%%%%%%%%",
"%%%%%%%%%%%%%%%%%%%%%#####+.########  ######%%%%%%%%%%%%%%%%%%%%",
"%%%%%%%%%%%%%%%%%%%%%%%###++##############%%%%%%%%%%%%%%%%%%%%%%",
"%%%%%%%%%%%%%%%%%%%%%%%%$$%#++########%%%%%%%%%%%%%%%%%%%%%%%%%%",
"%%%%%%%%%%%%%%%%%%%%%%%%$$%%$$%%%%%%%%%%%%%%%%%%%%%%%%%%%%%%%%%%",
"%%%%%%%%%%%%%%%%%%%%%%%%%%$$%%%%%%%%%%%%%%%%%%%%%%%%%%%%%%%%%%%%",
"%%%%%%%%%%%%%%%%%%%%%%%%%%$$%%%%%%%%%%%%%%%%%%%%%%%%%%%%%%%%%%%%"
};
